M48
; DRILL file {KiCad (5.1.4)-1} date 14/10/2019 19:34:30
; FORMAT={3:3/ absolute / metric / suppress trailing zeros}
; #@! TF.CreationDate,2019-10-14T19:34:30+09:00
; #@! TF.GenerationSoftware,Kicad,Pcbnew,(5.1.4)-1
; #@! TF.FileFunction,Plated,1,2,PTH
FMAT,2
METRIC,LZ
T1C0.400
T2C0.750
T3C0.762
T4C0.800
T5C0.920
T6C1.000
T7C1.500
T8C2.300
%
G90
G05
T1
X10414Y-09144
X10414Y-1016
X10414Y-11176
X10414Y-12192
X10414Y-13208
X10922Y-102235
X11049Y-103505
X11176Y-05334
X112395Y-085725
X112395Y-0889
X1143Y-104775
X1143Y-11176
X1143Y-12192
X1143Y-13208
X1143Y-14224
X11557Y-103505
X11938Y-09144
X11938Y-09906
X121285Y-109855
X12192Y-05334
X123825Y-120015
X12446Y-108585
X12446Y-12446
X12446Y-13208
X12446Y-14224
X12573Y-10033
X12573Y-107315
X126365Y-106045
X126365Y-111125
X12954Y-07366
X12954Y-104775
X13208Y-05334
X13208Y-10033
X13335Y-09652
X13462Y-09652
X13462Y-14224
X135255Y-100965
X135255Y-120015
X136525Y-107315
X13716Y-08382
X13716Y-09144
X13716Y-09906
X13716Y-13208
X137795Y-104775
X139065Y-106045
X140335Y-111125
X141605Y-08255
X141605Y-108585
X14224Y-05334
X14224Y-06858
X142875Y-088265
X142875Y-1016
X142875Y-109855
X14478Y-07874
X14478Y-13208
X14478Y-14224
X14732Y-08255
X14859Y-080645
X14859Y-085725
X15113Y-066675
X151765Y-07747
X151765Y-08255
X1524Y-05334
X1524Y-066675
X1524Y-09144
X15367Y-066675
X15488Y-08073
X15494Y-08509
X15494Y-13208
X15494Y-14224
X15621Y-07493
X15621Y-08128
X15621Y-085725
X15748Y-07747
X15748Y-08255
X16256Y-05334
X16256Y-07366
X1651Y-13208
X1651Y-14224
X167005Y-11176
X16764Y-09398
X16764Y-09652
X17272Y-05334
X17526Y-06604
X17526Y-08128
X17526Y-09144
X17526Y-14224
X1778Y-122555
X179705Y-122555
X18288Y-05334
X18542Y-08128
X18542Y-09144
X18542Y-1016
X18542Y-14224
X19558Y-08128
X19558Y-09144
X19558Y-1016
T2
X1778Y-10795
X1778Y-11049
X17907Y-10923
T3
X13878Y-06096
X14078Y-06096
X14278Y-06096
X14478Y-06096
X15402Y-06096
X15602Y-06096
X15802Y-06096
X16002Y-06096
X1083Y-06096
X1103Y-06096
X1123Y-06096
X1143Y-06096
X12354Y-06096
X12554Y-06096
X12754Y-06096
X12954Y-06096
T4
X17526Y-116586
X17526Y-13462
X1778Y-116586
X1778Y-13462
X18034Y-116586
X18034Y-13462
X18288Y-116586
X18288Y-13462
X18542Y-116586
X18542Y-13462
X18796Y-116586
X18796Y-13462
X1905Y-116586
X1905Y-13462
X19304Y-116586
X19304Y-13462
X1778Y-10033
X1778Y-10333
T5
X10684Y-07038
X10684Y-07288
X10684Y-07488
X10684Y-07738
T6
X16891Y-05588
X16891Y-05842
X16891Y-07112
X16891Y-07366
X17145Y-05588
X17145Y-07366
X17907Y-05588
X17907Y-07366
X18161Y-05588
X18161Y-06604
X18161Y-06858
X18161Y-07112
X18161Y-07366
X13716Y-07112
X13716Y-07366
X1397Y-07112
X1397Y-07366
X14224Y-07112
X14224Y-07366
X14478Y-07112
X14478Y-07366
X14732Y-07112
X14732Y-07366
X14986Y-07112
X14986Y-07366
X1524Y-07112
X1524Y-07366
X16256Y-09271
X16256Y-09525
X16256Y-09779
X16256Y-10033
X16256Y-10287
X16256Y-10541
X16256Y-10795
X16256Y-11049
X16256Y-11303
X16256Y-11557
X16256Y-11811
X16256Y-12065
X16256Y-12319
X16256Y-12573
X16256Y-12827
X1651Y-09271
X1651Y-09525
X1651Y-09779
X1651Y-10033
X1651Y-10287
X1651Y-10541
X1651Y-10795
X1651Y-11049
X1651Y-11303
X1651Y-11557
X1651Y-11811
X1651Y-12065
X1651Y-12319
X1651Y-12573
X1651Y-12827
X14478Y-09271
X14478Y-09525
X14478Y-09779
X14478Y-10033
X14478Y-10287
X14478Y-10541
X14478Y-10795
X14478Y-11049
X14478Y-11303
X14478Y-11557
X14478Y-11811
X14478Y-12065
X14478Y-12319
X14478Y-12573
X14478Y-12827
X14732Y-09271
X14732Y-09525
X14732Y-09779
X14732Y-10033
X14732Y-10287
X14732Y-10541
X14732Y-10795
X14732Y-11049
X14732Y-11303
X14732Y-11557
X14732Y-11811
X14732Y-12065
X14732Y-12319
X14732Y-12573
X14732Y-12827
X16256Y-07874
X16256Y-08128
X16256Y-08382
X1651Y-07874
X1651Y-08128
X1651Y-08382
X19304Y-10668
X19304Y-10918
X11684Y-07112
X11684Y-07366
X11938Y-07112
X11938Y-07366
X12192Y-07112
X12192Y-07366
X12446Y-07112
X12446Y-07366
T7
X17018Y-088265
X19067Y-088265
T8
X10414Y-06731
X10414Y-08045
T4
G00X18733Y-12325
M15
G01X18683Y-12325
M16
G05
G00X18733Y-12765
M15
G01X18683Y-12765
M16
G05
T6
G00X19273Y-1227
M15
G01X19243Y-1227
M16
G05
G00X19273Y-1282
M15
G01X19243Y-1282
M16
G05
G00X18796Y-06704
M15
G01X18796Y-06504
M16
G05
G00X19196Y-06134
M15
G01X18996Y-06134
M16
G05
G00X19396Y-06704
M15
G01X19396Y-06504
M16
G05
T0
M30
