M48
; DRILL file {KiCad (5.1.5)-3} date 04/05/2020 17:21:56
; FORMAT={-:-/ absolute / metric / decimal}
; #@! TF.CreationDate,2020-05-04T17:21:56+09:00
; #@! TF.GenerationSoftware,Kicad,Pcbnew,(5.1.5)-3
FMAT,2
METRIC
T1C0.700
T2C1.000
T3C2.200
%
G90
G05
T1
X198.12Y-83.82
X205.74Y-83.82
X198.12Y-81.28
X205.74Y-81.28
X187.96Y-78.74
X195.58Y-78.74
X165.1Y-63.5
X172.72Y-63.5
X121.92Y-101.6
X129.54Y-101.6
X132.08Y-48.26
X139.7Y-48.26
X198.12Y-101.6
X205.74Y-101.6
X165.1Y-104.14
X172.72Y-104.14
X121.92Y-83.82
X129.54Y-83.82
X187.96Y-38.1
X195.58Y-38.1
X154.94Y-109.22
X162.56Y-109.22
X187.96Y-83.82
X195.58Y-83.82
X187.96Y-88.9
X195.58Y-88.9
X198.12Y-63.5
X205.74Y-63.5
X154.94Y-63.5
X162.56Y-63.5
X121.92Y-63.5
X129.54Y-63.5
X198.12Y-66.04
X205.74Y-66.04
X121.92Y-40.64
X129.54Y-40.64
X187.96Y-104.14
X195.58Y-104.14
X132.08Y-40.64
X139.7Y-40.64
X121.92Y-78.74
X129.54Y-78.74
X187.96Y-43.18
X195.58Y-43.18
X154.94Y-43.18
X162.56Y-43.18
X154.94Y-101.6
X162.56Y-101.6
X198.12Y-106.68
X205.74Y-106.68
X121.92Y-99.06
X129.54Y-99.06
X121.92Y-88.9
X129.54Y-88.9
X187.96Y-81.28
X195.58Y-81.28
X198.12Y-86.36
X205.74Y-86.36
X154.94Y-58.42
X162.56Y-58.42
X154.94Y-86.36
X162.56Y-86.36
X187.96Y-66.04
X195.58Y-66.04
X165.1Y-66.04
X172.72Y-66.04
X121.92Y-58.42
X129.54Y-58.42
X154.94Y-66.04
X162.56Y-66.04
X121.92Y-43.18
X129.54Y-43.18
X154.94Y-104.14
X162.56Y-104.14
X121.92Y-48.26
X129.54Y-48.26
X187.96Y-106.68
X195.58Y-106.68
X198.12Y-48.26
X205.74Y-48.26
X165.1Y-40.64
X172.72Y-40.64
X187.96Y-109.22
X195.58Y-109.22
X165.1Y-101.6
X172.72Y-101.6
X187.96Y-48.26
X195.58Y-48.26
X154.94Y-78.74
X162.56Y-78.74
X154.94Y-81.28
X162.56Y-81.28
X121.92Y-60.96
X129.54Y-60.96
X165.1Y-88.9
X172.72Y-88.9
X198.12Y-68.58
X205.74Y-68.58
X132.08Y-109.22
X139.7Y-109.22
X154.94Y-48.26
X162.56Y-48.26
X165.1Y-109.22
X172.72Y-109.22
X121.92Y-45.72
X129.54Y-45.72
X187.96Y-45.72
X195.58Y-45.72
X132.08Y-104.14
X139.7Y-104.14
X187.96Y-40.64
X195.58Y-40.64
X121.92Y-81.28
X129.54Y-81.28
X165.1Y-43.18
X172.72Y-43.18
X165.1Y-48.26
X172.72Y-48.26
X165.1Y-45.72
X172.72Y-45.72
X132.08Y-86.36
X139.7Y-86.36
X154.94Y-83.82
X162.56Y-83.82
X154.94Y-60.96
X162.56Y-60.96
X154.94Y-68.58
X162.56Y-68.58
X132.08Y-60.96
X139.7Y-60.96
X187.96Y-86.36
X195.58Y-86.36
X187.96Y-63.5
X195.58Y-63.5
X198.12Y-43.18
X205.74Y-43.18
X132.08Y-106.68
X139.7Y-106.68
X165.1Y-68.58
X172.72Y-68.58
X187.96Y-99.06
X195.58Y-99.06
X121.92Y-109.22
X129.54Y-109.22
X154.94Y-106.68
X162.56Y-106.68
X132.08Y-88.9
X139.7Y-88.9
X165.1Y-81.28
X172.72Y-81.28
X154.94Y-40.64
X162.56Y-40.64
X121.92Y-68.58
X129.54Y-68.58
X187.96Y-68.58
X195.58Y-68.58
X132.08Y-63.5
X139.7Y-63.5
X132.08Y-68.58
X139.7Y-68.58
X198.12Y-88.9
X205.74Y-88.9
X198.12Y-60.96
X205.74Y-60.96
X121.92Y-106.68
X129.54Y-106.68
X121.92Y-38.1
X129.54Y-38.1
X198.12Y-104.14
X205.74Y-104.14
X132.08Y-45.72
X139.7Y-45.72
X121.92Y-86.36
X129.54Y-86.36
X154.94Y-38.1
X162.56Y-38.1
X154.94Y-99.06
X162.56Y-99.06
X154.94Y-45.72
X162.56Y-45.72
X132.08Y-101.6
X139.7Y-101.6
X198.12Y-45.72
X205.74Y-45.72
X132.08Y-83.82
X139.7Y-83.82
X165.1Y-83.82
X172.72Y-83.82
X165.1Y-86.36
X172.72Y-86.36
X132.08Y-66.04
X139.7Y-66.04
X187.96Y-60.96
X195.58Y-60.96
X121.92Y-66.04
X129.54Y-66.04
X165.1Y-60.96
X172.72Y-60.96
X154.94Y-88.9
X162.56Y-88.9
X187.96Y-58.42
X195.58Y-58.42
X121.92Y-104.14
X129.54Y-104.14
X198.12Y-109.22
X205.74Y-109.22
X132.08Y-43.18
X139.7Y-43.18
X165.1Y-106.68
X172.72Y-106.68
X187.96Y-101.6
X195.58Y-101.6
X198.12Y-40.64
X205.74Y-40.64
X132.08Y-81.28
X139.7Y-81.28
T2
X147.32Y-78.74
X147.32Y-81.28
X147.32Y-83.82
X147.32Y-86.36
X147.32Y-88.9
X147.32Y-91.44
X147.32Y-93.98
X149.86Y-78.74
X149.86Y-81.28
X149.86Y-83.82
X149.86Y-86.36
X149.86Y-88.9
X149.86Y-91.44
X149.86Y-93.98
X114.3Y-99.06
X114.3Y-101.6
X114.3Y-104.14
X114.3Y-106.68
X114.3Y-109.22
X114.3Y-111.76
X114.3Y-114.3
X116.84Y-99.06
X116.84Y-101.6
X116.84Y-104.14
X116.84Y-106.68
X116.84Y-109.22
X116.84Y-111.76
X116.84Y-114.3
X180.34Y-58.42
X180.34Y-60.96
X180.34Y-63.5
X180.34Y-66.04
X180.34Y-68.58
X180.34Y-71.12
X180.34Y-73.66
X182.88Y-58.42
X182.88Y-60.96
X182.88Y-63.5
X182.88Y-66.04
X182.88Y-68.58
X182.88Y-71.12
X182.88Y-73.66
X114.3Y-78.74
X114.3Y-81.28
X114.3Y-83.82
X114.3Y-86.36
X114.3Y-88.9
X114.3Y-91.44
X114.3Y-93.98
X116.84Y-78.74
X116.84Y-81.28
X116.84Y-83.82
X116.84Y-86.36
X116.84Y-88.9
X116.84Y-91.44
X116.84Y-93.98
X180.34Y-38.1
X180.34Y-40.64
X180.34Y-43.18
X180.34Y-45.72
X180.34Y-48.26
X180.34Y-50.8
X180.34Y-53.34
X182.88Y-38.1
X182.88Y-40.64
X182.88Y-43.18
X182.88Y-45.72
X182.88Y-48.26
X182.88Y-50.8
X182.88Y-53.34
X147.32Y-38.1
X147.32Y-40.64
X147.32Y-43.18
X147.32Y-45.72
X147.32Y-48.26
X147.32Y-50.8
X147.32Y-53.34
X149.86Y-38.1
X149.86Y-40.64
X149.86Y-43.18
X149.86Y-45.72
X149.86Y-48.26
X149.86Y-50.8
X149.86Y-53.34
X114.3Y-58.42
X114.3Y-60.96
X114.3Y-63.5
X114.3Y-66.04
X114.3Y-68.58
X114.3Y-71.12
X114.3Y-73.66
X116.84Y-58.42
X116.84Y-60.96
X116.84Y-63.5
X116.84Y-66.04
X116.84Y-68.58
X116.84Y-71.12
X116.84Y-73.66
X147.32Y-99.06
X147.32Y-101.6
X147.32Y-104.14
X147.32Y-106.68
X147.32Y-109.22
X147.32Y-111.76
X147.32Y-114.3
X149.86Y-99.06
X149.86Y-101.6
X149.86Y-104.14
X149.86Y-106.68
X149.86Y-109.22
X149.86Y-111.76
X149.86Y-114.3
X147.32Y-58.42
X147.32Y-60.96
X147.32Y-63.5
X147.32Y-66.04
X147.32Y-68.58
X147.32Y-71.12
X147.32Y-73.66
X149.86Y-58.42
X149.86Y-60.96
X149.86Y-63.5
X149.86Y-66.04
X149.86Y-68.58
X149.86Y-71.12
X149.86Y-73.66
X180.34Y-99.06
X180.34Y-101.6
X180.34Y-104.14
X180.34Y-106.68
X180.34Y-109.22
X180.34Y-111.76
X180.34Y-114.3
X182.88Y-99.06
X182.88Y-101.6
X182.88Y-104.14
X182.88Y-106.68
X182.88Y-109.22
X182.88Y-111.76
X182.88Y-114.3
X114.3Y-38.1
X114.3Y-40.64
X114.3Y-43.18
X114.3Y-45.72
X114.3Y-48.26
X114.3Y-50.8
X114.3Y-53.34
X116.84Y-38.1
X116.84Y-40.64
X116.84Y-43.18
X116.84Y-45.72
X116.84Y-48.26
X116.84Y-50.8
X116.84Y-53.34
X180.34Y-78.74
X180.34Y-81.28
X180.34Y-83.82
X180.34Y-86.36
X180.34Y-88.9
X180.34Y-91.44
X180.34Y-93.98
X182.88Y-78.74
X182.88Y-81.28
X182.88Y-83.82
X182.88Y-86.36
X182.88Y-88.9
X182.88Y-91.44
X182.88Y-93.98
T3
X140.97Y-114.3
X173.99Y-53.34
X173.99Y-114.3
X207.01Y-114.3
X140.97Y-93.98
X207.01Y-93.98
X207.01Y-53.34
X140.97Y-53.34
X173.99Y-73.66
X207.01Y-73.66
X140.97Y-73.66
X173.99Y-93.98
T0
M30
