G04 #@! TF.GenerationSoftware,KiCad,Pcbnew,(5.1.5)-3*
G04 #@! TF.CreationDate,2020-05-04T17:21:53+09:00*
G04 #@! TF.ProjectId,bf-002,62662d30-3032-42e6-9b69-6361645f7063,V01L01*
G04 #@! TF.SameCoordinates,Original*
G04 #@! TF.FileFunction,Profile,NP*
%FSLAX46Y46*%
G04 Gerber Fmt 4.6, Leading zero omitted, Abs format (unit mm)*
G04 Created by KiCad (PCBNEW (5.1.5)-3) date 2020-05-04 17:21:53*
%MOMM*%
%LPD*%
G04 APERTURE LIST*
%ADD10C,0.150000*%
G04 APERTURE END LIST*
D10*
X143510000Y-55880000D02*
X143510000Y-35560000D01*
X209550000Y-35560000D02*
X209550000Y-55880000D01*
X176530000Y-35560000D02*
X209550000Y-35560000D01*
X209550000Y-55880000D02*
X176530000Y-55880000D01*
X110490000Y-35560000D02*
X143510000Y-35560000D01*
X176530000Y-55880000D02*
X176530000Y-35560000D01*
X143510000Y-55880000D02*
X110490000Y-55880000D01*
X176530000Y-35560000D02*
X176530000Y-55880000D01*
X110490000Y-55880000D02*
X110490000Y-35560000D01*
X176530000Y-55880000D02*
X143510000Y-55880000D01*
X143510000Y-35560000D02*
X176530000Y-35560000D01*
X143510000Y-35560000D02*
X143510000Y-55880000D01*
X209550000Y-55880000D02*
X209550000Y-76200000D01*
X176530000Y-76200000D02*
X143510000Y-76200000D01*
X176530000Y-55880000D02*
X176530000Y-76200000D01*
X176530000Y-55880000D02*
X209550000Y-55880000D01*
X209550000Y-76200000D02*
X176530000Y-76200000D01*
X143510000Y-76200000D02*
X110490000Y-76200000D01*
X176530000Y-76200000D02*
X176530000Y-55880000D01*
X143510000Y-55880000D02*
X143510000Y-76200000D01*
X110490000Y-76200000D02*
X110490000Y-55880000D01*
X143510000Y-76200000D02*
X143510000Y-55880000D01*
X110490000Y-55880000D02*
X143510000Y-55880000D01*
X143510000Y-55880000D02*
X176530000Y-55880000D01*
X176530000Y-96520000D02*
X143510000Y-96520000D01*
X143510000Y-96520000D02*
X143510000Y-76200000D01*
X176530000Y-76200000D02*
X209550000Y-76200000D01*
X176530000Y-76200000D02*
X176530000Y-96520000D01*
X209550000Y-96520000D02*
X176530000Y-96520000D01*
X143510000Y-76200000D02*
X176530000Y-76200000D01*
X209550000Y-76200000D02*
X209550000Y-96520000D01*
X176530000Y-96520000D02*
X176530000Y-76200000D01*
X110490000Y-96520000D02*
X110490000Y-76200000D01*
X110490000Y-76200000D02*
X143510000Y-76200000D01*
X143510000Y-76200000D02*
X143510000Y-96520000D01*
X143510000Y-96520000D02*
X110490000Y-96520000D01*
X209550000Y-116840000D02*
X176530000Y-116840000D01*
X176530000Y-116840000D02*
X176530000Y-96520000D01*
X209550000Y-96520000D02*
X209550000Y-116840000D01*
X176530000Y-96520000D02*
X209550000Y-96520000D01*
X143510000Y-116840000D02*
X143510000Y-96520000D01*
X143510000Y-96520000D02*
X176530000Y-96520000D01*
X176530000Y-96520000D02*
X176530000Y-116840000D01*
X176530000Y-116840000D02*
X143510000Y-116840000D01*
X110490000Y-116840000D02*
X110490000Y-96520000D01*
X143510000Y-116840000D02*
X110490000Y-116840000D01*
X143510000Y-96520000D02*
X143510000Y-116840000D01*
X110490000Y-96520000D02*
X143510000Y-96520000D01*
M02*
