M48
; DRILL file {KiCad (5.1.5)-3} date 04/05/2020 16:27:53
; FORMAT={-:-/ absolute / metric / decimal}
; #@! TF.CreationDate,2020-05-04T16:27:53+09:00
; #@! TF.GenerationSoftware,Kicad,Pcbnew,(5.1.5)-3
FMAT,2
METRIC
T1C0.300
T2C0.700
T3C0.800
T4C0.900
T5C1.000
T6C3.200
%
G90
G05
T1
X90.17Y-73.66
X90.17Y-78.74
X90.17Y-83.82
X90.17Y-88.9
X90.17Y-93.98
X90.17Y-99.06
X90.17Y-104.14
X90.17Y-109.22
X90.17Y-114.3
X90.17Y-119.38
X90.17Y-124.46
X90.17Y-129.54
X91.44Y-63.5
X91.44Y-68.58
X93.98Y-63.5
X93.98Y-68.58
X96.52Y-95.25
X96.52Y-97.79
X96.52Y-100.33
X96.52Y-102.87
X97.79Y-120.65
X97.79Y-121.92
X98.425Y-94.615
X98.425Y-95.885
X98.425Y-130.175
X99.06Y-125.73
X100.33Y-101.6
X100.33Y-116.84
X100.33Y-118.11
X100.965Y-92.075
X101.6Y-71.12
X101.6Y-73.66
X101.6Y-74.93
X101.6Y-90.805
X102.235Y-76.835
X102.235Y-79.375
X102.235Y-81.915
X102.235Y-89.535
X102.87Y-88.265
X103.505Y-72.39
X103.505Y-106.68
X104.14Y-86.995
X104.14Y-130.175
X104.775Y-73.025
X105.41Y-85.725
X106.045Y-84.455
X106.68Y-76.835
X106.68Y-80.01
X106.68Y-83.185
X107.315Y-81.915
X107.95Y-80.645
X110.489Y-95.25
X110.49Y-80.01
X111.76Y-96.52
X114.3Y-97.79
X115.57Y-82.55
X115.57Y-118.11
X116.84Y-98.425
X116.84Y-107.315
X116.84Y-118.11
X118.11Y-95.25
X118.11Y-120.65
X119.38Y-99.06
X121.92Y-78.105
X123.19Y-87.63
X124.46Y-62.23
X124.46Y-108.585
X127.0Y-107.95
X129.54Y-62.23
X129.54Y-106.68
X130.81Y-78.105
X130.81Y-82.55
X131.445Y-86.36
X132.08Y-110.49
X133.35Y-66.04
X133.35Y-104.14
X133.35Y-106.68
X133.985Y-64.135
X133.985Y-78.105
X133.985Y-87.63
X133.985Y-93.98
X134.62Y-62.23
X134.62Y-66.04
X134.62Y-129.54
X135.89Y-66.04
X136.525Y-122.555
X137.16Y-62.865
X137.16Y-66.675
X138.43Y-71.755
X138.43Y-74.93
X138.43Y-78.74
X138.43Y-81.28
X138.43Y-95.25
X138.43Y-101.6
X139.065Y-86.36
X139.7Y-62.23
X139.7Y-66.675
X139.7Y-94.615
X139.7Y-100.965
X139.7Y-107.315
X139.7Y-120.65
X139.7Y-129.54
X142.24Y-102.235
X144.145Y-81.28
X144.145Y-86.36
X144.145Y-118.11
X144.78Y-129.54
X146.685Y-108.585
X147.32Y-104.775
X149.225Y-118.11
X149.86Y-129.54
X153.67Y-86.995
X153.67Y-114.3
X154.305Y-118.11
X154.94Y-90.805
X154.94Y-129.54
X156.21Y-106.68
X159.385Y-118.11
X160.02Y-129.54
X161.925Y-71.12
X163.83Y-82.55
X163.83Y-95.25
X164.465Y-118.11
X165.1Y-129.54
X165.735Y-78.105
X167.005Y-104.14
X167.005Y-107.315
X167.64Y-76.2
X167.64Y-77.47
X169.545Y-113.665
X169.545Y-118.11
X170.18Y-86.36
X170.18Y-87.63
X170.18Y-129.54
X170.815Y-113.665
X171.45Y-95.25
X171.45Y-97.79
X171.45Y-100.33
X171.45Y-102.87
X175.26Y-124.46
X175.26Y-129.54
X177.8Y-63.5
X177.8Y-68.58
X177.8Y-73.66
X177.8Y-78.74
X177.8Y-83.82
X177.8Y-88.9
X177.8Y-93.98
X177.8Y-99.06
X177.8Y-104.14
X179.07Y-115.57
X182.88Y-63.5
X182.88Y-68.58
X182.88Y-73.66
X182.88Y-78.74
X182.88Y-83.82
X182.88Y-88.9
X182.88Y-93.98
X182.88Y-99.06
X182.88Y-104.14
X182.88Y-109.22
X182.88Y-114.3
X182.88Y-119.38
X182.88Y-124.46
X182.88Y-129.54
T2
X141.605Y-73.66
X141.605Y-81.28
X142.24Y-104.14
X142.24Y-111.76
X154.94Y-114.935
X154.94Y-122.555
X139.7Y-104.14
X139.7Y-111.76
X162.56Y-114.935
X162.56Y-122.555
X160.02Y-114.935
X160.02Y-122.555
X121.92Y-112.395
X129.54Y-112.395
X165.1Y-114.935
X165.1Y-122.555
X149.86Y-114.935
X149.86Y-122.555
X144.78Y-104.14
X144.78Y-111.76
X152.4Y-114.935
X152.4Y-122.555
X157.48Y-114.935
X157.48Y-122.555
X147.32Y-114.935
X147.32Y-122.555
T3
X114.3Y-73.66
X114.3Y-81.28
X116.84Y-73.66
X116.84Y-81.28
X119.38Y-73.66
X119.38Y-81.28
X121.92Y-73.66
X121.92Y-81.28
X124.46Y-73.66
X124.46Y-81.28
X127.0Y-73.66
X127.0Y-81.28
X129.54Y-73.66
X129.54Y-81.28
X132.08Y-73.66
X132.08Y-81.28
X92.75Y-127.635
X95.25Y-127.635
X101.6Y-66.52
X101.6Y-126.52
X104.14Y-66.52
X104.14Y-126.52
X106.68Y-66.52
X106.68Y-126.52
X109.22Y-66.52
X109.22Y-126.52
X111.76Y-66.52
X111.76Y-126.52
X114.3Y-66.52
X114.3Y-126.52
X116.84Y-66.52
X116.84Y-126.52
X119.38Y-66.52
X119.38Y-126.52
X121.92Y-66.52
X121.92Y-126.52
X124.46Y-66.52
X124.46Y-126.52
X149.86Y-66.52
X149.86Y-126.52
X152.4Y-66.52
X152.4Y-126.52
X154.94Y-66.52
X154.94Y-126.52
X157.48Y-66.52
X157.48Y-126.52
X160.02Y-66.52
X160.02Y-126.52
X162.56Y-66.52
X162.56Y-126.52
X165.1Y-66.52
X165.1Y-126.52
X167.64Y-66.52
X167.64Y-126.52
X170.18Y-66.52
X170.18Y-126.52
X172.72Y-66.52
X172.72Y-126.52
X116.88Y-112.395
X119.38Y-112.395
X111.76Y-93.98
X111.76Y-101.6
X114.3Y-93.98
X114.3Y-101.6
X116.84Y-93.98
X116.84Y-101.6
X119.38Y-93.98
X119.38Y-101.6
X121.92Y-93.98
X121.92Y-101.6
X124.46Y-93.98
X124.46Y-101.6
X127.0Y-93.98
X127.0Y-101.6
X129.54Y-93.98
X129.54Y-101.6
X132.08Y-93.98
X132.08Y-101.6
X144.145Y-73.66
X144.145Y-76.16
X101.6Y-114.935
X101.6Y-122.555
X104.14Y-114.935
X104.14Y-122.555
X106.68Y-114.935
X106.68Y-122.555
X109.22Y-114.935
X109.22Y-122.555
X111.76Y-114.935
X111.76Y-122.555
X114.3Y-114.935
X114.3Y-122.555
X116.84Y-114.935
X116.84Y-122.555
X119.38Y-114.935
X119.38Y-122.555
X121.92Y-114.935
X121.92Y-122.555
X124.46Y-114.935
X124.46Y-122.555
X127.0Y-114.935
X127.0Y-122.555
X129.54Y-114.935
X129.54Y-122.555
X132.08Y-114.935
X132.08Y-122.555
X134.62Y-114.935
X134.62Y-122.555
X108.585Y-93.98
X108.585Y-96.48
X111.125Y-73.66
X111.125Y-76.16
X147.32Y-73.66
X147.32Y-81.28
X149.86Y-73.66
X149.86Y-81.28
X152.4Y-73.66
X152.4Y-81.28
X154.94Y-73.66
X154.94Y-81.28
X157.48Y-73.66
X157.48Y-81.28
X160.02Y-73.66
X160.02Y-81.28
X162.56Y-73.66
X162.56Y-81.28
X165.1Y-73.66
X165.1Y-81.28
X144.78Y-93.98
X144.78Y-101.6
X147.32Y-93.98
X147.32Y-101.6
X149.86Y-93.98
X149.86Y-101.6
X152.4Y-93.98
X152.4Y-101.6
X154.94Y-93.98
X154.94Y-101.6
X157.48Y-93.98
X157.48Y-101.6
X160.02Y-93.98
X160.02Y-101.6
X162.56Y-93.98
X162.56Y-101.6
X165.1Y-93.98
X165.1Y-101.6
T4
X160.02Y-106.68
X162.56Y-106.68
X160.02Y-86.36
X162.56Y-86.36
X111.76Y-86.36
X114.3Y-86.36
X111.76Y-106.68
X114.3Y-106.68
T5
X172.72Y-73.66
X172.72Y-76.2
X172.72Y-78.74
X172.72Y-81.28
X172.72Y-83.82
X172.72Y-86.36
X172.72Y-88.9
X172.72Y-91.44
X172.72Y-93.98
X172.72Y-96.52
X172.72Y-99.06
X172.72Y-101.6
X172.72Y-104.14
X172.72Y-106.68
X172.72Y-109.22
X172.72Y-111.76
X172.72Y-114.3
X172.72Y-116.84
X172.72Y-119.38
X172.72Y-121.92
X175.26Y-73.66
X175.26Y-76.2
X175.26Y-78.74
X175.26Y-81.28
X175.26Y-83.82
X175.26Y-86.36
X175.26Y-88.9
X175.26Y-91.44
X175.26Y-93.98
X175.26Y-96.52
X175.26Y-99.06
X175.26Y-101.6
X175.26Y-104.14
X175.26Y-106.68
X175.26Y-109.22
X175.26Y-111.76
X175.26Y-114.3
X175.26Y-116.84
X175.26Y-119.38
X175.26Y-121.92
X92.71Y-73.66
X92.71Y-76.2
X92.71Y-78.74
X92.71Y-81.28
X92.71Y-83.82
X92.71Y-86.36
X92.71Y-88.9
X92.71Y-91.44
X92.71Y-93.98
X92.71Y-96.52
X92.71Y-99.06
X92.71Y-101.6
X92.71Y-104.14
X92.71Y-106.68
X92.71Y-109.22
X92.71Y-111.76
X92.71Y-114.3
X92.71Y-116.84
X92.71Y-119.38
X92.71Y-121.92
X95.25Y-73.66
X95.25Y-76.2
X95.25Y-78.74
X95.25Y-81.28
X95.25Y-83.82
X95.25Y-86.36
X95.25Y-88.9
X95.25Y-91.44
X95.25Y-93.98
X95.25Y-96.52
X95.25Y-99.06
X95.25Y-101.6
X95.25Y-104.14
X95.25Y-106.68
X95.25Y-109.22
X95.25Y-111.76
X95.25Y-114.3
X95.25Y-116.84
X95.25Y-119.38
X95.25Y-121.92
T6
X93.98Y-137.16
X180.34Y-55.88
X93.98Y-55.88
X180.34Y-137.16
T0
M30
