G04 #@! TF.GenerationSoftware,KiCad,Pcbnew,(5.1.5)-3*
G04 #@! TF.CreationDate,2020-05-04T16:27:50+09:00*
G04 #@! TF.ProjectId,bf-005,62662d30-3035-42e6-9b69-6361645f7063,V02L04*
G04 #@! TF.SameCoordinates,Original*
G04 #@! TF.FileFunction,Legend,Bot*
G04 #@! TF.FilePolarity,Positive*
%FSLAX46Y46*%
G04 Gerber Fmt 4.6, Leading zero omitted, Abs format (unit mm)*
G04 Created by KiCad (PCBNEW (5.1.5)-3) date 2020-05-04 16:27:50*
%MOMM*%
%LPD*%
G04 APERTURE LIST*
%ADD10C,0.200000*%
%ADD11C,0.150000*%
%ADD12C,0.120000*%
G04 APERTURE END LIST*
D10*
X109481904Y-107132380D02*
X109481904Y-106132380D01*
X108910476Y-107132380D02*
X109339047Y-106560952D01*
X108910476Y-106132380D02*
X109481904Y-106703809D01*
X157741904Y-86812380D02*
X157741904Y-85812380D01*
X157170476Y-86812380D02*
X157599047Y-86240952D01*
X157170476Y-85812380D02*
X157741904Y-86383809D01*
X158376904Y-107132380D02*
X158376904Y-106132380D01*
X157805476Y-107132380D02*
X158234047Y-106560952D01*
X157805476Y-106132380D02*
X158376904Y-106703809D01*
X149574285Y-70302380D02*
X150145714Y-70302380D01*
X149860000Y-70302380D02*
X149860000Y-69302380D01*
X149955238Y-69445238D01*
X150050476Y-69540476D01*
X150145714Y-69588095D01*
X109481904Y-86812380D02*
X109481904Y-85812380D01*
X108910476Y-86812380D02*
X109339047Y-86240952D01*
X108910476Y-85812380D02*
X109481904Y-86383809D01*
X101314285Y-70302380D02*
X101885714Y-70302380D01*
X101600000Y-70302380D02*
X101600000Y-69302380D01*
X101695238Y-69445238D01*
X101790476Y-69540476D01*
X101885714Y-69588095D01*
D11*
X89080000Y-131420000D02*
X89080000Y-61620000D01*
X136980000Y-131420000D02*
X89080000Y-131420000D01*
X136980000Y-61620000D02*
X136980000Y-131420000D01*
X89080000Y-61620000D02*
X136980000Y-61620000D01*
X125760000Y-97020000D02*
X120760000Y-97020000D01*
X126760000Y-96020000D02*
X125760000Y-97020000D01*
X125760000Y-95020000D02*
X126760000Y-96020000D01*
X120760000Y-95020000D02*
X125760000Y-95020000D01*
X119760000Y-96020000D02*
X120760000Y-95020000D01*
X120760000Y-97020000D02*
X119760000Y-96020000D01*
X127760000Y-97020000D02*
X126760000Y-96020000D01*
X126760000Y-96020000D02*
X127760000Y-95020000D01*
X127760000Y-95020000D02*
X132760000Y-95020000D01*
X132760000Y-95020000D02*
X133760000Y-96020000D01*
X133760000Y-96020000D02*
X132760000Y-97020000D01*
X132760000Y-97020000D02*
X127760000Y-97020000D01*
X131760000Y-85020000D02*
X126760000Y-85020000D01*
X132760000Y-84020000D02*
X131760000Y-85020000D01*
X131760000Y-83020000D02*
X132760000Y-84020000D01*
X126760000Y-83020000D02*
X131760000Y-83020000D01*
X125760000Y-84020000D02*
X126760000Y-83020000D01*
X126760000Y-85020000D02*
X125760000Y-84020000D01*
X119760000Y-85020000D02*
X118760000Y-84020000D01*
X118760000Y-84020000D02*
X119760000Y-83020000D01*
X119760000Y-83020000D02*
X124760000Y-83020000D01*
X124760000Y-83020000D02*
X125760000Y-84020000D01*
X125760000Y-84020000D02*
X124760000Y-85020000D01*
X124760000Y-85020000D02*
X119760000Y-85020000D01*
X123760000Y-73020000D02*
X118760000Y-73020000D01*
X124760000Y-72020000D02*
X123760000Y-73020000D01*
X123760000Y-71020000D02*
X124760000Y-72020000D01*
X118760000Y-71020000D02*
X123760000Y-71020000D01*
X117760000Y-72020000D02*
X118760000Y-71020000D01*
X118760000Y-73020000D02*
X117760000Y-72020000D01*
X125760000Y-73020000D02*
X124760000Y-72020000D01*
X124760000Y-72020000D02*
X125760000Y-71020000D01*
X125760000Y-71020000D02*
X130760000Y-71020000D01*
X130760000Y-71020000D02*
X131760000Y-72020000D01*
X131760000Y-72020000D02*
X130760000Y-73020000D01*
X130760000Y-73020000D02*
X125760000Y-73020000D01*
X119760000Y-85020000D02*
X120760000Y-95020000D01*
X118760000Y-84020000D02*
X119760000Y-85020000D01*
X117760000Y-85020000D02*
X118760000Y-84020000D01*
X118760000Y-95020000D02*
X117760000Y-85020000D01*
X119760000Y-96020000D02*
X118760000Y-95020000D01*
X124760000Y-85020000D02*
X125760000Y-84020000D01*
X125760000Y-95020000D02*
X124760000Y-85020000D01*
X126760000Y-85020000D02*
X127760000Y-95020000D01*
X132760000Y-95020000D02*
X131760000Y-85020000D01*
X133760000Y-85020000D02*
X132760000Y-84020000D01*
X134760000Y-95020000D02*
X133760000Y-85020000D01*
X133760000Y-96020000D02*
X134760000Y-95020000D01*
X118760000Y-73020000D02*
X119760000Y-83020000D01*
X117760000Y-72020000D02*
X118760000Y-73020000D01*
X116760000Y-73020000D02*
X117760000Y-72020000D01*
X117760000Y-83020000D02*
X116760000Y-73020000D01*
X118760000Y-84020000D02*
X117760000Y-83020000D01*
X124760000Y-83020000D02*
X123760000Y-73020000D01*
X125760000Y-73020000D02*
X126760000Y-83020000D01*
X131760000Y-83020000D02*
X130760000Y-73020000D01*
X133760000Y-83020000D02*
X132760000Y-84020000D01*
X132760000Y-73020000D02*
X133760000Y-83020000D01*
X131760000Y-72020000D02*
X132760000Y-73020000D01*
X132760000Y-95020000D02*
X132260000Y-92520000D01*
X132760000Y-95020000D02*
X130760000Y-94520000D01*
X120760000Y-95020000D02*
X122760000Y-94520000D01*
X120760000Y-92520000D02*
X120760000Y-95020000D01*
X123260000Y-85520000D02*
X120760000Y-92520000D01*
X124760000Y-85020000D02*
X123260000Y-85520000D01*
X130760000Y-75520000D02*
X130760000Y-73020000D01*
X128260000Y-82520000D02*
X130760000Y-75520000D01*
X126760000Y-83020000D02*
X128260000Y-82520000D01*
X126760000Y-81520000D02*
X126760000Y-83020000D01*
X128760000Y-73520000D02*
X126760000Y-81520000D01*
X130760000Y-73020000D02*
X128760000Y-73520000D01*
X119260000Y-75520000D02*
X118760000Y-73020000D01*
X123260000Y-82520000D02*
X119260000Y-75520000D01*
X124760000Y-83020000D02*
X123260000Y-82520000D01*
X118760000Y-73020000D02*
X120760000Y-73520000D01*
X124760000Y-86520000D02*
X124760000Y-85020000D01*
X122760000Y-94520000D02*
X124760000Y-86520000D01*
X128260000Y-85520000D02*
X132260000Y-92520000D01*
X126760000Y-85020000D02*
X128260000Y-85520000D01*
X127260000Y-87520000D02*
X130760000Y-94520000D01*
X126760000Y-85020000D02*
X127260000Y-87520000D01*
X124260000Y-80520000D02*
X120760000Y-73520000D01*
X124760000Y-82520000D02*
X124260000Y-80520000D01*
X135878034Y-72020000D02*
G75*
G03X135878034Y-72020000I-1118034J0D01*
G01*
X137340000Y-131420000D02*
X137340000Y-61620000D01*
X185240000Y-131420000D02*
X137340000Y-131420000D01*
X185240000Y-61620000D02*
X185240000Y-131420000D01*
X137340000Y-61620000D02*
X185240000Y-61620000D01*
X174020000Y-97020000D02*
X169020000Y-97020000D01*
X175020000Y-96020000D02*
X174020000Y-97020000D01*
X174020000Y-95020000D02*
X175020000Y-96020000D01*
X169020000Y-95020000D02*
X174020000Y-95020000D01*
X168020000Y-96020000D02*
X169020000Y-95020000D01*
X169020000Y-97020000D02*
X168020000Y-96020000D01*
X176020000Y-97020000D02*
X175020000Y-96020000D01*
X175020000Y-96020000D02*
X176020000Y-95020000D01*
X176020000Y-95020000D02*
X181020000Y-95020000D01*
X181020000Y-95020000D02*
X182020000Y-96020000D01*
X182020000Y-96020000D02*
X181020000Y-97020000D01*
X181020000Y-97020000D02*
X176020000Y-97020000D01*
X180020000Y-85020000D02*
X175020000Y-85020000D01*
X181020000Y-84020000D02*
X180020000Y-85020000D01*
X180020000Y-83020000D02*
X181020000Y-84020000D01*
X175020000Y-83020000D02*
X180020000Y-83020000D01*
X174020000Y-84020000D02*
X175020000Y-83020000D01*
X175020000Y-85020000D02*
X174020000Y-84020000D01*
X168020000Y-85020000D02*
X167020000Y-84020000D01*
X167020000Y-84020000D02*
X168020000Y-83020000D01*
X168020000Y-83020000D02*
X173020000Y-83020000D01*
X173020000Y-83020000D02*
X174020000Y-84020000D01*
X174020000Y-84020000D02*
X173020000Y-85020000D01*
X173020000Y-85020000D02*
X168020000Y-85020000D01*
X172020000Y-73020000D02*
X167020000Y-73020000D01*
X173020000Y-72020000D02*
X172020000Y-73020000D01*
X172020000Y-71020000D02*
X173020000Y-72020000D01*
X167020000Y-71020000D02*
X172020000Y-71020000D01*
X166020000Y-72020000D02*
X167020000Y-71020000D01*
X167020000Y-73020000D02*
X166020000Y-72020000D01*
X174020000Y-73020000D02*
X173020000Y-72020000D01*
X173020000Y-72020000D02*
X174020000Y-71020000D01*
X174020000Y-71020000D02*
X179020000Y-71020000D01*
X179020000Y-71020000D02*
X180020000Y-72020000D01*
X180020000Y-72020000D02*
X179020000Y-73020000D01*
X179020000Y-73020000D02*
X174020000Y-73020000D01*
X168020000Y-85020000D02*
X169020000Y-95020000D01*
X167020000Y-84020000D02*
X168020000Y-85020000D01*
X166020000Y-85020000D02*
X167020000Y-84020000D01*
X167020000Y-95020000D02*
X166020000Y-85020000D01*
X168020000Y-96020000D02*
X167020000Y-95020000D01*
X173020000Y-85020000D02*
X174020000Y-84020000D01*
X174020000Y-95020000D02*
X173020000Y-85020000D01*
X175020000Y-85020000D02*
X176020000Y-95020000D01*
X181020000Y-95020000D02*
X180020000Y-85020000D01*
X182020000Y-85020000D02*
X181020000Y-84020000D01*
X183020000Y-95020000D02*
X182020000Y-85020000D01*
X182020000Y-96020000D02*
X183020000Y-95020000D01*
X167020000Y-73020000D02*
X168020000Y-83020000D01*
X166020000Y-72020000D02*
X167020000Y-73020000D01*
X165020000Y-73020000D02*
X166020000Y-72020000D01*
X166020000Y-83020000D02*
X165020000Y-73020000D01*
X167020000Y-84020000D02*
X166020000Y-83020000D01*
X173020000Y-83020000D02*
X172020000Y-73020000D01*
X174020000Y-73020000D02*
X175020000Y-83020000D01*
X180020000Y-83020000D02*
X179020000Y-73020000D01*
X182020000Y-83020000D02*
X181020000Y-84020000D01*
X181020000Y-73020000D02*
X182020000Y-83020000D01*
X180020000Y-72020000D02*
X181020000Y-73020000D01*
X181020000Y-95020000D02*
X180520000Y-92520000D01*
X181020000Y-95020000D02*
X179020000Y-94520000D01*
X169020000Y-95020000D02*
X171020000Y-94520000D01*
X169020000Y-92520000D02*
X169020000Y-95020000D01*
X171520000Y-85520000D02*
X169020000Y-92520000D01*
X173020000Y-85020000D02*
X171520000Y-85520000D01*
X179020000Y-75520000D02*
X179020000Y-73020000D01*
X176520000Y-82520000D02*
X179020000Y-75520000D01*
X175020000Y-83020000D02*
X176520000Y-82520000D01*
X175020000Y-81520000D02*
X175020000Y-83020000D01*
X177020000Y-73520000D02*
X175020000Y-81520000D01*
X179020000Y-73020000D02*
X177020000Y-73520000D01*
X167520000Y-75520000D02*
X167020000Y-73020000D01*
X171520000Y-82520000D02*
X167520000Y-75520000D01*
X173020000Y-83020000D02*
X171520000Y-82520000D01*
X167020000Y-73020000D02*
X169020000Y-73520000D01*
X173020000Y-86520000D02*
X173020000Y-85020000D01*
X171020000Y-94520000D02*
X173020000Y-86520000D01*
X176520000Y-85520000D02*
X180520000Y-92520000D01*
X175020000Y-85020000D02*
X176520000Y-85520000D01*
X175520000Y-87520000D02*
X179020000Y-94520000D01*
X175020000Y-85020000D02*
X175520000Y-87520000D01*
X172520000Y-80520000D02*
X169020000Y-73520000D01*
X173020000Y-82520000D02*
X172520000Y-80520000D01*
X184138034Y-72020000D02*
G75*
G03X184138034Y-72020000I-1118034J0D01*
G01*
D12*
X110470000Y-108225000D02*
X110470000Y-105135000D01*
X115530000Y-106680000D02*
G75*
G03X115530000Y-106680000I-2500000J0D01*
G01*
X116020000Y-106680462D02*
G75*
G03X110470000Y-105135170I-2990000J462D01*
G01*
X116020000Y-106679538D02*
G75*
G02X110470000Y-108224830I-2990000J-462D01*
G01*
X116020000Y-86359538D02*
G75*
G02X110470000Y-87904830I-2990000J-462D01*
G01*
X116020000Y-86360462D02*
G75*
G03X110470000Y-84815170I-2990000J462D01*
G01*
X115530000Y-86360000D02*
G75*
G03X115530000Y-86360000I-2500000J0D01*
G01*
X110470000Y-87905000D02*
X110470000Y-84815000D01*
X158730000Y-108225000D02*
X158730000Y-105135000D01*
X163790000Y-106680000D02*
G75*
G03X163790000Y-106680000I-2500000J0D01*
G01*
X164280000Y-106680462D02*
G75*
G03X158730000Y-105135170I-2990000J462D01*
G01*
X164280000Y-106679538D02*
G75*
G02X158730000Y-108224830I-2990000J-462D01*
G01*
X164280000Y-86359538D02*
G75*
G02X158730000Y-87904830I-2990000J-462D01*
G01*
X164280000Y-86360462D02*
G75*
G03X158730000Y-84815170I-2990000J462D01*
G01*
X163790000Y-86360000D02*
G75*
G03X163790000Y-86360000I-2500000J0D01*
G01*
X158730000Y-87905000D02*
X158730000Y-84815000D01*
D11*
X113848095Y-64512380D02*
X113848095Y-63512380D01*
X113610000Y-63512380D01*
X113467142Y-63560000D01*
X113371904Y-63655238D01*
X113324285Y-63750476D01*
X113276666Y-63940952D01*
X113276666Y-64083809D01*
X113324285Y-64274285D01*
X113371904Y-64369523D01*
X113467142Y-64464761D01*
X113610000Y-64512380D01*
X113848095Y-64512380D01*
X112324285Y-64512380D02*
X112895714Y-64512380D01*
X112610000Y-64512380D02*
X112610000Y-63512380D01*
X112705238Y-63655238D01*
X112800476Y-63750476D01*
X112895714Y-63798095D01*
X118077619Y-129242380D02*
X118649047Y-129242380D01*
X118363333Y-129242380D02*
X118363333Y-128242380D01*
X118458571Y-128385238D01*
X118553809Y-128480476D01*
X118649047Y-128528095D01*
X117220476Y-128242380D02*
X117410952Y-128242380D01*
X117506190Y-128290000D01*
X117553809Y-128337619D01*
X117649047Y-128480476D01*
X117696666Y-128670952D01*
X117696666Y-129051904D01*
X117649047Y-129147142D01*
X117601428Y-129194761D01*
X117506190Y-129242380D01*
X117315714Y-129242380D01*
X117220476Y-129194761D01*
X117172857Y-129147142D01*
X117125238Y-129051904D01*
X117125238Y-128813809D01*
X117172857Y-128718571D01*
X117220476Y-128670952D01*
X117315714Y-128623333D01*
X117506190Y-128623333D01*
X117601428Y-128670952D01*
X117649047Y-128718571D01*
X117696666Y-128813809D01*
X116744285Y-129194761D02*
X116649047Y-129242380D01*
X116458571Y-129242380D01*
X116363333Y-129194761D01*
X116315714Y-129099523D01*
X116315714Y-129051904D01*
X116363333Y-128956666D01*
X116458571Y-128909047D01*
X116601428Y-128909047D01*
X116696666Y-128861428D01*
X116744285Y-128766190D01*
X116744285Y-128718571D01*
X116696666Y-128623333D01*
X116601428Y-128575714D01*
X116458571Y-128575714D01*
X116363333Y-128623333D01*
X115506190Y-129194761D02*
X115601428Y-129242380D01*
X115791904Y-129242380D01*
X115887142Y-129194761D01*
X115934761Y-129099523D01*
X115934761Y-128718571D01*
X115887142Y-128623333D01*
X115791904Y-128575714D01*
X115601428Y-128575714D01*
X115506190Y-128623333D01*
X115458571Y-128718571D01*
X115458571Y-128813809D01*
X115934761Y-128909047D01*
X114601428Y-128575714D02*
X114601428Y-129385238D01*
X114649047Y-129480476D01*
X114696666Y-129528095D01*
X114791904Y-129575714D01*
X114934761Y-129575714D01*
X115030000Y-129528095D01*
X114601428Y-129194761D02*
X114696666Y-129242380D01*
X114887142Y-129242380D01*
X114982380Y-129194761D01*
X115030000Y-129147142D01*
X115077619Y-129051904D01*
X115077619Y-128766190D01*
X115030000Y-128670952D01*
X114982380Y-128623333D01*
X114887142Y-128575714D01*
X114696666Y-128575714D01*
X114601428Y-128623333D01*
X114125238Y-129242380D02*
X114125238Y-128575714D01*
X114125238Y-128670952D02*
X114077619Y-128623333D01*
X113982380Y-128575714D01*
X113839523Y-128575714D01*
X113744285Y-128623333D01*
X113696666Y-128718571D01*
X113696666Y-129242380D01*
X113696666Y-128718571D02*
X113649047Y-128623333D01*
X113553809Y-128575714D01*
X113410952Y-128575714D01*
X113315714Y-128623333D01*
X113268095Y-128718571D01*
X113268095Y-129242380D01*
X112410952Y-129194761D02*
X112506190Y-129242380D01*
X112696666Y-129242380D01*
X112791904Y-129194761D01*
X112839523Y-129099523D01*
X112839523Y-128718571D01*
X112791904Y-128623333D01*
X112696666Y-128575714D01*
X112506190Y-128575714D01*
X112410952Y-128623333D01*
X112363333Y-128718571D01*
X112363333Y-128813809D01*
X112839523Y-128909047D01*
X111934761Y-128575714D02*
X111934761Y-129242380D01*
X111934761Y-128670952D02*
X111887142Y-128623333D01*
X111791904Y-128575714D01*
X111649047Y-128575714D01*
X111553809Y-128623333D01*
X111506190Y-128718571D01*
X111506190Y-129242380D01*
X111172857Y-128575714D02*
X110791904Y-128575714D01*
X111030000Y-128242380D02*
X111030000Y-129099523D01*
X110982380Y-129194761D01*
X110887142Y-129242380D01*
X110791904Y-129242380D01*
X110696666Y-129337619D02*
X109934761Y-129337619D01*
X109220476Y-129242380D02*
X109696666Y-129242380D01*
X109696666Y-128242380D01*
X108887142Y-128718571D02*
X108553809Y-128718571D01*
X108410952Y-129242380D02*
X108887142Y-129242380D01*
X108887142Y-128242380D01*
X108410952Y-128242380D01*
X107982380Y-129242380D02*
X107982380Y-128242380D01*
X107744285Y-128242380D01*
X107601428Y-128290000D01*
X107506190Y-128385238D01*
X107458571Y-128480476D01*
X107410952Y-128670952D01*
X107410952Y-128813809D01*
X107458571Y-129004285D01*
X107506190Y-129099523D01*
X107601428Y-129194761D01*
X107744285Y-129242380D01*
X107982380Y-129242380D01*
X123974285Y-96186666D02*
X123498095Y-96186666D01*
X124069523Y-96472380D02*
X123736190Y-95472380D01*
X123402857Y-96472380D01*
X122545714Y-96472380D02*
X123117142Y-96472380D01*
X122831428Y-96472380D02*
X122831428Y-95472380D01*
X122926666Y-95615238D01*
X123021904Y-95710476D01*
X123117142Y-95758095D01*
X130974285Y-96186666D02*
X130498095Y-96186666D01*
X131069523Y-96472380D02*
X130736190Y-95472380D01*
X130402857Y-96472380D01*
X130117142Y-95567619D02*
X130069523Y-95520000D01*
X129974285Y-95472380D01*
X129736190Y-95472380D01*
X129640952Y-95520000D01*
X129593333Y-95567619D01*
X129545714Y-95662857D01*
X129545714Y-95758095D01*
X129593333Y-95900952D01*
X130164761Y-96472380D01*
X129545714Y-96472380D01*
X122474285Y-83520000D02*
X122569523Y-83472380D01*
X122712380Y-83472380D01*
X122855238Y-83520000D01*
X122950476Y-83615238D01*
X122998095Y-83710476D01*
X123045714Y-83900952D01*
X123045714Y-84043809D01*
X122998095Y-84234285D01*
X122950476Y-84329523D01*
X122855238Y-84424761D01*
X122712380Y-84472380D01*
X122617142Y-84472380D01*
X122474285Y-84424761D01*
X122426666Y-84377142D01*
X122426666Y-84043809D01*
X122617142Y-84043809D01*
X121474285Y-84472380D02*
X122045714Y-84472380D01*
X121760000Y-84472380D02*
X121760000Y-83472380D01*
X121855238Y-83615238D01*
X121950476Y-83710476D01*
X122045714Y-83758095D01*
X129474285Y-83520000D02*
X129569523Y-83472380D01*
X129712380Y-83472380D01*
X129855238Y-83520000D01*
X129950476Y-83615238D01*
X129998095Y-83710476D01*
X130045714Y-83900952D01*
X130045714Y-84043809D01*
X129998095Y-84234285D01*
X129950476Y-84329523D01*
X129855238Y-84424761D01*
X129712380Y-84472380D01*
X129617142Y-84472380D01*
X129474285Y-84424761D01*
X129426666Y-84377142D01*
X129426666Y-84043809D01*
X129617142Y-84043809D01*
X129045714Y-83567619D02*
X128998095Y-83520000D01*
X128902857Y-83472380D01*
X128664761Y-83472380D01*
X128569523Y-83520000D01*
X128521904Y-83567619D01*
X128474285Y-83662857D01*
X128474285Y-83758095D01*
X128521904Y-83900952D01*
X129093333Y-84472380D01*
X128474285Y-84472380D01*
X121998095Y-72472380D02*
X121998095Y-71472380D01*
X121760000Y-71472380D01*
X121617142Y-71520000D01*
X121521904Y-71615238D01*
X121474285Y-71710476D01*
X121426666Y-71900952D01*
X121426666Y-72043809D01*
X121474285Y-72234285D01*
X121521904Y-72329523D01*
X121617142Y-72424761D01*
X121760000Y-72472380D01*
X121998095Y-72472380D01*
X120474285Y-72472380D02*
X121045714Y-72472380D01*
X120760000Y-72472380D02*
X120760000Y-71472380D01*
X120855238Y-71615238D01*
X120950476Y-71710476D01*
X121045714Y-71758095D01*
X128998095Y-72472380D02*
X128998095Y-71472380D01*
X128760000Y-71472380D01*
X128617142Y-71520000D01*
X128521904Y-71615238D01*
X128474285Y-71710476D01*
X128426666Y-71900952D01*
X128426666Y-72043809D01*
X128474285Y-72234285D01*
X128521904Y-72329523D01*
X128617142Y-72424761D01*
X128760000Y-72472380D01*
X128998095Y-72472380D01*
X128045714Y-71567619D02*
X127998095Y-71520000D01*
X127902857Y-71472380D01*
X127664761Y-71472380D01*
X127569523Y-71520000D01*
X127521904Y-71567619D01*
X127474285Y-71662857D01*
X127474285Y-71758095D01*
X127521904Y-71900952D01*
X128093333Y-72472380D01*
X127474285Y-72472380D01*
X136021904Y-74472380D02*
X136021904Y-73472380D01*
X135783809Y-73472380D01*
X135640952Y-73520000D01*
X135545714Y-73615238D01*
X135498095Y-73710476D01*
X135450476Y-73900952D01*
X135450476Y-74043809D01*
X135498095Y-74234285D01*
X135545714Y-74329523D01*
X135640952Y-74424761D01*
X135783809Y-74472380D01*
X136021904Y-74472380D01*
X135021904Y-74472380D02*
X135021904Y-73472380D01*
X134640952Y-73472380D01*
X134545714Y-73520000D01*
X134498095Y-73567619D01*
X134450476Y-73662857D01*
X134450476Y-73805714D01*
X134498095Y-73900952D01*
X134545714Y-73948571D01*
X134640952Y-73996190D01*
X135021904Y-73996190D01*
X133188571Y-89948571D02*
X133045714Y-89996190D01*
X132998095Y-90043809D01*
X132950476Y-90139047D01*
X132950476Y-90281904D01*
X132998095Y-90377142D01*
X133045714Y-90424761D01*
X133140952Y-90472380D01*
X133521904Y-90472380D01*
X133521904Y-89472380D01*
X133188571Y-89472380D01*
X133093333Y-89520000D01*
X133045714Y-89567619D01*
X132998095Y-89662857D01*
X132998095Y-89758095D01*
X133045714Y-89853333D01*
X133093333Y-89900952D01*
X133188571Y-89948571D01*
X133521904Y-89948571D01*
X131950476Y-78377142D02*
X131998095Y-78424761D01*
X132140952Y-78472380D01*
X132236190Y-78472380D01*
X132379047Y-78424761D01*
X132474285Y-78329523D01*
X132521904Y-78234285D01*
X132569523Y-78043809D01*
X132569523Y-77900952D01*
X132521904Y-77710476D01*
X132474285Y-77615238D01*
X132379047Y-77520000D01*
X132236190Y-77472380D01*
X132140952Y-77472380D01*
X131998095Y-77520000D01*
X131950476Y-77567619D01*
X118474285Y-77948571D02*
X118140952Y-77948571D01*
X117998095Y-78472380D02*
X118474285Y-78472380D01*
X118474285Y-77472380D01*
X117998095Y-77472380D01*
X119117142Y-89948571D02*
X119450476Y-89948571D01*
X119450476Y-90472380D02*
X119450476Y-89472380D01*
X118974285Y-89472380D01*
X123045714Y-90472380D02*
X123045714Y-89472380D01*
X123045714Y-89948571D02*
X122474285Y-89948571D01*
X122474285Y-90472380D02*
X122474285Y-89472380D01*
X126117142Y-89472380D02*
X126117142Y-90186666D01*
X126164761Y-90329523D01*
X126260000Y-90424761D01*
X126402857Y-90472380D01*
X126498095Y-90472380D01*
X130021904Y-90472380D02*
X130021904Y-89472380D01*
X129450476Y-90472380D02*
X129879047Y-89900952D01*
X129450476Y-89472380D02*
X130021904Y-90043809D01*
X128450476Y-78472380D02*
X128926666Y-78472380D01*
X128926666Y-77472380D01*
X125593333Y-78472380D02*
X125593333Y-77472380D01*
X125260000Y-78186666D01*
X124926666Y-77472380D01*
X124926666Y-78472380D01*
X122045714Y-78472380D02*
X122045714Y-77472380D01*
X121474285Y-78472380D01*
X121474285Y-77472380D01*
X109974285Y-124686666D02*
X109498095Y-124686666D01*
X110069523Y-124972380D02*
X109736190Y-123972380D01*
X109402857Y-124972380D01*
X108545714Y-124972380D02*
X109117142Y-124972380D01*
X108831428Y-124972380D02*
X108831428Y-123972380D01*
X108926666Y-124115238D01*
X109021904Y-124210476D01*
X109117142Y-124258095D01*
X117474285Y-124686666D02*
X116998095Y-124686666D01*
X117569523Y-124972380D02*
X117236190Y-123972380D01*
X116902857Y-124972380D01*
X116617142Y-124067619D02*
X116569523Y-124020000D01*
X116474285Y-123972380D01*
X116236190Y-123972380D01*
X116140952Y-124020000D01*
X116093333Y-124067619D01*
X116045714Y-124162857D01*
X116045714Y-124258095D01*
X116093333Y-124400952D01*
X116664761Y-124972380D01*
X116045714Y-124972380D01*
X104117142Y-124448571D02*
X104450476Y-124448571D01*
X104450476Y-124972380D02*
X104450476Y-123972380D01*
X103974285Y-123972380D01*
X107045714Y-124972380D02*
X107045714Y-123972380D01*
X107045714Y-124448571D02*
X106474285Y-124448571D01*
X106474285Y-124972380D02*
X106474285Y-123972380D01*
X111617142Y-123972380D02*
X111617142Y-124686666D01*
X111664761Y-124829523D01*
X111760000Y-124924761D01*
X111902857Y-124972380D01*
X111998095Y-124972380D01*
X114521904Y-124972380D02*
X114521904Y-123972380D01*
X113950476Y-124972380D02*
X114379047Y-124400952D01*
X113950476Y-123972380D02*
X114521904Y-124543809D01*
X119188571Y-124448571D02*
X119045714Y-124496190D01*
X118998095Y-124543809D01*
X118950476Y-124639047D01*
X118950476Y-124781904D01*
X118998095Y-124877142D01*
X119045714Y-124924761D01*
X119140952Y-124972380D01*
X119521904Y-124972380D01*
X119521904Y-123972380D01*
X119188571Y-123972380D01*
X119093333Y-124020000D01*
X119045714Y-124067619D01*
X118998095Y-124162857D01*
X118998095Y-124258095D01*
X119045714Y-124353333D01*
X119093333Y-124400952D01*
X119188571Y-124448571D01*
X119521904Y-124448571D01*
X104474285Y-68020000D02*
X104569523Y-67972380D01*
X104712380Y-67972380D01*
X104855238Y-68020000D01*
X104950476Y-68115238D01*
X104998095Y-68210476D01*
X105045714Y-68400952D01*
X105045714Y-68543809D01*
X104998095Y-68734285D01*
X104950476Y-68829523D01*
X104855238Y-68924761D01*
X104712380Y-68972380D01*
X104617142Y-68972380D01*
X104474285Y-68924761D01*
X104426666Y-68877142D01*
X104426666Y-68543809D01*
X104617142Y-68543809D01*
X103474285Y-68972380D02*
X104045714Y-68972380D01*
X103760000Y-68972380D02*
X103760000Y-67972380D01*
X103855238Y-68115238D01*
X103950476Y-68210476D01*
X104045714Y-68258095D01*
X121974285Y-124020000D02*
X122069523Y-123972380D01*
X122212380Y-123972380D01*
X122355238Y-124020000D01*
X122450476Y-124115238D01*
X122498095Y-124210476D01*
X122545714Y-124400952D01*
X122545714Y-124543809D01*
X122498095Y-124734285D01*
X122450476Y-124829523D01*
X122355238Y-124924761D01*
X122212380Y-124972380D01*
X122117142Y-124972380D01*
X121974285Y-124924761D01*
X121926666Y-124877142D01*
X121926666Y-124543809D01*
X122117142Y-124543809D01*
X121545714Y-124067619D02*
X121498095Y-124020000D01*
X121402857Y-123972380D01*
X121164761Y-123972380D01*
X121069523Y-124020000D01*
X121021904Y-124067619D01*
X120974285Y-124162857D01*
X120974285Y-124258095D01*
X121021904Y-124400952D01*
X121593333Y-124972380D01*
X120974285Y-124972380D01*
X106974285Y-68448571D02*
X106640952Y-68448571D01*
X106498095Y-68972380D02*
X106974285Y-68972380D01*
X106974285Y-67972380D01*
X106498095Y-67972380D01*
X112045714Y-68972380D02*
X112045714Y-67972380D01*
X111474285Y-68972380D01*
X111474285Y-67972380D01*
X114593333Y-68972380D02*
X114593333Y-67972380D01*
X114260000Y-68686666D01*
X113926666Y-67972380D01*
X113926666Y-68972380D01*
X118950476Y-68972380D02*
X119426666Y-68972380D01*
X119426666Y-67972380D01*
X121450476Y-68877142D02*
X121498095Y-68924761D01*
X121640952Y-68972380D01*
X121736190Y-68972380D01*
X121879047Y-68924761D01*
X121974285Y-68829523D01*
X122021904Y-68734285D01*
X122069523Y-68543809D01*
X122069523Y-68400952D01*
X122021904Y-68210476D01*
X121974285Y-68115238D01*
X121879047Y-68020000D01*
X121736190Y-67972380D01*
X121640952Y-67972380D01*
X121498095Y-68020000D01*
X121450476Y-68067619D01*
X109998095Y-68972380D02*
X109998095Y-67972380D01*
X109760000Y-67972380D01*
X109617142Y-68020000D01*
X109521904Y-68115238D01*
X109474285Y-68210476D01*
X109426666Y-68400952D01*
X109426666Y-68543809D01*
X109474285Y-68734285D01*
X109521904Y-68829523D01*
X109617142Y-68924761D01*
X109760000Y-68972380D01*
X109998095Y-68972380D01*
X108474285Y-68972380D02*
X109045714Y-68972380D01*
X108760000Y-68972380D02*
X108760000Y-67972380D01*
X108855238Y-68115238D01*
X108950476Y-68210476D01*
X109045714Y-68258095D01*
X117498095Y-68972380D02*
X117498095Y-67972380D01*
X117260000Y-67972380D01*
X117117142Y-68020000D01*
X117021904Y-68115238D01*
X116974285Y-68210476D01*
X116926666Y-68400952D01*
X116926666Y-68543809D01*
X116974285Y-68734285D01*
X117021904Y-68829523D01*
X117117142Y-68924761D01*
X117260000Y-68972380D01*
X117498095Y-68972380D01*
X116545714Y-68067619D02*
X116498095Y-68020000D01*
X116402857Y-67972380D01*
X116164761Y-67972380D01*
X116069523Y-68020000D01*
X116021904Y-68067619D01*
X115974285Y-68162857D01*
X115974285Y-68258095D01*
X116021904Y-68400952D01*
X116593333Y-68972380D01*
X115974285Y-68972380D01*
X125021904Y-68972380D02*
X125021904Y-67972380D01*
X124783809Y-67972380D01*
X124640952Y-68020000D01*
X124545714Y-68115238D01*
X124498095Y-68210476D01*
X124450476Y-68400952D01*
X124450476Y-68543809D01*
X124498095Y-68734285D01*
X124545714Y-68829523D01*
X124640952Y-68924761D01*
X124783809Y-68972380D01*
X125021904Y-68972380D01*
X124021904Y-68972380D02*
X124021904Y-67972380D01*
X123640952Y-67972380D01*
X123545714Y-68020000D01*
X123498095Y-68067619D01*
X123450476Y-68162857D01*
X123450476Y-68305714D01*
X123498095Y-68400952D01*
X123545714Y-68448571D01*
X123640952Y-68496190D01*
X124021904Y-68496190D01*
X126045714Y-124877142D02*
X126093333Y-124924761D01*
X126236190Y-124972380D01*
X126331428Y-124972380D01*
X126474285Y-124924761D01*
X126569523Y-124829523D01*
X126617142Y-124734285D01*
X126664761Y-124543809D01*
X126664761Y-124400952D01*
X126617142Y-124210476D01*
X126569523Y-124115238D01*
X126474285Y-124020000D01*
X126331428Y-123972380D01*
X126236190Y-123972380D01*
X126093333Y-124020000D01*
X126045714Y-124067619D01*
X125426666Y-123972380D02*
X125236190Y-123972380D01*
X125140952Y-124020000D01*
X125045714Y-124115238D01*
X124998095Y-124305714D01*
X124998095Y-124639047D01*
X125045714Y-124829523D01*
X125140952Y-124924761D01*
X125236190Y-124972380D01*
X125426666Y-124972380D01*
X125521904Y-124924761D01*
X125617142Y-124829523D01*
X125664761Y-124639047D01*
X125664761Y-124305714D01*
X125617142Y-124115238D01*
X125521904Y-124020000D01*
X125426666Y-123972380D01*
X124569523Y-124972380D02*
X124569523Y-123972380D01*
X124236190Y-124686666D01*
X123902857Y-123972380D01*
X123902857Y-124972380D01*
X101545714Y-68877142D02*
X101593333Y-68924761D01*
X101736190Y-68972380D01*
X101831428Y-68972380D01*
X101974285Y-68924761D01*
X102069523Y-68829523D01*
X102117142Y-68734285D01*
X102164761Y-68543809D01*
X102164761Y-68400952D01*
X102117142Y-68210476D01*
X102069523Y-68115238D01*
X101974285Y-68020000D01*
X101831428Y-67972380D01*
X101736190Y-67972380D01*
X101593333Y-68020000D01*
X101545714Y-68067619D01*
X100926666Y-67972380D02*
X100736190Y-67972380D01*
X100640952Y-68020000D01*
X100545714Y-68115238D01*
X100498095Y-68305714D01*
X100498095Y-68639047D01*
X100545714Y-68829523D01*
X100640952Y-68924761D01*
X100736190Y-68972380D01*
X100926666Y-68972380D01*
X101021904Y-68924761D01*
X101117142Y-68829523D01*
X101164761Y-68639047D01*
X101164761Y-68305714D01*
X101117142Y-68115238D01*
X101021904Y-68020000D01*
X100926666Y-67972380D01*
X100069523Y-68972380D02*
X100069523Y-67972380D01*
X99736190Y-68686666D01*
X99402857Y-67972380D01*
X99402857Y-68972380D01*
X102521904Y-124972380D02*
X102521904Y-123972380D01*
X101950476Y-124972380D01*
X101950476Y-123972380D01*
X101474285Y-124877142D02*
X101426666Y-124924761D01*
X101474285Y-124972380D01*
X101521904Y-124924761D01*
X101474285Y-124877142D01*
X101474285Y-124972380D01*
X100426666Y-124877142D02*
X100474285Y-124924761D01*
X100617142Y-124972380D01*
X100712380Y-124972380D01*
X100855238Y-124924761D01*
X100950476Y-124829523D01*
X100998095Y-124734285D01*
X101045714Y-124543809D01*
X101045714Y-124400952D01*
X100998095Y-124210476D01*
X100950476Y-124115238D01*
X100855238Y-124020000D01*
X100712380Y-123972380D01*
X100617142Y-123972380D01*
X100474285Y-124020000D01*
X100426666Y-124067619D01*
X99998095Y-124877142D02*
X99950476Y-124924761D01*
X99998095Y-124972380D01*
X100045714Y-124924761D01*
X99998095Y-124877142D01*
X99998095Y-124972380D01*
X162108095Y-64512380D02*
X162108095Y-63512380D01*
X161870000Y-63512380D01*
X161727142Y-63560000D01*
X161631904Y-63655238D01*
X161584285Y-63750476D01*
X161536666Y-63940952D01*
X161536666Y-64083809D01*
X161584285Y-64274285D01*
X161631904Y-64369523D01*
X161727142Y-64464761D01*
X161870000Y-64512380D01*
X162108095Y-64512380D01*
X160679523Y-63845714D02*
X160679523Y-64512380D01*
X160917619Y-63464761D02*
X161155714Y-64179047D01*
X160536666Y-64179047D01*
X166337619Y-129242380D02*
X166909047Y-129242380D01*
X166623333Y-129242380D02*
X166623333Y-128242380D01*
X166718571Y-128385238D01*
X166813809Y-128480476D01*
X166909047Y-128528095D01*
X165480476Y-128242380D02*
X165670952Y-128242380D01*
X165766190Y-128290000D01*
X165813809Y-128337619D01*
X165909047Y-128480476D01*
X165956666Y-128670952D01*
X165956666Y-129051904D01*
X165909047Y-129147142D01*
X165861428Y-129194761D01*
X165766190Y-129242380D01*
X165575714Y-129242380D01*
X165480476Y-129194761D01*
X165432857Y-129147142D01*
X165385238Y-129051904D01*
X165385238Y-128813809D01*
X165432857Y-128718571D01*
X165480476Y-128670952D01*
X165575714Y-128623333D01*
X165766190Y-128623333D01*
X165861428Y-128670952D01*
X165909047Y-128718571D01*
X165956666Y-128813809D01*
X165004285Y-129194761D02*
X164909047Y-129242380D01*
X164718571Y-129242380D01*
X164623333Y-129194761D01*
X164575714Y-129099523D01*
X164575714Y-129051904D01*
X164623333Y-128956666D01*
X164718571Y-128909047D01*
X164861428Y-128909047D01*
X164956666Y-128861428D01*
X165004285Y-128766190D01*
X165004285Y-128718571D01*
X164956666Y-128623333D01*
X164861428Y-128575714D01*
X164718571Y-128575714D01*
X164623333Y-128623333D01*
X163766190Y-129194761D02*
X163861428Y-129242380D01*
X164051904Y-129242380D01*
X164147142Y-129194761D01*
X164194761Y-129099523D01*
X164194761Y-128718571D01*
X164147142Y-128623333D01*
X164051904Y-128575714D01*
X163861428Y-128575714D01*
X163766190Y-128623333D01*
X163718571Y-128718571D01*
X163718571Y-128813809D01*
X164194761Y-128909047D01*
X162861428Y-128575714D02*
X162861428Y-129385238D01*
X162909047Y-129480476D01*
X162956666Y-129528095D01*
X163051904Y-129575714D01*
X163194761Y-129575714D01*
X163290000Y-129528095D01*
X162861428Y-129194761D02*
X162956666Y-129242380D01*
X163147142Y-129242380D01*
X163242380Y-129194761D01*
X163290000Y-129147142D01*
X163337619Y-129051904D01*
X163337619Y-128766190D01*
X163290000Y-128670952D01*
X163242380Y-128623333D01*
X163147142Y-128575714D01*
X162956666Y-128575714D01*
X162861428Y-128623333D01*
X162385238Y-129242380D02*
X162385238Y-128575714D01*
X162385238Y-128670952D02*
X162337619Y-128623333D01*
X162242380Y-128575714D01*
X162099523Y-128575714D01*
X162004285Y-128623333D01*
X161956666Y-128718571D01*
X161956666Y-129242380D01*
X161956666Y-128718571D02*
X161909047Y-128623333D01*
X161813809Y-128575714D01*
X161670952Y-128575714D01*
X161575714Y-128623333D01*
X161528095Y-128718571D01*
X161528095Y-129242380D01*
X160670952Y-129194761D02*
X160766190Y-129242380D01*
X160956666Y-129242380D01*
X161051904Y-129194761D01*
X161099523Y-129099523D01*
X161099523Y-128718571D01*
X161051904Y-128623333D01*
X160956666Y-128575714D01*
X160766190Y-128575714D01*
X160670952Y-128623333D01*
X160623333Y-128718571D01*
X160623333Y-128813809D01*
X161099523Y-128909047D01*
X160194761Y-128575714D02*
X160194761Y-129242380D01*
X160194761Y-128670952D02*
X160147142Y-128623333D01*
X160051904Y-128575714D01*
X159909047Y-128575714D01*
X159813809Y-128623333D01*
X159766190Y-128718571D01*
X159766190Y-129242380D01*
X159432857Y-128575714D02*
X159051904Y-128575714D01*
X159290000Y-128242380D02*
X159290000Y-129099523D01*
X159242380Y-129194761D01*
X159147142Y-129242380D01*
X159051904Y-129242380D01*
X158956666Y-129337619D02*
X158194761Y-129337619D01*
X157480476Y-129242380D02*
X157956666Y-129242380D01*
X157956666Y-128242380D01*
X157147142Y-128718571D02*
X156813809Y-128718571D01*
X156670952Y-129242380D02*
X157147142Y-129242380D01*
X157147142Y-128242380D01*
X156670952Y-128242380D01*
X156242380Y-129242380D02*
X156242380Y-128242380D01*
X156004285Y-128242380D01*
X155861428Y-128290000D01*
X155766190Y-128385238D01*
X155718571Y-128480476D01*
X155670952Y-128670952D01*
X155670952Y-128813809D01*
X155718571Y-129004285D01*
X155766190Y-129099523D01*
X155861428Y-129194761D01*
X156004285Y-129242380D01*
X156242380Y-129242380D01*
X172234285Y-96186666D02*
X171758095Y-96186666D01*
X172329523Y-96472380D02*
X171996190Y-95472380D01*
X171662857Y-96472380D01*
X170805714Y-96472380D02*
X171377142Y-96472380D01*
X171091428Y-96472380D02*
X171091428Y-95472380D01*
X171186666Y-95615238D01*
X171281904Y-95710476D01*
X171377142Y-95758095D01*
X179234285Y-96186666D02*
X178758095Y-96186666D01*
X179329523Y-96472380D02*
X178996190Y-95472380D01*
X178662857Y-96472380D01*
X178377142Y-95567619D02*
X178329523Y-95520000D01*
X178234285Y-95472380D01*
X177996190Y-95472380D01*
X177900952Y-95520000D01*
X177853333Y-95567619D01*
X177805714Y-95662857D01*
X177805714Y-95758095D01*
X177853333Y-95900952D01*
X178424761Y-96472380D01*
X177805714Y-96472380D01*
X170734285Y-83520000D02*
X170829523Y-83472380D01*
X170972380Y-83472380D01*
X171115238Y-83520000D01*
X171210476Y-83615238D01*
X171258095Y-83710476D01*
X171305714Y-83900952D01*
X171305714Y-84043809D01*
X171258095Y-84234285D01*
X171210476Y-84329523D01*
X171115238Y-84424761D01*
X170972380Y-84472380D01*
X170877142Y-84472380D01*
X170734285Y-84424761D01*
X170686666Y-84377142D01*
X170686666Y-84043809D01*
X170877142Y-84043809D01*
X169734285Y-84472380D02*
X170305714Y-84472380D01*
X170020000Y-84472380D02*
X170020000Y-83472380D01*
X170115238Y-83615238D01*
X170210476Y-83710476D01*
X170305714Y-83758095D01*
X177734285Y-83520000D02*
X177829523Y-83472380D01*
X177972380Y-83472380D01*
X178115238Y-83520000D01*
X178210476Y-83615238D01*
X178258095Y-83710476D01*
X178305714Y-83900952D01*
X178305714Y-84043809D01*
X178258095Y-84234285D01*
X178210476Y-84329523D01*
X178115238Y-84424761D01*
X177972380Y-84472380D01*
X177877142Y-84472380D01*
X177734285Y-84424761D01*
X177686666Y-84377142D01*
X177686666Y-84043809D01*
X177877142Y-84043809D01*
X177305714Y-83567619D02*
X177258095Y-83520000D01*
X177162857Y-83472380D01*
X176924761Y-83472380D01*
X176829523Y-83520000D01*
X176781904Y-83567619D01*
X176734285Y-83662857D01*
X176734285Y-83758095D01*
X176781904Y-83900952D01*
X177353333Y-84472380D01*
X176734285Y-84472380D01*
X170258095Y-72472380D02*
X170258095Y-71472380D01*
X170020000Y-71472380D01*
X169877142Y-71520000D01*
X169781904Y-71615238D01*
X169734285Y-71710476D01*
X169686666Y-71900952D01*
X169686666Y-72043809D01*
X169734285Y-72234285D01*
X169781904Y-72329523D01*
X169877142Y-72424761D01*
X170020000Y-72472380D01*
X170258095Y-72472380D01*
X168734285Y-72472380D02*
X169305714Y-72472380D01*
X169020000Y-72472380D02*
X169020000Y-71472380D01*
X169115238Y-71615238D01*
X169210476Y-71710476D01*
X169305714Y-71758095D01*
X177258095Y-72472380D02*
X177258095Y-71472380D01*
X177020000Y-71472380D01*
X176877142Y-71520000D01*
X176781904Y-71615238D01*
X176734285Y-71710476D01*
X176686666Y-71900952D01*
X176686666Y-72043809D01*
X176734285Y-72234285D01*
X176781904Y-72329523D01*
X176877142Y-72424761D01*
X177020000Y-72472380D01*
X177258095Y-72472380D01*
X176305714Y-71567619D02*
X176258095Y-71520000D01*
X176162857Y-71472380D01*
X175924761Y-71472380D01*
X175829523Y-71520000D01*
X175781904Y-71567619D01*
X175734285Y-71662857D01*
X175734285Y-71758095D01*
X175781904Y-71900952D01*
X176353333Y-72472380D01*
X175734285Y-72472380D01*
X184281904Y-74472380D02*
X184281904Y-73472380D01*
X184043809Y-73472380D01*
X183900952Y-73520000D01*
X183805714Y-73615238D01*
X183758095Y-73710476D01*
X183710476Y-73900952D01*
X183710476Y-74043809D01*
X183758095Y-74234285D01*
X183805714Y-74329523D01*
X183900952Y-74424761D01*
X184043809Y-74472380D01*
X184281904Y-74472380D01*
X183281904Y-74472380D02*
X183281904Y-73472380D01*
X182900952Y-73472380D01*
X182805714Y-73520000D01*
X182758095Y-73567619D01*
X182710476Y-73662857D01*
X182710476Y-73805714D01*
X182758095Y-73900952D01*
X182805714Y-73948571D01*
X182900952Y-73996190D01*
X183281904Y-73996190D01*
X181448571Y-89948571D02*
X181305714Y-89996190D01*
X181258095Y-90043809D01*
X181210476Y-90139047D01*
X181210476Y-90281904D01*
X181258095Y-90377142D01*
X181305714Y-90424761D01*
X181400952Y-90472380D01*
X181781904Y-90472380D01*
X181781904Y-89472380D01*
X181448571Y-89472380D01*
X181353333Y-89520000D01*
X181305714Y-89567619D01*
X181258095Y-89662857D01*
X181258095Y-89758095D01*
X181305714Y-89853333D01*
X181353333Y-89900952D01*
X181448571Y-89948571D01*
X181781904Y-89948571D01*
X180210476Y-78377142D02*
X180258095Y-78424761D01*
X180400952Y-78472380D01*
X180496190Y-78472380D01*
X180639047Y-78424761D01*
X180734285Y-78329523D01*
X180781904Y-78234285D01*
X180829523Y-78043809D01*
X180829523Y-77900952D01*
X180781904Y-77710476D01*
X180734285Y-77615238D01*
X180639047Y-77520000D01*
X180496190Y-77472380D01*
X180400952Y-77472380D01*
X180258095Y-77520000D01*
X180210476Y-77567619D01*
X166734285Y-77948571D02*
X166400952Y-77948571D01*
X166258095Y-78472380D02*
X166734285Y-78472380D01*
X166734285Y-77472380D01*
X166258095Y-77472380D01*
X167377142Y-89948571D02*
X167710476Y-89948571D01*
X167710476Y-90472380D02*
X167710476Y-89472380D01*
X167234285Y-89472380D01*
X171305714Y-90472380D02*
X171305714Y-89472380D01*
X171305714Y-89948571D02*
X170734285Y-89948571D01*
X170734285Y-90472380D02*
X170734285Y-89472380D01*
X174377142Y-89472380D02*
X174377142Y-90186666D01*
X174424761Y-90329523D01*
X174520000Y-90424761D01*
X174662857Y-90472380D01*
X174758095Y-90472380D01*
X178281904Y-90472380D02*
X178281904Y-89472380D01*
X177710476Y-90472380D02*
X178139047Y-89900952D01*
X177710476Y-89472380D02*
X178281904Y-90043809D01*
X176710476Y-78472380D02*
X177186666Y-78472380D01*
X177186666Y-77472380D01*
X173853333Y-78472380D02*
X173853333Y-77472380D01*
X173520000Y-78186666D01*
X173186666Y-77472380D01*
X173186666Y-78472380D01*
X170305714Y-78472380D02*
X170305714Y-77472380D01*
X169734285Y-78472380D01*
X169734285Y-77472380D01*
X158234285Y-124686666D02*
X157758095Y-124686666D01*
X158329523Y-124972380D02*
X157996190Y-123972380D01*
X157662857Y-124972380D01*
X156805714Y-124972380D02*
X157377142Y-124972380D01*
X157091428Y-124972380D02*
X157091428Y-123972380D01*
X157186666Y-124115238D01*
X157281904Y-124210476D01*
X157377142Y-124258095D01*
X165734285Y-124686666D02*
X165258095Y-124686666D01*
X165829523Y-124972380D02*
X165496190Y-123972380D01*
X165162857Y-124972380D01*
X164877142Y-124067619D02*
X164829523Y-124020000D01*
X164734285Y-123972380D01*
X164496190Y-123972380D01*
X164400952Y-124020000D01*
X164353333Y-124067619D01*
X164305714Y-124162857D01*
X164305714Y-124258095D01*
X164353333Y-124400952D01*
X164924761Y-124972380D01*
X164305714Y-124972380D01*
X152377142Y-124448571D02*
X152710476Y-124448571D01*
X152710476Y-124972380D02*
X152710476Y-123972380D01*
X152234285Y-123972380D01*
X155305714Y-124972380D02*
X155305714Y-123972380D01*
X155305714Y-124448571D02*
X154734285Y-124448571D01*
X154734285Y-124972380D02*
X154734285Y-123972380D01*
X159877142Y-123972380D02*
X159877142Y-124686666D01*
X159924761Y-124829523D01*
X160020000Y-124924761D01*
X160162857Y-124972380D01*
X160258095Y-124972380D01*
X162781904Y-124972380D02*
X162781904Y-123972380D01*
X162210476Y-124972380D02*
X162639047Y-124400952D01*
X162210476Y-123972380D02*
X162781904Y-124543809D01*
X167448571Y-124448571D02*
X167305714Y-124496190D01*
X167258095Y-124543809D01*
X167210476Y-124639047D01*
X167210476Y-124781904D01*
X167258095Y-124877142D01*
X167305714Y-124924761D01*
X167400952Y-124972380D01*
X167781904Y-124972380D01*
X167781904Y-123972380D01*
X167448571Y-123972380D01*
X167353333Y-124020000D01*
X167305714Y-124067619D01*
X167258095Y-124162857D01*
X167258095Y-124258095D01*
X167305714Y-124353333D01*
X167353333Y-124400952D01*
X167448571Y-124448571D01*
X167781904Y-124448571D01*
X152734285Y-68020000D02*
X152829523Y-67972380D01*
X152972380Y-67972380D01*
X153115238Y-68020000D01*
X153210476Y-68115238D01*
X153258095Y-68210476D01*
X153305714Y-68400952D01*
X153305714Y-68543809D01*
X153258095Y-68734285D01*
X153210476Y-68829523D01*
X153115238Y-68924761D01*
X152972380Y-68972380D01*
X152877142Y-68972380D01*
X152734285Y-68924761D01*
X152686666Y-68877142D01*
X152686666Y-68543809D01*
X152877142Y-68543809D01*
X151734285Y-68972380D02*
X152305714Y-68972380D01*
X152020000Y-68972380D02*
X152020000Y-67972380D01*
X152115238Y-68115238D01*
X152210476Y-68210476D01*
X152305714Y-68258095D01*
X170234285Y-124020000D02*
X170329523Y-123972380D01*
X170472380Y-123972380D01*
X170615238Y-124020000D01*
X170710476Y-124115238D01*
X170758095Y-124210476D01*
X170805714Y-124400952D01*
X170805714Y-124543809D01*
X170758095Y-124734285D01*
X170710476Y-124829523D01*
X170615238Y-124924761D01*
X170472380Y-124972380D01*
X170377142Y-124972380D01*
X170234285Y-124924761D01*
X170186666Y-124877142D01*
X170186666Y-124543809D01*
X170377142Y-124543809D01*
X169805714Y-124067619D02*
X169758095Y-124020000D01*
X169662857Y-123972380D01*
X169424761Y-123972380D01*
X169329523Y-124020000D01*
X169281904Y-124067619D01*
X169234285Y-124162857D01*
X169234285Y-124258095D01*
X169281904Y-124400952D01*
X169853333Y-124972380D01*
X169234285Y-124972380D01*
X155234285Y-68448571D02*
X154900952Y-68448571D01*
X154758095Y-68972380D02*
X155234285Y-68972380D01*
X155234285Y-67972380D01*
X154758095Y-67972380D01*
X160305714Y-68972380D02*
X160305714Y-67972380D01*
X159734285Y-68972380D01*
X159734285Y-67972380D01*
X162853333Y-68972380D02*
X162853333Y-67972380D01*
X162520000Y-68686666D01*
X162186666Y-67972380D01*
X162186666Y-68972380D01*
X167210476Y-68972380D02*
X167686666Y-68972380D01*
X167686666Y-67972380D01*
X169710476Y-68877142D02*
X169758095Y-68924761D01*
X169900952Y-68972380D01*
X169996190Y-68972380D01*
X170139047Y-68924761D01*
X170234285Y-68829523D01*
X170281904Y-68734285D01*
X170329523Y-68543809D01*
X170329523Y-68400952D01*
X170281904Y-68210476D01*
X170234285Y-68115238D01*
X170139047Y-68020000D01*
X169996190Y-67972380D01*
X169900952Y-67972380D01*
X169758095Y-68020000D01*
X169710476Y-68067619D01*
X158258095Y-68972380D02*
X158258095Y-67972380D01*
X158020000Y-67972380D01*
X157877142Y-68020000D01*
X157781904Y-68115238D01*
X157734285Y-68210476D01*
X157686666Y-68400952D01*
X157686666Y-68543809D01*
X157734285Y-68734285D01*
X157781904Y-68829523D01*
X157877142Y-68924761D01*
X158020000Y-68972380D01*
X158258095Y-68972380D01*
X156734285Y-68972380D02*
X157305714Y-68972380D01*
X157020000Y-68972380D02*
X157020000Y-67972380D01*
X157115238Y-68115238D01*
X157210476Y-68210476D01*
X157305714Y-68258095D01*
X165758095Y-68972380D02*
X165758095Y-67972380D01*
X165520000Y-67972380D01*
X165377142Y-68020000D01*
X165281904Y-68115238D01*
X165234285Y-68210476D01*
X165186666Y-68400952D01*
X165186666Y-68543809D01*
X165234285Y-68734285D01*
X165281904Y-68829523D01*
X165377142Y-68924761D01*
X165520000Y-68972380D01*
X165758095Y-68972380D01*
X164805714Y-68067619D02*
X164758095Y-68020000D01*
X164662857Y-67972380D01*
X164424761Y-67972380D01*
X164329523Y-68020000D01*
X164281904Y-68067619D01*
X164234285Y-68162857D01*
X164234285Y-68258095D01*
X164281904Y-68400952D01*
X164853333Y-68972380D01*
X164234285Y-68972380D01*
X173281904Y-68972380D02*
X173281904Y-67972380D01*
X173043809Y-67972380D01*
X172900952Y-68020000D01*
X172805714Y-68115238D01*
X172758095Y-68210476D01*
X172710476Y-68400952D01*
X172710476Y-68543809D01*
X172758095Y-68734285D01*
X172805714Y-68829523D01*
X172900952Y-68924761D01*
X173043809Y-68972380D01*
X173281904Y-68972380D01*
X172281904Y-68972380D02*
X172281904Y-67972380D01*
X171900952Y-67972380D01*
X171805714Y-68020000D01*
X171758095Y-68067619D01*
X171710476Y-68162857D01*
X171710476Y-68305714D01*
X171758095Y-68400952D01*
X171805714Y-68448571D01*
X171900952Y-68496190D01*
X172281904Y-68496190D01*
X174305714Y-124877142D02*
X174353333Y-124924761D01*
X174496190Y-124972380D01*
X174591428Y-124972380D01*
X174734285Y-124924761D01*
X174829523Y-124829523D01*
X174877142Y-124734285D01*
X174924761Y-124543809D01*
X174924761Y-124400952D01*
X174877142Y-124210476D01*
X174829523Y-124115238D01*
X174734285Y-124020000D01*
X174591428Y-123972380D01*
X174496190Y-123972380D01*
X174353333Y-124020000D01*
X174305714Y-124067619D01*
X173686666Y-123972380D02*
X173496190Y-123972380D01*
X173400952Y-124020000D01*
X173305714Y-124115238D01*
X173258095Y-124305714D01*
X173258095Y-124639047D01*
X173305714Y-124829523D01*
X173400952Y-124924761D01*
X173496190Y-124972380D01*
X173686666Y-124972380D01*
X173781904Y-124924761D01*
X173877142Y-124829523D01*
X173924761Y-124639047D01*
X173924761Y-124305714D01*
X173877142Y-124115238D01*
X173781904Y-124020000D01*
X173686666Y-123972380D01*
X172829523Y-124972380D02*
X172829523Y-123972380D01*
X172496190Y-124686666D01*
X172162857Y-123972380D01*
X172162857Y-124972380D01*
X149805714Y-68877142D02*
X149853333Y-68924761D01*
X149996190Y-68972380D01*
X150091428Y-68972380D01*
X150234285Y-68924761D01*
X150329523Y-68829523D01*
X150377142Y-68734285D01*
X150424761Y-68543809D01*
X150424761Y-68400952D01*
X150377142Y-68210476D01*
X150329523Y-68115238D01*
X150234285Y-68020000D01*
X150091428Y-67972380D01*
X149996190Y-67972380D01*
X149853333Y-68020000D01*
X149805714Y-68067619D01*
X149186666Y-67972380D02*
X148996190Y-67972380D01*
X148900952Y-68020000D01*
X148805714Y-68115238D01*
X148758095Y-68305714D01*
X148758095Y-68639047D01*
X148805714Y-68829523D01*
X148900952Y-68924761D01*
X148996190Y-68972380D01*
X149186666Y-68972380D01*
X149281904Y-68924761D01*
X149377142Y-68829523D01*
X149424761Y-68639047D01*
X149424761Y-68305714D01*
X149377142Y-68115238D01*
X149281904Y-68020000D01*
X149186666Y-67972380D01*
X148329523Y-68972380D02*
X148329523Y-67972380D01*
X147996190Y-68686666D01*
X147662857Y-67972380D01*
X147662857Y-68972380D01*
X150781904Y-124972380D02*
X150781904Y-123972380D01*
X150210476Y-124972380D01*
X150210476Y-123972380D01*
X149734285Y-124877142D02*
X149686666Y-124924761D01*
X149734285Y-124972380D01*
X149781904Y-124924761D01*
X149734285Y-124877142D01*
X149734285Y-124972380D01*
X148686666Y-124877142D02*
X148734285Y-124924761D01*
X148877142Y-124972380D01*
X148972380Y-124972380D01*
X149115238Y-124924761D01*
X149210476Y-124829523D01*
X149258095Y-124734285D01*
X149305714Y-124543809D01*
X149305714Y-124400952D01*
X149258095Y-124210476D01*
X149210476Y-124115238D01*
X149115238Y-124020000D01*
X148972380Y-123972380D01*
X148877142Y-123972380D01*
X148734285Y-124020000D01*
X148686666Y-124067619D01*
X148258095Y-124877142D02*
X148210476Y-124924761D01*
X148258095Y-124972380D01*
X148305714Y-124924761D01*
X148258095Y-124877142D01*
X148258095Y-124972380D01*
X113768095Y-111092380D02*
X113768095Y-110092380D01*
X113530000Y-110092380D01*
X113387142Y-110140000D01*
X113291904Y-110235238D01*
X113244285Y-110330476D01*
X113196666Y-110520952D01*
X113196666Y-110663809D01*
X113244285Y-110854285D01*
X113291904Y-110949523D01*
X113387142Y-111044761D01*
X113530000Y-111092380D01*
X113768095Y-111092380D01*
X112815714Y-110187619D02*
X112768095Y-110140000D01*
X112672857Y-110092380D01*
X112434761Y-110092380D01*
X112339523Y-110140000D01*
X112291904Y-110187619D01*
X112244285Y-110282857D01*
X112244285Y-110378095D01*
X112291904Y-110520952D01*
X112863333Y-111092380D01*
X112244285Y-111092380D01*
X109227857Y-109672380D02*
X109704047Y-109672380D01*
X109704047Y-108672380D01*
X108894523Y-109148571D02*
X108561190Y-109148571D01*
X108418333Y-109672380D02*
X108894523Y-109672380D01*
X108894523Y-108672380D01*
X108418333Y-108672380D01*
X107989761Y-109672380D02*
X107989761Y-108672380D01*
X107751666Y-108672380D01*
X107608809Y-108720000D01*
X107513571Y-108815238D01*
X107465952Y-108910476D01*
X107418333Y-109100952D01*
X107418333Y-109243809D01*
X107465952Y-109434285D01*
X107513571Y-109529523D01*
X107608809Y-109624761D01*
X107751666Y-109672380D01*
X107989761Y-109672380D01*
X113768095Y-90772380D02*
X113768095Y-89772380D01*
X113530000Y-89772380D01*
X113387142Y-89820000D01*
X113291904Y-89915238D01*
X113244285Y-90010476D01*
X113196666Y-90200952D01*
X113196666Y-90343809D01*
X113244285Y-90534285D01*
X113291904Y-90629523D01*
X113387142Y-90724761D01*
X113530000Y-90772380D01*
X113768095Y-90772380D01*
X112863333Y-89772380D02*
X112244285Y-89772380D01*
X112577619Y-90153333D01*
X112434761Y-90153333D01*
X112339523Y-90200952D01*
X112291904Y-90248571D01*
X112244285Y-90343809D01*
X112244285Y-90581904D01*
X112291904Y-90677142D01*
X112339523Y-90724761D01*
X112434761Y-90772380D01*
X112720476Y-90772380D01*
X112815714Y-90724761D01*
X112863333Y-90677142D01*
X109227857Y-89352380D02*
X109704047Y-89352380D01*
X109704047Y-88352380D01*
X108894523Y-88828571D02*
X108561190Y-88828571D01*
X108418333Y-89352380D02*
X108894523Y-89352380D01*
X108894523Y-88352380D01*
X108418333Y-88352380D01*
X107989761Y-89352380D02*
X107989761Y-88352380D01*
X107751666Y-88352380D01*
X107608809Y-88400000D01*
X107513571Y-88495238D01*
X107465952Y-88590476D01*
X107418333Y-88780952D01*
X107418333Y-88923809D01*
X107465952Y-89114285D01*
X107513571Y-89209523D01*
X107608809Y-89304761D01*
X107751666Y-89352380D01*
X107989761Y-89352380D01*
X162028095Y-111092380D02*
X162028095Y-110092380D01*
X161790000Y-110092380D01*
X161647142Y-110140000D01*
X161551904Y-110235238D01*
X161504285Y-110330476D01*
X161456666Y-110520952D01*
X161456666Y-110663809D01*
X161504285Y-110854285D01*
X161551904Y-110949523D01*
X161647142Y-111044761D01*
X161790000Y-111092380D01*
X162028095Y-111092380D01*
X160551904Y-110092380D02*
X161028095Y-110092380D01*
X161075714Y-110568571D01*
X161028095Y-110520952D01*
X160932857Y-110473333D01*
X160694761Y-110473333D01*
X160599523Y-110520952D01*
X160551904Y-110568571D01*
X160504285Y-110663809D01*
X160504285Y-110901904D01*
X160551904Y-110997142D01*
X160599523Y-111044761D01*
X160694761Y-111092380D01*
X160932857Y-111092380D01*
X161028095Y-111044761D01*
X161075714Y-110997142D01*
X157487857Y-109672380D02*
X157964047Y-109672380D01*
X157964047Y-108672380D01*
X157154523Y-109148571D02*
X156821190Y-109148571D01*
X156678333Y-109672380D02*
X157154523Y-109672380D01*
X157154523Y-108672380D01*
X156678333Y-108672380D01*
X156249761Y-109672380D02*
X156249761Y-108672380D01*
X156011666Y-108672380D01*
X155868809Y-108720000D01*
X155773571Y-108815238D01*
X155725952Y-108910476D01*
X155678333Y-109100952D01*
X155678333Y-109243809D01*
X155725952Y-109434285D01*
X155773571Y-109529523D01*
X155868809Y-109624761D01*
X156011666Y-109672380D01*
X156249761Y-109672380D01*
X162028095Y-90772380D02*
X162028095Y-89772380D01*
X161790000Y-89772380D01*
X161647142Y-89820000D01*
X161551904Y-89915238D01*
X161504285Y-90010476D01*
X161456666Y-90200952D01*
X161456666Y-90343809D01*
X161504285Y-90534285D01*
X161551904Y-90629523D01*
X161647142Y-90724761D01*
X161790000Y-90772380D01*
X162028095Y-90772380D01*
X160599523Y-89772380D02*
X160790000Y-89772380D01*
X160885238Y-89820000D01*
X160932857Y-89867619D01*
X161028095Y-90010476D01*
X161075714Y-90200952D01*
X161075714Y-90581904D01*
X161028095Y-90677142D01*
X160980476Y-90724761D01*
X160885238Y-90772380D01*
X160694761Y-90772380D01*
X160599523Y-90724761D01*
X160551904Y-90677142D01*
X160504285Y-90581904D01*
X160504285Y-90343809D01*
X160551904Y-90248571D01*
X160599523Y-90200952D01*
X160694761Y-90153333D01*
X160885238Y-90153333D01*
X160980476Y-90200952D01*
X161028095Y-90248571D01*
X161075714Y-90343809D01*
X157487857Y-89352380D02*
X157964047Y-89352380D01*
X157964047Y-88352380D01*
X157154523Y-88828571D02*
X156821190Y-88828571D01*
X156678333Y-89352380D02*
X157154523Y-89352380D01*
X157154523Y-88352380D01*
X156678333Y-88352380D01*
X156249761Y-89352380D02*
X156249761Y-88352380D01*
X156011666Y-88352380D01*
X155868809Y-88400000D01*
X155773571Y-88495238D01*
X155725952Y-88590476D01*
X155678333Y-88780952D01*
X155678333Y-88923809D01*
X155725952Y-89114285D01*
X155773571Y-89209523D01*
X155868809Y-89304761D01*
X156011666Y-89352380D01*
X156249761Y-89352380D01*
M02*
