G04 #@! TF.GenerationSoftware,KiCad,Pcbnew,(5.1.4)-1*
G04 #@! TF.CreationDate,2019-11-10T19:52:10+09:00*
G04 #@! TF.ProjectId,bf-012,62662d30-3132-42e6-9b69-6361645f7063,V01L01*
G04 #@! TF.SameCoordinates,Original*
G04 #@! TF.FileFunction,Legend,Bot*
G04 #@! TF.FilePolarity,Positive*
%FSLAX46Y46*%
G04 Gerber Fmt 4.6, Leading zero omitted, Abs format (unit mm)*
G04 Created by KiCad (PCBNEW (5.1.4)-1) date 2019-11-10 19:52:10*
%MOMM*%
%LPD*%
G04 APERTURE LIST*
%ADD10C,0.300000*%
%ADD11C,0.010000*%
G04 APERTURE END LIST*
D10*
X136646571Y-101903571D02*
X136646571Y-103403571D01*
X136646571Y-101975000D02*
X136503714Y-101903571D01*
X136218000Y-101903571D01*
X136075142Y-101975000D01*
X136003714Y-102046428D01*
X135932285Y-102189285D01*
X135932285Y-102617857D01*
X136003714Y-102760714D01*
X136075142Y-102832142D01*
X136218000Y-102903571D01*
X136503714Y-102903571D01*
X136646571Y-102832142D01*
X135432285Y-101903571D02*
X135146571Y-102903571D01*
X134860857Y-102189285D01*
X134575142Y-102903571D01*
X134289428Y-101903571D01*
X133718000Y-102903571D02*
X133718000Y-101903571D01*
X133718000Y-102046428D02*
X133646571Y-101975000D01*
X133503714Y-101903571D01*
X133289428Y-101903571D01*
X133146571Y-101975000D01*
X133075142Y-102117857D01*
X133075142Y-102903571D01*
X133075142Y-102117857D02*
X133003714Y-101975000D01*
X132860857Y-101903571D01*
X132646571Y-101903571D01*
X132503714Y-101975000D01*
X132432285Y-102117857D01*
X132432285Y-102903571D01*
X131003714Y-101403571D02*
X131718000Y-101403571D01*
X131789428Y-102117857D01*
X131718000Y-102046428D01*
X131575142Y-101975000D01*
X131218000Y-101975000D01*
X131075142Y-102046428D01*
X131003714Y-102117857D01*
X130932285Y-102260714D01*
X130932285Y-102617857D01*
X131003714Y-102760714D01*
X131075142Y-102832142D01*
X131218000Y-102903571D01*
X131575142Y-102903571D01*
X131718000Y-102832142D01*
X131789428Y-102760714D01*
X130218000Y-102903571D02*
X129932285Y-102903571D01*
X129789428Y-102832142D01*
X129718000Y-102760714D01*
X129575142Y-102546428D01*
X129503714Y-102260714D01*
X129503714Y-101689285D01*
X129575142Y-101546428D01*
X129646571Y-101475000D01*
X129789428Y-101403571D01*
X130075142Y-101403571D01*
X130218000Y-101475000D01*
X130289428Y-101546428D01*
X130360857Y-101689285D01*
X130360857Y-102046428D01*
X130289428Y-102189285D01*
X130218000Y-102260714D01*
X130075142Y-102332142D01*
X129789428Y-102332142D01*
X129646571Y-102260714D01*
X129575142Y-102189285D01*
X129503714Y-102046428D01*
X128218000Y-101903571D02*
X128218000Y-102903571D01*
X128575142Y-101332142D02*
X128932285Y-102403571D01*
X128003714Y-102403571D01*
X127146571Y-101403571D02*
X127003714Y-101403571D01*
X126860857Y-101475000D01*
X126789428Y-101546428D01*
X126718000Y-101689285D01*
X126646571Y-101975000D01*
X126646571Y-102332142D01*
X126718000Y-102617857D01*
X126789428Y-102760714D01*
X126860857Y-102832142D01*
X127003714Y-102903571D01*
X127146571Y-102903571D01*
X127289428Y-102832142D01*
X127360857Y-102760714D01*
X127432285Y-102617857D01*
X127503714Y-102332142D01*
X127503714Y-101975000D01*
X127432285Y-101689285D01*
X127360857Y-101546428D01*
X127289428Y-101475000D01*
X127146571Y-101403571D01*
X126003714Y-102903571D02*
X126003714Y-101903571D01*
X126003714Y-101403571D02*
X126075142Y-101475000D01*
X126003714Y-101546428D01*
X125932285Y-101475000D01*
X126003714Y-101403571D01*
X126003714Y-101546428D01*
X125503714Y-101903571D02*
X124932285Y-101903571D01*
X125289428Y-102903571D02*
X125289428Y-101617857D01*
X125218000Y-101475000D01*
X125075142Y-101403571D01*
X124932285Y-101403571D01*
X124432285Y-102332142D02*
X123289428Y-102332142D01*
X121932285Y-101903571D02*
X121932285Y-102903571D01*
X122575142Y-101903571D02*
X122575142Y-102689285D01*
X122503714Y-102832142D01*
X122360857Y-102903571D01*
X122146571Y-102903571D01*
X122003714Y-102832142D01*
X121932285Y-102760714D01*
X121218000Y-101903571D02*
X121218000Y-102903571D01*
X121218000Y-102046428D02*
X121146571Y-101975000D01*
X121003714Y-101903571D01*
X120789428Y-101903571D01*
X120646571Y-101975000D01*
X120575142Y-102117857D01*
X120575142Y-102903571D01*
X119646571Y-102903571D02*
X119789428Y-102832142D01*
X119860857Y-102760714D01*
X119932285Y-102617857D01*
X119932285Y-102189285D01*
X119860857Y-102046428D01*
X119789428Y-101975000D01*
X119646571Y-101903571D01*
X119432285Y-101903571D01*
X119289428Y-101975000D01*
X119218000Y-102046428D01*
X119146571Y-102189285D01*
X119146571Y-102617857D01*
X119218000Y-102760714D01*
X119289428Y-102832142D01*
X119432285Y-102903571D01*
X119646571Y-102903571D01*
X117360857Y-102903571D02*
X117360857Y-101903571D01*
X117360857Y-102046428D02*
X117289428Y-101975000D01*
X117146571Y-101903571D01*
X116932285Y-101903571D01*
X116789428Y-101975000D01*
X116718000Y-102117857D01*
X116718000Y-102903571D01*
X116718000Y-102117857D02*
X116646571Y-101975000D01*
X116503714Y-101903571D01*
X116289428Y-101903571D01*
X116146571Y-101975000D01*
X116075142Y-102117857D01*
X116075142Y-102903571D01*
X115360857Y-102903571D02*
X115360857Y-101903571D01*
X115360857Y-101403571D02*
X115432285Y-101475000D01*
X115360857Y-101546428D01*
X115289428Y-101475000D01*
X115360857Y-101403571D01*
X115360857Y-101546428D01*
X114646571Y-101903571D02*
X114646571Y-102903571D01*
X114646571Y-102046428D02*
X114575142Y-101975000D01*
X114432285Y-101903571D01*
X114218000Y-101903571D01*
X114075142Y-101975000D01*
X114003714Y-102117857D01*
X114003714Y-102903571D01*
X113289428Y-102903571D02*
X113289428Y-101903571D01*
X113289428Y-101403571D02*
X113360857Y-101475000D01*
X113289428Y-101546428D01*
X113218000Y-101475000D01*
X113289428Y-101403571D01*
X113289428Y-101546428D01*
X133253714Y-104667857D02*
X133039428Y-104739285D01*
X132968000Y-104810714D01*
X132896571Y-104953571D01*
X132896571Y-105167857D01*
X132968000Y-105310714D01*
X133039428Y-105382142D01*
X133182285Y-105453571D01*
X133753714Y-105453571D01*
X133753714Y-103953571D01*
X133253714Y-103953571D01*
X133110857Y-104025000D01*
X133039428Y-104096428D01*
X132968000Y-104239285D01*
X132968000Y-104382142D01*
X133039428Y-104525000D01*
X133110857Y-104596428D01*
X133253714Y-104667857D01*
X133753714Y-104667857D01*
X131753714Y-104667857D02*
X132253714Y-104667857D01*
X132253714Y-105453571D02*
X132253714Y-103953571D01*
X131539428Y-103953571D01*
X130968000Y-104882142D02*
X129825142Y-104882142D01*
X128825142Y-103953571D02*
X128682285Y-103953571D01*
X128539428Y-104025000D01*
X128468000Y-104096428D01*
X128396571Y-104239285D01*
X128325142Y-104525000D01*
X128325142Y-104882142D01*
X128396571Y-105167857D01*
X128468000Y-105310714D01*
X128539428Y-105382142D01*
X128682285Y-105453571D01*
X128825142Y-105453571D01*
X128968000Y-105382142D01*
X129039428Y-105310714D01*
X129110857Y-105167857D01*
X129182285Y-104882142D01*
X129182285Y-104525000D01*
X129110857Y-104239285D01*
X129039428Y-104096428D01*
X128968000Y-104025000D01*
X128825142Y-103953571D01*
X126896571Y-105453571D02*
X127753714Y-105453571D01*
X127325142Y-105453571D02*
X127325142Y-103953571D01*
X127468000Y-104167857D01*
X127610857Y-104310714D01*
X127753714Y-104382142D01*
X126325142Y-104096428D02*
X126253714Y-104025000D01*
X126110857Y-103953571D01*
X125753714Y-103953571D01*
X125610857Y-104025000D01*
X125539428Y-104096428D01*
X125468000Y-104239285D01*
X125468000Y-104382142D01*
X125539428Y-104596428D01*
X126396571Y-105453571D01*
X125468000Y-105453571D01*
X123896571Y-103953571D02*
X123396571Y-105453571D01*
X122896571Y-103953571D01*
X122110857Y-103953571D02*
X121968000Y-103953571D01*
X121825142Y-104025000D01*
X121753714Y-104096428D01*
X121682285Y-104239285D01*
X121610857Y-104525000D01*
X121610857Y-104882142D01*
X121682285Y-105167857D01*
X121753714Y-105310714D01*
X121825142Y-105382142D01*
X121968000Y-105453571D01*
X122110857Y-105453571D01*
X122253714Y-105382142D01*
X122325142Y-105310714D01*
X122396571Y-105167857D01*
X122468000Y-104882142D01*
X122468000Y-104525000D01*
X122396571Y-104239285D01*
X122325142Y-104096428D01*
X122253714Y-104025000D01*
X122110857Y-103953571D01*
X120182285Y-105453571D02*
X121039428Y-105453571D01*
X120610857Y-105453571D02*
X120610857Y-103953571D01*
X120753714Y-104167857D01*
X120896571Y-104310714D01*
X121039428Y-104382142D01*
X118825142Y-105453571D02*
X119539428Y-105453571D01*
X119539428Y-103953571D01*
X118039428Y-103953571D02*
X117896571Y-103953571D01*
X117753714Y-104025000D01*
X117682285Y-104096428D01*
X117610857Y-104239285D01*
X117539428Y-104525000D01*
X117539428Y-104882142D01*
X117610857Y-105167857D01*
X117682285Y-105310714D01*
X117753714Y-105382142D01*
X117896571Y-105453571D01*
X118039428Y-105453571D01*
X118182285Y-105382142D01*
X118253714Y-105310714D01*
X118325142Y-105167857D01*
X118396571Y-104882142D01*
X118396571Y-104525000D01*
X118325142Y-104239285D01*
X118253714Y-104096428D01*
X118182285Y-104025000D01*
X118039428Y-103953571D01*
X116110857Y-105453571D02*
X116968000Y-105453571D01*
X116539428Y-105453571D02*
X116539428Y-103953571D01*
X116682285Y-104167857D01*
X116825142Y-104310714D01*
X116968000Y-104382142D01*
X132468000Y-107860714D02*
X132539428Y-107932142D01*
X132753714Y-108003571D01*
X132896571Y-108003571D01*
X133110857Y-107932142D01*
X133253714Y-107789285D01*
X133325142Y-107646428D01*
X133396571Y-107360714D01*
X133396571Y-107146428D01*
X133325142Y-106860714D01*
X133253714Y-106717857D01*
X133110857Y-106575000D01*
X132896571Y-106503571D01*
X132753714Y-106503571D01*
X132539428Y-106575000D01*
X132468000Y-106646428D01*
X131610857Y-108003571D02*
X131753714Y-107932142D01*
X131825142Y-107860714D01*
X131896571Y-107717857D01*
X131896571Y-107289285D01*
X131825142Y-107146428D01*
X131753714Y-107075000D01*
X131610857Y-107003571D01*
X131396571Y-107003571D01*
X131253714Y-107075000D01*
X131182285Y-107146428D01*
X131110857Y-107289285D01*
X131110857Y-107717857D01*
X131182285Y-107860714D01*
X131253714Y-107932142D01*
X131396571Y-108003571D01*
X131610857Y-108003571D01*
X130468000Y-107003571D02*
X130468000Y-108503571D01*
X130468000Y-107075000D02*
X130325142Y-107003571D01*
X130039428Y-107003571D01*
X129896571Y-107075000D01*
X129825142Y-107146428D01*
X129753714Y-107289285D01*
X129753714Y-107717857D01*
X129825142Y-107860714D01*
X129896571Y-107932142D01*
X130039428Y-108003571D01*
X130325142Y-108003571D01*
X130468000Y-107932142D01*
X129253714Y-107003571D02*
X128896571Y-108003571D01*
X128539428Y-107003571D02*
X128896571Y-108003571D01*
X129039428Y-108360714D01*
X129110857Y-108432142D01*
X129253714Y-108503571D01*
X127968000Y-108003571D02*
X127968000Y-107003571D01*
X127968000Y-107289285D02*
X127896571Y-107146428D01*
X127825142Y-107075000D01*
X127682285Y-107003571D01*
X127539428Y-107003571D01*
X127039428Y-108003571D02*
X127039428Y-107003571D01*
X127039428Y-106503571D02*
X127110857Y-106575000D01*
X127039428Y-106646428D01*
X126968000Y-106575000D01*
X127039428Y-106503571D01*
X127039428Y-106646428D01*
X125682285Y-107003571D02*
X125682285Y-108217857D01*
X125753714Y-108360714D01*
X125825142Y-108432142D01*
X125968000Y-108503571D01*
X126182285Y-108503571D01*
X126325142Y-108432142D01*
X125682285Y-107932142D02*
X125825142Y-108003571D01*
X126110857Y-108003571D01*
X126253714Y-107932142D01*
X126325142Y-107860714D01*
X126396571Y-107717857D01*
X126396571Y-107289285D01*
X126325142Y-107146428D01*
X126253714Y-107075000D01*
X126110857Y-107003571D01*
X125825142Y-107003571D01*
X125682285Y-107075000D01*
X124968000Y-108003571D02*
X124968000Y-106503571D01*
X124325142Y-108003571D02*
X124325142Y-107217857D01*
X124396571Y-107075000D01*
X124539428Y-107003571D01*
X124753714Y-107003571D01*
X124896571Y-107075000D01*
X124968000Y-107146428D01*
X123825142Y-107003571D02*
X123253714Y-107003571D01*
X123610857Y-106503571D02*
X123610857Y-107789285D01*
X123539428Y-107932142D01*
X123396571Y-108003571D01*
X123253714Y-108003571D01*
X121682285Y-106646428D02*
X121610857Y-106575000D01*
X121468000Y-106503571D01*
X121110857Y-106503571D01*
X120968000Y-106575000D01*
X120896571Y-106646428D01*
X120825142Y-106789285D01*
X120825142Y-106932142D01*
X120896571Y-107146428D01*
X121753714Y-108003571D01*
X120825142Y-108003571D01*
X119896571Y-106503571D02*
X119753714Y-106503571D01*
X119610857Y-106575000D01*
X119539428Y-106646428D01*
X119468000Y-106789285D01*
X119396571Y-107075000D01*
X119396571Y-107432142D01*
X119468000Y-107717857D01*
X119539428Y-107860714D01*
X119610857Y-107932142D01*
X119753714Y-108003571D01*
X119896571Y-108003571D01*
X120039428Y-107932142D01*
X120110857Y-107860714D01*
X120182285Y-107717857D01*
X120253714Y-107432142D01*
X120253714Y-107075000D01*
X120182285Y-106789285D01*
X120110857Y-106646428D01*
X120039428Y-106575000D01*
X119896571Y-106503571D01*
X117968000Y-108003571D02*
X118825142Y-108003571D01*
X118396571Y-108003571D02*
X118396571Y-106503571D01*
X118539428Y-106717857D01*
X118682285Y-106860714D01*
X118825142Y-106932142D01*
X117253714Y-108003571D02*
X116968000Y-108003571D01*
X116825142Y-107932142D01*
X116753714Y-107860714D01*
X116610857Y-107646428D01*
X116539428Y-107360714D01*
X116539428Y-106789285D01*
X116610857Y-106646428D01*
X116682285Y-106575000D01*
X116825142Y-106503571D01*
X117110857Y-106503571D01*
X117253714Y-106575000D01*
X117325142Y-106646428D01*
X117396571Y-106789285D01*
X117396571Y-107146428D01*
X117325142Y-107289285D01*
X117253714Y-107360714D01*
X117110857Y-107432142D01*
X116825142Y-107432142D01*
X116682285Y-107360714D01*
X116610857Y-107289285D01*
X116539428Y-107146428D01*
D11*
G36*
X125233773Y-110482041D02*
G01*
X125209018Y-110519288D01*
X125206125Y-110569375D01*
X125215802Y-110638996D01*
X125256945Y-110668395D01*
X125293619Y-110674688D01*
X125371296Y-110666208D01*
X125399491Y-110636855D01*
X125412099Y-110547337D01*
X125373229Y-110490857D01*
X125300941Y-110474125D01*
X125233773Y-110482041D01*
X125233773Y-110482041D01*
G37*
X125233773Y-110482041D02*
X125209018Y-110519288D01*
X125206125Y-110569375D01*
X125215802Y-110638996D01*
X125256945Y-110668395D01*
X125293619Y-110674688D01*
X125371296Y-110666208D01*
X125399491Y-110636855D01*
X125412099Y-110547337D01*
X125373229Y-110490857D01*
X125300941Y-110474125D01*
X125233773Y-110482041D01*
G36*
X128027773Y-110482041D02*
G01*
X128003018Y-110519288D01*
X128000125Y-110569375D01*
X128009802Y-110638996D01*
X128050945Y-110668395D01*
X128087619Y-110674688D01*
X128165296Y-110666208D01*
X128193491Y-110636855D01*
X128206099Y-110547337D01*
X128167229Y-110490857D01*
X128094941Y-110474125D01*
X128027773Y-110482041D01*
X128027773Y-110482041D01*
G37*
X128027773Y-110482041D02*
X128003018Y-110519288D01*
X128000125Y-110569375D01*
X128009802Y-110638996D01*
X128050945Y-110668395D01*
X128087619Y-110674688D01*
X128165296Y-110666208D01*
X128193491Y-110636855D01*
X128206099Y-110547337D01*
X128167229Y-110490857D01*
X128094941Y-110474125D01*
X128027773Y-110482041D01*
G36*
X115866845Y-111667800D02*
G01*
X115834513Y-111688471D01*
X115824686Y-111744045D01*
X115824000Y-111807625D01*
X115826373Y-111895413D01*
X115842450Y-111936984D01*
X115885674Y-111949618D01*
X115935125Y-111950500D01*
X116003406Y-111947449D01*
X116035738Y-111926778D01*
X116045565Y-111871204D01*
X116046250Y-111807625D01*
X116043878Y-111719836D01*
X116027801Y-111678265D01*
X115984577Y-111665631D01*
X115935125Y-111664750D01*
X115866845Y-111667800D01*
X115866845Y-111667800D01*
G37*
X115866845Y-111667800D02*
X115834513Y-111688471D01*
X115824686Y-111744045D01*
X115824000Y-111807625D01*
X115826373Y-111895413D01*
X115842450Y-111936984D01*
X115885674Y-111949618D01*
X115935125Y-111950500D01*
X116003406Y-111947449D01*
X116035738Y-111926778D01*
X116045565Y-111871204D01*
X116046250Y-111807625D01*
X116043878Y-111719836D01*
X116027801Y-111678265D01*
X115984577Y-111665631D01*
X115935125Y-111664750D01*
X115866845Y-111667800D01*
G36*
X117745416Y-110860450D02*
G01*
X117677235Y-110908333D01*
X117623091Y-110977794D01*
X117584308Y-111068016D01*
X117558809Y-111189310D01*
X117544518Y-111351988D01*
X117539357Y-111566362D01*
X117539258Y-111593312D01*
X117538500Y-111950500D01*
X117723954Y-111950500D01*
X117734415Y-111540980D01*
X117740099Y-111366707D01*
X117747896Y-111244157D01*
X117759560Y-111161556D01*
X117776845Y-111107129D01*
X117801505Y-111069100D01*
X117805359Y-111064730D01*
X117887796Y-111010094D01*
X117995173Y-111005389D01*
X118134044Y-111050608D01*
X118163476Y-111064332D01*
X118300500Y-111130664D01*
X118300500Y-111950500D01*
X118492500Y-111950500D01*
X118483813Y-111402812D01*
X118475125Y-110855125D01*
X118387813Y-110845078D01*
X118323560Y-110847058D01*
X118301519Y-110881476D01*
X118300500Y-110900641D01*
X118297870Y-110946694D01*
X118280876Y-110961064D01*
X118235861Y-110943451D01*
X118155787Y-110897458D01*
X118014244Y-110840306D01*
X117871628Y-110828103D01*
X117745416Y-110860450D01*
X117745416Y-110860450D01*
G37*
X117745416Y-110860450D02*
X117677235Y-110908333D01*
X117623091Y-110977794D01*
X117584308Y-111068016D01*
X117558809Y-111189310D01*
X117544518Y-111351988D01*
X117539357Y-111566362D01*
X117539258Y-111593312D01*
X117538500Y-111950500D01*
X117723954Y-111950500D01*
X117734415Y-111540980D01*
X117740099Y-111366707D01*
X117747896Y-111244157D01*
X117759560Y-111161556D01*
X117776845Y-111107129D01*
X117801505Y-111069100D01*
X117805359Y-111064730D01*
X117887796Y-111010094D01*
X117995173Y-111005389D01*
X118134044Y-111050608D01*
X118163476Y-111064332D01*
X118300500Y-111130664D01*
X118300500Y-111950500D01*
X118492500Y-111950500D01*
X118483813Y-111402812D01*
X118475125Y-110855125D01*
X118387813Y-110845078D01*
X118323560Y-110847058D01*
X118301519Y-110881476D01*
X118300500Y-110900641D01*
X118297870Y-110946694D01*
X118280876Y-110961064D01*
X118235861Y-110943451D01*
X118155787Y-110897458D01*
X118014244Y-110840306D01*
X117871628Y-110828103D01*
X117745416Y-110860450D01*
G36*
X118927232Y-110490632D02*
G01*
X118843243Y-110494790D01*
X118798315Y-110505871D01*
X118780229Y-110527266D01*
X118776764Y-110562372D01*
X118776750Y-110569375D01*
X118787002Y-110626102D01*
X118830580Y-110646854D01*
X118872000Y-110648750D01*
X118967250Y-110648750D01*
X118967250Y-111791750D01*
X118872000Y-111791750D01*
X118803928Y-111800292D01*
X118779025Y-111836607D01*
X118776750Y-111871125D01*
X118779026Y-111908699D01*
X118793998Y-111932029D01*
X118833887Y-111944509D01*
X118910911Y-111949533D01*
X119037292Y-111950496D01*
X119062500Y-111950500D01*
X119197769Y-111949867D01*
X119281758Y-111945709D01*
X119326686Y-111934628D01*
X119344772Y-111913233D01*
X119348237Y-111878127D01*
X119348250Y-111871125D01*
X119337999Y-111814397D01*
X119294421Y-111793645D01*
X119253000Y-111791750D01*
X119157750Y-111791750D01*
X119157750Y-110648750D01*
X119253000Y-110648750D01*
X119321073Y-110640207D01*
X119345976Y-110603892D01*
X119348250Y-110569375D01*
X119345975Y-110531800D01*
X119331003Y-110508470D01*
X119291114Y-110495990D01*
X119214090Y-110490966D01*
X119087709Y-110490003D01*
X119062500Y-110490000D01*
X118927232Y-110490632D01*
X118927232Y-110490632D01*
G37*
X118927232Y-110490632D02*
X118843243Y-110494790D01*
X118798315Y-110505871D01*
X118780229Y-110527266D01*
X118776764Y-110562372D01*
X118776750Y-110569375D01*
X118787002Y-110626102D01*
X118830580Y-110646854D01*
X118872000Y-110648750D01*
X118967250Y-110648750D01*
X118967250Y-111791750D01*
X118872000Y-111791750D01*
X118803928Y-111800292D01*
X118779025Y-111836607D01*
X118776750Y-111871125D01*
X118779026Y-111908699D01*
X118793998Y-111932029D01*
X118833887Y-111944509D01*
X118910911Y-111949533D01*
X119037292Y-111950496D01*
X119062500Y-111950500D01*
X119197769Y-111949867D01*
X119281758Y-111945709D01*
X119326686Y-111934628D01*
X119344772Y-111913233D01*
X119348237Y-111878127D01*
X119348250Y-111871125D01*
X119337999Y-111814397D01*
X119294421Y-111793645D01*
X119253000Y-111791750D01*
X119157750Y-111791750D01*
X119157750Y-110648750D01*
X119253000Y-110648750D01*
X119321073Y-110640207D01*
X119345976Y-110603892D01*
X119348250Y-110569375D01*
X119345975Y-110531800D01*
X119331003Y-110508470D01*
X119291114Y-110495990D01*
X119214090Y-110490966D01*
X119087709Y-110490003D01*
X119062500Y-110490000D01*
X118927232Y-110490632D01*
G36*
X123412250Y-111950500D02*
G01*
X123602750Y-111950500D01*
X123602750Y-110426500D01*
X123412250Y-110426500D01*
X123412250Y-111950500D01*
X123412250Y-111950500D01*
G37*
X123412250Y-111950500D02*
X123602750Y-111950500D01*
X123602750Y-110426500D01*
X123412250Y-110426500D01*
X123412250Y-111950500D01*
G36*
X125293438Y-110845078D02*
G01*
X125206125Y-110855125D01*
X125197438Y-111402812D01*
X125188751Y-111950500D01*
X125380750Y-111950500D01*
X125380750Y-110835032D01*
X125293438Y-110845078D01*
X125293438Y-110845078D01*
G37*
X125293438Y-110845078D02*
X125206125Y-110855125D01*
X125197438Y-111402812D01*
X125188751Y-111950500D01*
X125380750Y-111950500D01*
X125380750Y-110835032D01*
X125293438Y-110845078D01*
G36*
X125603000Y-110648750D02*
G01*
X126365000Y-110648750D01*
X126365000Y-111061500D01*
X125730000Y-111061500D01*
X125730000Y-111252000D01*
X126365000Y-111252000D01*
X126365000Y-111950500D01*
X126555500Y-111950500D01*
X126555500Y-110490000D01*
X125603000Y-110490000D01*
X125603000Y-110648750D01*
X125603000Y-110648750D01*
G37*
X125603000Y-110648750D02*
X126365000Y-110648750D01*
X126365000Y-111061500D01*
X125730000Y-111061500D01*
X125730000Y-111252000D01*
X126365000Y-111252000D01*
X126365000Y-111950500D01*
X126555500Y-111950500D01*
X126555500Y-110490000D01*
X125603000Y-110490000D01*
X125603000Y-110648750D01*
G36*
X128087438Y-110845078D02*
G01*
X128000125Y-110855125D01*
X127991438Y-111402812D01*
X127982751Y-111950500D01*
X128174750Y-111950500D01*
X128174750Y-110835032D01*
X128087438Y-110845078D01*
X128087438Y-110845078D01*
G37*
X128087438Y-110845078D02*
X128000125Y-110855125D01*
X127991438Y-111402812D01*
X127982751Y-111950500D01*
X128174750Y-111950500D01*
X128174750Y-110835032D01*
X128087438Y-110845078D01*
G36*
X128762666Y-110860450D02*
G01*
X128694485Y-110908333D01*
X128640341Y-110977794D01*
X128601558Y-111068016D01*
X128576059Y-111189310D01*
X128561768Y-111351988D01*
X128556607Y-111566362D01*
X128556508Y-111593312D01*
X128555750Y-111950500D01*
X128741204Y-111950500D01*
X128751665Y-111540980D01*
X128757349Y-111366707D01*
X128765146Y-111244157D01*
X128776810Y-111161556D01*
X128794095Y-111107129D01*
X128818755Y-111069100D01*
X128822609Y-111064730D01*
X128905046Y-111010094D01*
X129012423Y-111005389D01*
X129151294Y-111050608D01*
X129180726Y-111064332D01*
X129317750Y-111130664D01*
X129317750Y-111950500D01*
X129509750Y-111950500D01*
X129501063Y-111402812D01*
X129492375Y-110855125D01*
X129405063Y-110845078D01*
X129340810Y-110847058D01*
X129318769Y-110881476D01*
X129317750Y-110900641D01*
X129315120Y-110946694D01*
X129298126Y-110961064D01*
X129253111Y-110943451D01*
X129173037Y-110897458D01*
X129031494Y-110840306D01*
X128888878Y-110828103D01*
X128762666Y-110860450D01*
X128762666Y-110860450D01*
G37*
X128762666Y-110860450D02*
X128694485Y-110908333D01*
X128640341Y-110977794D01*
X128601558Y-111068016D01*
X128576059Y-111189310D01*
X128561768Y-111351988D01*
X128556607Y-111566362D01*
X128556508Y-111593312D01*
X128555750Y-111950500D01*
X128741204Y-111950500D01*
X128751665Y-111540980D01*
X128757349Y-111366707D01*
X128765146Y-111244157D01*
X128776810Y-111161556D01*
X128794095Y-111107129D01*
X128818755Y-111069100D01*
X128822609Y-111064730D01*
X128905046Y-111010094D01*
X129012423Y-111005389D01*
X129151294Y-111050608D01*
X129180726Y-111064332D01*
X129317750Y-111130664D01*
X129317750Y-111950500D01*
X129509750Y-111950500D01*
X129501063Y-111402812D01*
X129492375Y-110855125D01*
X129405063Y-110845078D01*
X129340810Y-110847058D01*
X129318769Y-110881476D01*
X129317750Y-110900641D01*
X129315120Y-110946694D01*
X129298126Y-110961064D01*
X129253111Y-110943451D01*
X129173037Y-110897458D01*
X129031494Y-110840306D01*
X128888878Y-110828103D01*
X128762666Y-110860450D01*
G36*
X133549041Y-110495768D02*
G01*
X133392417Y-110514794D01*
X133281092Y-110549655D01*
X133206417Y-110602932D01*
X133163900Y-110667649D01*
X133127881Y-110809139D01*
X133152679Y-110937540D01*
X133217365Y-111028999D01*
X133306980Y-111118613D01*
X133202925Y-111168233D01*
X133097780Y-111250567D01*
X133030716Y-111368633D01*
X133004594Y-111505327D01*
X133022276Y-111643545D01*
X133086622Y-111766182D01*
X133100261Y-111781943D01*
X133175584Y-111850540D01*
X133262329Y-111898422D01*
X133373008Y-111928855D01*
X133520132Y-111945104D01*
X133716211Y-111950438D01*
X133745856Y-111950500D01*
X134112000Y-111950500D01*
X134112000Y-111252000D01*
X133921500Y-111252000D01*
X133921500Y-111791750D01*
X133698231Y-111791750D01*
X133565703Y-111785003D01*
X133442903Y-111767376D01*
X133364654Y-111745660D01*
X133261002Y-111672966D01*
X133209907Y-111566416D01*
X133212161Y-111441133D01*
X133247674Y-111357683D01*
X133320120Y-111300529D01*
X133436937Y-111266569D01*
X133605563Y-111252704D01*
X133665924Y-111252000D01*
X133921500Y-111252000D01*
X134112000Y-111252000D01*
X134112000Y-111061500D01*
X133921500Y-111061500D01*
X133689444Y-111061500D01*
X133548945Y-111055370D01*
X133445170Y-111038426D01*
X133400727Y-111020068D01*
X133360815Y-110958705D01*
X133341511Y-110866427D01*
X133345296Y-110772616D01*
X133374289Y-110707011D01*
X133421800Y-110687923D01*
X133514774Y-110670330D01*
X133635201Y-110657419D01*
X133666334Y-110655362D01*
X133921500Y-110640591D01*
X133921500Y-111061500D01*
X134112000Y-111061500D01*
X134112000Y-110490000D01*
X133759611Y-110489999D01*
X133549041Y-110495768D01*
X133549041Y-110495768D01*
G37*
X133549041Y-110495768D02*
X133392417Y-110514794D01*
X133281092Y-110549655D01*
X133206417Y-110602932D01*
X133163900Y-110667649D01*
X133127881Y-110809139D01*
X133152679Y-110937540D01*
X133217365Y-111028999D01*
X133306980Y-111118613D01*
X133202925Y-111168233D01*
X133097780Y-111250567D01*
X133030716Y-111368633D01*
X133004594Y-111505327D01*
X133022276Y-111643545D01*
X133086622Y-111766182D01*
X133100261Y-111781943D01*
X133175584Y-111850540D01*
X133262329Y-111898422D01*
X133373008Y-111928855D01*
X133520132Y-111945104D01*
X133716211Y-111950438D01*
X133745856Y-111950500D01*
X134112000Y-111950500D01*
X134112000Y-111252000D01*
X133921500Y-111252000D01*
X133921500Y-111791750D01*
X133698231Y-111791750D01*
X133565703Y-111785003D01*
X133442903Y-111767376D01*
X133364654Y-111745660D01*
X133261002Y-111672966D01*
X133209907Y-111566416D01*
X133212161Y-111441133D01*
X133247674Y-111357683D01*
X133320120Y-111300529D01*
X133436937Y-111266569D01*
X133605563Y-111252704D01*
X133665924Y-111252000D01*
X133921500Y-111252000D01*
X134112000Y-111252000D01*
X134112000Y-111061500D01*
X133921500Y-111061500D01*
X133689444Y-111061500D01*
X133548945Y-111055370D01*
X133445170Y-111038426D01*
X133400727Y-111020068D01*
X133360815Y-110958705D01*
X133341511Y-110866427D01*
X133345296Y-110772616D01*
X133374289Y-110707011D01*
X133421800Y-110687923D01*
X133514774Y-110670330D01*
X133635201Y-110657419D01*
X133666334Y-110655362D01*
X133921500Y-110640591D01*
X133921500Y-111061500D01*
X134112000Y-111061500D01*
X134112000Y-110490000D01*
X133759611Y-110489999D01*
X133549041Y-110495768D01*
G36*
X116496702Y-110864305D02*
G01*
X116478434Y-110869825D01*
X116402039Y-110902277D01*
X116369885Y-110945726D01*
X116363750Y-111012914D01*
X116363750Y-111118154D01*
X116481589Y-111058077D01*
X116641793Y-111004054D01*
X116785878Y-111007086D01*
X116906303Y-111061310D01*
X116995531Y-111160864D01*
X117046020Y-111299885D01*
X117050231Y-111472510D01*
X117046904Y-111497667D01*
X116999679Y-111652356D01*
X116914781Y-111757528D01*
X116796990Y-111810887D01*
X116651087Y-111810139D01*
X116498688Y-111760855D01*
X116363750Y-111699604D01*
X116363750Y-111794922D01*
X116374965Y-111865010D01*
X116420226Y-111910377D01*
X116473856Y-111936245D01*
X116622031Y-111973358D01*
X116785873Y-111976327D01*
X116933169Y-111945052D01*
X116951125Y-111937720D01*
X117083511Y-111846771D01*
X117179886Y-111714528D01*
X117236442Y-111554427D01*
X117249371Y-111379904D01*
X117214865Y-111204393D01*
X117181313Y-111125648D01*
X117119973Y-111027561D01*
X117049661Y-110945230D01*
X117023880Y-110923205D01*
X116920760Y-110876353D01*
X116781733Y-110849276D01*
X116631984Y-110844439D01*
X116496702Y-110864305D01*
X116496702Y-110864305D01*
G37*
X116496702Y-110864305D02*
X116478434Y-110869825D01*
X116402039Y-110902277D01*
X116369885Y-110945726D01*
X116363750Y-111012914D01*
X116363750Y-111118154D01*
X116481589Y-111058077D01*
X116641793Y-111004054D01*
X116785878Y-111007086D01*
X116906303Y-111061310D01*
X116995531Y-111160864D01*
X117046020Y-111299885D01*
X117050231Y-111472510D01*
X117046904Y-111497667D01*
X116999679Y-111652356D01*
X116914781Y-111757528D01*
X116796990Y-111810887D01*
X116651087Y-111810139D01*
X116498688Y-111760855D01*
X116363750Y-111699604D01*
X116363750Y-111794922D01*
X116374965Y-111865010D01*
X116420226Y-111910377D01*
X116473856Y-111936245D01*
X116622031Y-111973358D01*
X116785873Y-111976327D01*
X116933169Y-111945052D01*
X116951125Y-111937720D01*
X117083511Y-111846771D01*
X117179886Y-111714528D01*
X117236442Y-111554427D01*
X117249371Y-111379904D01*
X117214865Y-111204393D01*
X117181313Y-111125648D01*
X117119973Y-111027561D01*
X117049661Y-110945230D01*
X117023880Y-110923205D01*
X116920760Y-110876353D01*
X116781733Y-110849276D01*
X116631984Y-110844439D01*
X116496702Y-110864305D01*
G36*
X121290592Y-110842883D02*
G01*
X121173875Y-110864283D01*
X121102943Y-110897826D01*
X121073132Y-110959833D01*
X121068676Y-110992155D01*
X121067842Y-111064605D01*
X121091965Y-111087769D01*
X121151852Y-111066420D01*
X121189750Y-111045625D01*
X121268293Y-111018695D01*
X121377567Y-111001837D01*
X121434013Y-110999125D01*
X121539896Y-111003783D01*
X121603920Y-111024094D01*
X121647101Y-111066822D01*
X121647905Y-111067964D01*
X121679382Y-111128940D01*
X121666885Y-111181723D01*
X121653834Y-111202806D01*
X121591475Y-111258749D01*
X121519317Y-111291056D01*
X121426591Y-111314488D01*
X121317062Y-111341822D01*
X121299511Y-111346168D01*
X121158129Y-111400138D01*
X121071196Y-111481665D01*
X121033516Y-111596525D01*
X121031000Y-111644577D01*
X121051094Y-111766335D01*
X121117122Y-111861943D01*
X121237705Y-111943666D01*
X121243226Y-111946532D01*
X121331293Y-111970444D01*
X121456610Y-111979192D01*
X121594832Y-111973046D01*
X121721615Y-111952277D01*
X121761250Y-111940770D01*
X121838935Y-111904245D01*
X121873600Y-111851282D01*
X121882325Y-111799687D01*
X121885223Y-111729612D01*
X121878978Y-111696830D01*
X121877854Y-111696500D01*
X121842961Y-111708498D01*
X121770588Y-111738983D01*
X121725030Y-111759302D01*
X121589262Y-111803959D01*
X121451999Y-111821024D01*
X121334188Y-111809435D01*
X121272470Y-111782246D01*
X121228621Y-111712331D01*
X121226714Y-111647309D01*
X121236862Y-111597459D01*
X121262772Y-111563719D01*
X121318427Y-111537137D01*
X121417812Y-111508762D01*
X121459625Y-111498218D01*
X121582871Y-111462161D01*
X121690979Y-111421242D01*
X121759541Y-111384942D01*
X121837451Y-111292052D01*
X121866372Y-111178193D01*
X121848396Y-111060124D01*
X121785609Y-110954606D01*
X121697443Y-110886715D01*
X121587556Y-110852566D01*
X121443151Y-110837578D01*
X121290592Y-110842883D01*
X121290592Y-110842883D01*
G37*
X121290592Y-110842883D02*
X121173875Y-110864283D01*
X121102943Y-110897826D01*
X121073132Y-110959833D01*
X121068676Y-110992155D01*
X121067842Y-111064605D01*
X121091965Y-111087769D01*
X121151852Y-111066420D01*
X121189750Y-111045625D01*
X121268293Y-111018695D01*
X121377567Y-111001837D01*
X121434013Y-110999125D01*
X121539896Y-111003783D01*
X121603920Y-111024094D01*
X121647101Y-111066822D01*
X121647905Y-111067964D01*
X121679382Y-111128940D01*
X121666885Y-111181723D01*
X121653834Y-111202806D01*
X121591475Y-111258749D01*
X121519317Y-111291056D01*
X121426591Y-111314488D01*
X121317062Y-111341822D01*
X121299511Y-111346168D01*
X121158129Y-111400138D01*
X121071196Y-111481665D01*
X121033516Y-111596525D01*
X121031000Y-111644577D01*
X121051094Y-111766335D01*
X121117122Y-111861943D01*
X121237705Y-111943666D01*
X121243226Y-111946532D01*
X121331293Y-111970444D01*
X121456610Y-111979192D01*
X121594832Y-111973046D01*
X121721615Y-111952277D01*
X121761250Y-111940770D01*
X121838935Y-111904245D01*
X121873600Y-111851282D01*
X121882325Y-111799687D01*
X121885223Y-111729612D01*
X121878978Y-111696830D01*
X121877854Y-111696500D01*
X121842961Y-111708498D01*
X121770588Y-111738983D01*
X121725030Y-111759302D01*
X121589262Y-111803959D01*
X121451999Y-111821024D01*
X121334188Y-111809435D01*
X121272470Y-111782246D01*
X121228621Y-111712331D01*
X121226714Y-111647309D01*
X121236862Y-111597459D01*
X121262772Y-111563719D01*
X121318427Y-111537137D01*
X121417812Y-111508762D01*
X121459625Y-111498218D01*
X121582871Y-111462161D01*
X121690979Y-111421242D01*
X121759541Y-111384942D01*
X121837451Y-111292052D01*
X121866372Y-111178193D01*
X121848396Y-111060124D01*
X121785609Y-110954606D01*
X121697443Y-110886715D01*
X121587556Y-110852566D01*
X121443151Y-110837578D01*
X121290592Y-110842883D01*
G36*
X122174000Y-111950500D02*
G01*
X122269250Y-111950500D01*
X122342799Y-111937224D01*
X122364500Y-111906297D01*
X122376206Y-111883718D01*
X122419506Y-111892653D01*
X122482339Y-111922172D01*
X122593766Y-111961517D01*
X122717607Y-111981589D01*
X122739514Y-111982250D01*
X122841051Y-111972870D01*
X122918640Y-111935322D01*
X122983528Y-111877572D01*
X123082526Y-111740423D01*
X123138205Y-111580162D01*
X123147764Y-111469490D01*
X122953512Y-111469490D01*
X122928985Y-111612944D01*
X122881005Y-111728784D01*
X122866057Y-111750156D01*
X122793183Y-111794706D01*
X122683697Y-111804507D01*
X122553841Y-111780002D01*
X122451813Y-111738853D01*
X122412165Y-111716642D01*
X122386810Y-111689409D01*
X122372553Y-111643930D01*
X122366200Y-111566980D01*
X122364555Y-111445336D01*
X122364500Y-111377398D01*
X122365155Y-111232934D01*
X122369105Y-111139216D01*
X122379333Y-111083490D01*
X122398818Y-111053002D01*
X122430542Y-111035000D01*
X122445942Y-111028964D01*
X122604160Y-110996128D01*
X122741668Y-111021028D01*
X122851074Y-111099311D01*
X122924986Y-111226623D01*
X122949311Y-111325337D01*
X122953512Y-111469490D01*
X123147764Y-111469490D01*
X123152973Y-111409189D01*
X123129237Y-111239904D01*
X123069404Y-111084708D01*
X122975882Y-110956002D01*
X122851077Y-110866184D01*
X122782288Y-110840929D01*
X122663511Y-110827815D01*
X122531835Y-110839955D01*
X122420314Y-110873575D01*
X122399995Y-110884560D01*
X122380431Y-110874196D01*
X122368873Y-110810577D01*
X122364567Y-110689075D01*
X122364500Y-110666498D01*
X122364500Y-110426500D01*
X122174000Y-110426500D01*
X122174000Y-111950500D01*
X122174000Y-111950500D01*
G37*
X122174000Y-111950500D02*
X122269250Y-111950500D01*
X122342799Y-111937224D01*
X122364500Y-111906297D01*
X122376206Y-111883718D01*
X122419506Y-111892653D01*
X122482339Y-111922172D01*
X122593766Y-111961517D01*
X122717607Y-111981589D01*
X122739514Y-111982250D01*
X122841051Y-111972870D01*
X122918640Y-111935322D01*
X122983528Y-111877572D01*
X123082526Y-111740423D01*
X123138205Y-111580162D01*
X123147764Y-111469490D01*
X122953512Y-111469490D01*
X122928985Y-111612944D01*
X122881005Y-111728784D01*
X122866057Y-111750156D01*
X122793183Y-111794706D01*
X122683697Y-111804507D01*
X122553841Y-111780002D01*
X122451813Y-111738853D01*
X122412165Y-111716642D01*
X122386810Y-111689409D01*
X122372553Y-111643930D01*
X122366200Y-111566980D01*
X122364555Y-111445336D01*
X122364500Y-111377398D01*
X122365155Y-111232934D01*
X122369105Y-111139216D01*
X122379333Y-111083490D01*
X122398818Y-111053002D01*
X122430542Y-111035000D01*
X122445942Y-111028964D01*
X122604160Y-110996128D01*
X122741668Y-111021028D01*
X122851074Y-111099311D01*
X122924986Y-111226623D01*
X122949311Y-111325337D01*
X122953512Y-111469490D01*
X123147764Y-111469490D01*
X123152973Y-111409189D01*
X123129237Y-111239904D01*
X123069404Y-111084708D01*
X122975882Y-110956002D01*
X122851077Y-110866184D01*
X122782288Y-110840929D01*
X122663511Y-110827815D01*
X122531835Y-110839955D01*
X122420314Y-110873575D01*
X122399995Y-110884560D01*
X122380431Y-110874196D01*
X122368873Y-110810577D01*
X122364567Y-110689075D01*
X122364500Y-110666498D01*
X122364500Y-110426500D01*
X122174000Y-110426500D01*
X122174000Y-111950500D01*
G36*
X124231442Y-110840066D02*
G01*
X124089695Y-110900410D01*
X124029932Y-110948931D01*
X123967604Y-111041154D01*
X123918779Y-111165878D01*
X123893699Y-111292187D01*
X123894552Y-111357646D01*
X123901729Y-111386098D01*
X123920715Y-111405753D01*
X123962013Y-111418584D01*
X124036124Y-111426563D01*
X124153549Y-111431661D01*
X124309188Y-111435511D01*
X124461143Y-111440763D01*
X124587083Y-111448765D01*
X124675104Y-111458491D01*
X124713304Y-111468912D01*
X124714000Y-111470460D01*
X124704369Y-111516193D01*
X124681071Y-111590969D01*
X124679875Y-111594417D01*
X124610680Y-111703701D01*
X124499376Y-111777923D01*
X124359026Y-111813461D01*
X124202690Y-111806696D01*
X124066067Y-111764572D01*
X123916365Y-111698352D01*
X123926245Y-111797983D01*
X123945495Y-111871702D01*
X123997381Y-111916694D01*
X124047250Y-111937516D01*
X124234704Y-111976833D01*
X124429587Y-111969737D01*
X124606362Y-111917420D01*
X124619961Y-111910812D01*
X124749500Y-111812644D01*
X124840050Y-111677194D01*
X124890513Y-111518136D01*
X124899789Y-111349144D01*
X124881970Y-111259937D01*
X124713882Y-111259937D01*
X124684428Y-111269932D01*
X124604916Y-111277862D01*
X124488777Y-111282718D01*
X124396500Y-111283750D01*
X124251589Y-111282739D01*
X124158774Y-111278291D01*
X124106665Y-111268280D01*
X124083873Y-111250584D01*
X124079000Y-111224531D01*
X124105560Y-111139385D01*
X124171435Y-111056711D01*
X124255923Y-110999712D01*
X124288606Y-110989611D01*
X124427650Y-110990036D01*
X124554111Y-111038744D01*
X124647342Y-111127482D01*
X124652033Y-111134885D01*
X124692469Y-111207002D01*
X124713177Y-111255267D01*
X124713882Y-111259937D01*
X124881970Y-111259937D01*
X124866779Y-111183894D01*
X124790385Y-111036059D01*
X124697969Y-110940049D01*
X124552370Y-110859663D01*
X124391264Y-110826410D01*
X124231442Y-110840066D01*
X124231442Y-110840066D01*
G37*
X124231442Y-110840066D02*
X124089695Y-110900410D01*
X124029932Y-110948931D01*
X123967604Y-111041154D01*
X123918779Y-111165878D01*
X123893699Y-111292187D01*
X123894552Y-111357646D01*
X123901729Y-111386098D01*
X123920715Y-111405753D01*
X123962013Y-111418584D01*
X124036124Y-111426563D01*
X124153549Y-111431661D01*
X124309188Y-111435511D01*
X124461143Y-111440763D01*
X124587083Y-111448765D01*
X124675104Y-111458491D01*
X124713304Y-111468912D01*
X124714000Y-111470460D01*
X124704369Y-111516193D01*
X124681071Y-111590969D01*
X124679875Y-111594417D01*
X124610680Y-111703701D01*
X124499376Y-111777923D01*
X124359026Y-111813461D01*
X124202690Y-111806696D01*
X124066067Y-111764572D01*
X123916365Y-111698352D01*
X123926245Y-111797983D01*
X123945495Y-111871702D01*
X123997381Y-111916694D01*
X124047250Y-111937516D01*
X124234704Y-111976833D01*
X124429587Y-111969737D01*
X124606362Y-111917420D01*
X124619961Y-111910812D01*
X124749500Y-111812644D01*
X124840050Y-111677194D01*
X124890513Y-111518136D01*
X124899789Y-111349144D01*
X124881970Y-111259937D01*
X124713882Y-111259937D01*
X124684428Y-111269932D01*
X124604916Y-111277862D01*
X124488777Y-111282718D01*
X124396500Y-111283750D01*
X124251589Y-111282739D01*
X124158774Y-111278291D01*
X124106665Y-111268280D01*
X124083873Y-111250584D01*
X124079000Y-111224531D01*
X124105560Y-111139385D01*
X124171435Y-111056711D01*
X124255923Y-110999712D01*
X124288606Y-110989611D01*
X124427650Y-110990036D01*
X124554111Y-111038744D01*
X124647342Y-111127482D01*
X124652033Y-111134885D01*
X124692469Y-111207002D01*
X124713177Y-111255267D01*
X124713882Y-111259937D01*
X124881970Y-111259937D01*
X124866779Y-111183894D01*
X124790385Y-111036059D01*
X124697969Y-110940049D01*
X124552370Y-110859663D01*
X124391264Y-110826410D01*
X124231442Y-110840066D01*
G36*
X126942452Y-110864305D02*
G01*
X126924184Y-110869825D01*
X126847789Y-110902277D01*
X126815635Y-110945726D01*
X126809500Y-111012914D01*
X126809500Y-111118154D01*
X126927339Y-111058077D01*
X127087543Y-111004054D01*
X127231628Y-111007086D01*
X127352053Y-111061310D01*
X127441281Y-111160864D01*
X127491770Y-111299885D01*
X127495981Y-111472510D01*
X127492654Y-111497667D01*
X127445429Y-111652356D01*
X127360531Y-111757528D01*
X127242740Y-111810887D01*
X127096837Y-111810139D01*
X126944438Y-111760855D01*
X126809500Y-111699604D01*
X126809500Y-111794922D01*
X126820715Y-111865010D01*
X126865976Y-111910377D01*
X126919606Y-111936245D01*
X127067781Y-111973358D01*
X127231623Y-111976327D01*
X127378919Y-111945052D01*
X127396875Y-111937720D01*
X127529261Y-111846771D01*
X127625636Y-111714528D01*
X127682192Y-111554427D01*
X127695121Y-111379904D01*
X127660615Y-111204393D01*
X127627063Y-111125648D01*
X127565723Y-111027561D01*
X127495411Y-110945230D01*
X127469630Y-110923205D01*
X127366510Y-110876353D01*
X127227483Y-110849276D01*
X127077734Y-110844439D01*
X126942452Y-110864305D01*
X126942452Y-110864305D01*
G37*
X126942452Y-110864305D02*
X126924184Y-110869825D01*
X126847789Y-110902277D01*
X126815635Y-110945726D01*
X126809500Y-111012914D01*
X126809500Y-111118154D01*
X126927339Y-111058077D01*
X127087543Y-111004054D01*
X127231628Y-111007086D01*
X127352053Y-111061310D01*
X127441281Y-111160864D01*
X127491770Y-111299885D01*
X127495981Y-111472510D01*
X127492654Y-111497667D01*
X127445429Y-111652356D01*
X127360531Y-111757528D01*
X127242740Y-111810887D01*
X127096837Y-111810139D01*
X126944438Y-111760855D01*
X126809500Y-111699604D01*
X126809500Y-111794922D01*
X126820715Y-111865010D01*
X126865976Y-111910377D01*
X126919606Y-111936245D01*
X127067781Y-111973358D01*
X127231623Y-111976327D01*
X127378919Y-111945052D01*
X127396875Y-111937720D01*
X127529261Y-111846771D01*
X127625636Y-111714528D01*
X127682192Y-111554427D01*
X127695121Y-111379904D01*
X127660615Y-111204393D01*
X127627063Y-111125648D01*
X127565723Y-111027561D01*
X127495411Y-110945230D01*
X127469630Y-110923205D01*
X127366510Y-110876353D01*
X127227483Y-110849276D01*
X127077734Y-110844439D01*
X126942452Y-110864305D01*
G36*
X130154810Y-110843970D02*
G01*
X130032926Y-110874699D01*
X129944222Y-110934458D01*
X129883935Y-111030238D01*
X129847300Y-111169029D01*
X129829552Y-111357823D01*
X129825750Y-111552605D01*
X129825750Y-111950500D01*
X129921000Y-111950500D01*
X129996168Y-111936612D01*
X130016250Y-111902229D01*
X130024943Y-111876617D01*
X130060053Y-111880176D01*
X130135127Y-111914617D01*
X130141986Y-111918104D01*
X130271534Y-111963537D01*
X130410979Y-111982229D01*
X130415036Y-111982250D01*
X130517681Y-111974393D01*
X130593266Y-111941644D01*
X130670300Y-111874300D01*
X130742125Y-111789423D01*
X130773339Y-111708566D01*
X130778250Y-111640456D01*
X130770782Y-111600704D01*
X130574729Y-111600704D01*
X130569934Y-111691627D01*
X130525137Y-111765351D01*
X130483613Y-111791111D01*
X130380323Y-111817604D01*
X130274833Y-111807063D01*
X130151188Y-111760855D01*
X130071731Y-111721614D01*
X130031848Y-111683081D01*
X130017900Y-111622706D01*
X130016250Y-111537725D01*
X130016250Y-111375846D01*
X130214688Y-111397474D01*
X130328707Y-111413345D01*
X130422630Y-111432518D01*
X130467960Y-111447403D01*
X130540434Y-111512618D01*
X130574729Y-111600704D01*
X130770782Y-111600704D01*
X130752710Y-111504518D01*
X130674855Y-111396552D01*
X130542833Y-111315262D01*
X130354791Y-111259355D01*
X130198813Y-111235703D01*
X130081219Y-111215059D01*
X130023729Y-111182667D01*
X130023349Y-111133925D01*
X130077088Y-111064233D01*
X130083228Y-111058022D01*
X130129992Y-111020703D01*
X130186636Y-111003438D01*
X130273708Y-111002244D01*
X130345165Y-111007255D01*
X130462177Y-111019674D01*
X130562592Y-111034980D01*
X130611563Y-111046185D01*
X130661665Y-111054394D01*
X130680582Y-111024366D01*
X130683000Y-110973395D01*
X130672885Y-110912949D01*
X130636082Y-110872562D01*
X130562910Y-110848602D01*
X130443685Y-110837440D01*
X130314640Y-110835281D01*
X130154810Y-110843970D01*
X130154810Y-110843970D01*
G37*
X130154810Y-110843970D02*
X130032926Y-110874699D01*
X129944222Y-110934458D01*
X129883935Y-111030238D01*
X129847300Y-111169029D01*
X129829552Y-111357823D01*
X129825750Y-111552605D01*
X129825750Y-111950500D01*
X129921000Y-111950500D01*
X129996168Y-111936612D01*
X130016250Y-111902229D01*
X130024943Y-111876617D01*
X130060053Y-111880176D01*
X130135127Y-111914617D01*
X130141986Y-111918104D01*
X130271534Y-111963537D01*
X130410979Y-111982229D01*
X130415036Y-111982250D01*
X130517681Y-111974393D01*
X130593266Y-111941644D01*
X130670300Y-111874300D01*
X130742125Y-111789423D01*
X130773339Y-111708566D01*
X130778250Y-111640456D01*
X130770782Y-111600704D01*
X130574729Y-111600704D01*
X130569934Y-111691627D01*
X130525137Y-111765351D01*
X130483613Y-111791111D01*
X130380323Y-111817604D01*
X130274833Y-111807063D01*
X130151188Y-111760855D01*
X130071731Y-111721614D01*
X130031848Y-111683081D01*
X130017900Y-111622706D01*
X130016250Y-111537725D01*
X130016250Y-111375846D01*
X130214688Y-111397474D01*
X130328707Y-111413345D01*
X130422630Y-111432518D01*
X130467960Y-111447403D01*
X130540434Y-111512618D01*
X130574729Y-111600704D01*
X130770782Y-111600704D01*
X130752710Y-111504518D01*
X130674855Y-111396552D01*
X130542833Y-111315262D01*
X130354791Y-111259355D01*
X130198813Y-111235703D01*
X130081219Y-111215059D01*
X130023729Y-111182667D01*
X130023349Y-111133925D01*
X130077088Y-111064233D01*
X130083228Y-111058022D01*
X130129992Y-111020703D01*
X130186636Y-111003438D01*
X130273708Y-111002244D01*
X130345165Y-111007255D01*
X130462177Y-111019674D01*
X130562592Y-111034980D01*
X130611563Y-111046185D01*
X130661665Y-111054394D01*
X130680582Y-111024366D01*
X130683000Y-110973395D01*
X130672885Y-110912949D01*
X130636082Y-110872562D01*
X130562910Y-110848602D01*
X130443685Y-110837440D01*
X130314640Y-110835281D01*
X130154810Y-110843970D01*
G36*
X131389438Y-110527578D02*
G01*
X131335804Y-110539826D01*
X131308218Y-110572364D01*
X131295755Y-110643153D01*
X131292511Y-110686903D01*
X131282897Y-110836181D01*
X131102011Y-110845653D01*
X130998154Y-110853960D01*
X130941876Y-110869453D01*
X130917256Y-110898875D01*
X130910980Y-110926562D01*
X130909878Y-110965968D01*
X130930130Y-110987374D01*
X130985670Y-110996234D01*
X131090435Y-110997999D01*
X131093542Y-110998000D01*
X131286250Y-110998000D01*
X131286250Y-111360857D01*
X131283538Y-111545413D01*
X131272374Y-111674945D01*
X131248220Y-111757805D01*
X131206536Y-111802348D01*
X131142783Y-111816927D01*
X131052424Y-111809897D01*
X131043018Y-111808518D01*
X130957615Y-111798340D01*
X130917590Y-111806640D01*
X130905854Y-111840485D01*
X130905250Y-111865476D01*
X130927825Y-111935476D01*
X130976688Y-111962238D01*
X131131383Y-111979734D01*
X131277331Y-111953850D01*
X131325140Y-111932758D01*
X131385805Y-111892795D01*
X131427992Y-111842299D01*
X131454928Y-111769801D01*
X131469842Y-111663834D01*
X131475959Y-111512929D01*
X131476750Y-111393989D01*
X131477517Y-111235181D01*
X131481038Y-111128700D01*
X131489147Y-111063378D01*
X131503677Y-111028051D01*
X131526462Y-111011550D01*
X131540250Y-111007199D01*
X131593594Y-110964726D01*
X131603750Y-110914921D01*
X131587307Y-110854587D01*
X131540250Y-110839250D01*
X131502358Y-110831005D01*
X131483341Y-110795921D01*
X131477069Y-110718468D01*
X131476750Y-110678391D01*
X131474820Y-110583888D01*
X131463155Y-110537666D01*
X131432949Y-110524510D01*
X131389438Y-110527578D01*
X131389438Y-110527578D01*
G37*
X131389438Y-110527578D02*
X131335804Y-110539826D01*
X131308218Y-110572364D01*
X131295755Y-110643153D01*
X131292511Y-110686903D01*
X131282897Y-110836181D01*
X131102011Y-110845653D01*
X130998154Y-110853960D01*
X130941876Y-110869453D01*
X130917256Y-110898875D01*
X130910980Y-110926562D01*
X130909878Y-110965968D01*
X130930130Y-110987374D01*
X130985670Y-110996234D01*
X131090435Y-110997999D01*
X131093542Y-110998000D01*
X131286250Y-110998000D01*
X131286250Y-111360857D01*
X131283538Y-111545413D01*
X131272374Y-111674945D01*
X131248220Y-111757805D01*
X131206536Y-111802348D01*
X131142783Y-111816927D01*
X131052424Y-111809897D01*
X131043018Y-111808518D01*
X130957615Y-111798340D01*
X130917590Y-111806640D01*
X130905854Y-111840485D01*
X130905250Y-111865476D01*
X130927825Y-111935476D01*
X130976688Y-111962238D01*
X131131383Y-111979734D01*
X131277331Y-111953850D01*
X131325140Y-111932758D01*
X131385805Y-111892795D01*
X131427992Y-111842299D01*
X131454928Y-111769801D01*
X131469842Y-111663834D01*
X131475959Y-111512929D01*
X131476750Y-111393989D01*
X131477517Y-111235181D01*
X131481038Y-111128700D01*
X131489147Y-111063378D01*
X131503677Y-111028051D01*
X131526462Y-111011550D01*
X131540250Y-111007199D01*
X131593594Y-110964726D01*
X131603750Y-110914921D01*
X131587307Y-110854587D01*
X131540250Y-110839250D01*
X131502358Y-110831005D01*
X131483341Y-110795921D01*
X131477069Y-110718468D01*
X131476750Y-110678391D01*
X131474820Y-110583888D01*
X131463155Y-110537666D01*
X131432949Y-110524510D01*
X131389438Y-110527578D01*
G36*
X132129153Y-110854014D02*
G01*
X131986092Y-110930289D01*
X131880278Y-111054115D01*
X131815471Y-111221211D01*
X131795295Y-111410750D01*
X131817698Y-111613119D01*
X131883639Y-111774691D01*
X131991222Y-111891601D01*
X132048729Y-111926638D01*
X132166557Y-111963997D01*
X132308207Y-111979056D01*
X132442602Y-111970115D01*
X132508625Y-111951786D01*
X132626386Y-111870763D01*
X132720357Y-111743952D01*
X132782861Y-111586985D01*
X132798094Y-111475156D01*
X132610231Y-111475156D01*
X132578358Y-111620286D01*
X132513180Y-111736019D01*
X132507687Y-111742137D01*
X132410631Y-111804479D01*
X132288163Y-111825639D01*
X132165916Y-111802208D01*
X132141742Y-111790808D01*
X132065771Y-111717278D01*
X132013733Y-111602124D01*
X131987194Y-111463154D01*
X131987721Y-111318176D01*
X132016883Y-111184998D01*
X132076246Y-111081426D01*
X132079037Y-111078400D01*
X132179130Y-111014089D01*
X132301672Y-110993797D01*
X132423022Y-111017862D01*
X132506417Y-111072280D01*
X132574221Y-111180263D01*
X132608839Y-111321519D01*
X132610231Y-111475156D01*
X132798094Y-111475156D01*
X132806222Y-111415496D01*
X132803407Y-111351486D01*
X132760406Y-111153370D01*
X132675796Y-110999493D01*
X132552657Y-110893082D01*
X132394068Y-110837366D01*
X132305703Y-110829569D01*
X132129153Y-110854014D01*
X132129153Y-110854014D01*
G37*
X132129153Y-110854014D02*
X131986092Y-110930289D01*
X131880278Y-111054115D01*
X131815471Y-111221211D01*
X131795295Y-111410750D01*
X131817698Y-111613119D01*
X131883639Y-111774691D01*
X131991222Y-111891601D01*
X132048729Y-111926638D01*
X132166557Y-111963997D01*
X132308207Y-111979056D01*
X132442602Y-111970115D01*
X132508625Y-111951786D01*
X132626386Y-111870763D01*
X132720357Y-111743952D01*
X132782861Y-111586985D01*
X132798094Y-111475156D01*
X132610231Y-111475156D01*
X132578358Y-111620286D01*
X132513180Y-111736019D01*
X132507687Y-111742137D01*
X132410631Y-111804479D01*
X132288163Y-111825639D01*
X132165916Y-111802208D01*
X132141742Y-111790808D01*
X132065771Y-111717278D01*
X132013733Y-111602124D01*
X131987194Y-111463154D01*
X131987721Y-111318176D01*
X132016883Y-111184998D01*
X132076246Y-111081426D01*
X132079037Y-111078400D01*
X132179130Y-111014089D01*
X132301672Y-110993797D01*
X132423022Y-111017862D01*
X132506417Y-111072280D01*
X132574221Y-111180263D01*
X132608839Y-111321519D01*
X132610231Y-111475156D01*
X132798094Y-111475156D01*
X132806222Y-111415496D01*
X132803407Y-111351486D01*
X132760406Y-111153370D01*
X132675796Y-110999493D01*
X132552657Y-110893082D01*
X132394068Y-110837366D01*
X132305703Y-110829569D01*
X132129153Y-110854014D01*
G36*
X120427030Y-111675116D02*
G01*
X120397158Y-111703213D01*
X120397158Y-111704437D01*
X120409623Y-111749242D01*
X120442191Y-111837310D01*
X120489219Y-111953860D01*
X120521410Y-112029875D01*
X120586646Y-112173033D01*
X120637916Y-112264413D01*
X120680757Y-112312667D01*
X120710753Y-112325770D01*
X120764628Y-112317664D01*
X120776823Y-112294020D01*
X120771578Y-112250194D01*
X120754718Y-112172922D01*
X120724182Y-112053813D01*
X120677905Y-111884473D01*
X120663112Y-111831437D01*
X120633720Y-111735497D01*
X120605473Y-111685899D01*
X120564028Y-111667402D01*
X120506239Y-111664750D01*
X120427030Y-111675116D01*
X120427030Y-111675116D01*
G37*
X120427030Y-111675116D02*
X120397158Y-111703213D01*
X120397158Y-111704437D01*
X120409623Y-111749242D01*
X120442191Y-111837310D01*
X120489219Y-111953860D01*
X120521410Y-112029875D01*
X120586646Y-112173033D01*
X120637916Y-112264413D01*
X120680757Y-112312667D01*
X120710753Y-112325770D01*
X120764628Y-112317664D01*
X120776823Y-112294020D01*
X120771578Y-112250194D01*
X120754718Y-112172922D01*
X120724182Y-112053813D01*
X120677905Y-111884473D01*
X120663112Y-111831437D01*
X120633720Y-111735497D01*
X120605473Y-111685899D01*
X120564028Y-111667402D01*
X120506239Y-111664750D01*
X120427030Y-111675116D01*
G36*
X112490250Y-113093500D02*
G01*
X137414000Y-113093500D01*
X137414000Y-112917766D01*
X136817151Y-112917766D01*
X136784498Y-112919009D01*
X136690587Y-112920185D01*
X136537660Y-112921292D01*
X136327957Y-112922329D01*
X136063721Y-112923294D01*
X135747193Y-112924184D01*
X135380614Y-112924998D01*
X134966227Y-112925735D01*
X134506272Y-112926392D01*
X134002992Y-112926968D01*
X133458628Y-112927461D01*
X132875422Y-112927869D01*
X132255615Y-112928191D01*
X131601449Y-112928424D01*
X130915165Y-112928568D01*
X130199005Y-112928619D01*
X129455212Y-112928577D01*
X128686025Y-112928439D01*
X127893687Y-112928204D01*
X127080440Y-112927870D01*
X126248524Y-112927436D01*
X125400183Y-112926899D01*
X125337710Y-112926855D01*
X113875339Y-112918875D01*
X113439042Y-111173895D01*
X113358831Y-110851594D01*
X113283926Y-110547708D01*
X113215654Y-110267817D01*
X113155341Y-110017499D01*
X113104313Y-109802333D01*
X113063897Y-109627898D01*
X113035418Y-109499772D01*
X113020203Y-109423535D01*
X113018246Y-109403832D01*
X113050781Y-109401973D01*
X113144575Y-109400150D01*
X113297386Y-109398368D01*
X113506972Y-109396631D01*
X113771092Y-109394944D01*
X114087504Y-109393313D01*
X114453966Y-109391743D01*
X114868238Y-109390237D01*
X115328077Y-109388802D01*
X115831242Y-109387441D01*
X116375492Y-109386161D01*
X116958584Y-109384965D01*
X117578278Y-109383859D01*
X118232331Y-109382848D01*
X118918502Y-109381936D01*
X119634550Y-109381128D01*
X120378233Y-109380430D01*
X121147310Y-109379846D01*
X121939538Y-109379381D01*
X122752677Y-109379040D01*
X123584485Y-109378828D01*
X124432720Y-109378750D01*
X135951053Y-109378750D01*
X135982516Y-109497812D01*
X136026887Y-109668009D01*
X136079789Y-109874713D01*
X136139613Y-110111345D01*
X136204756Y-110371327D01*
X136273612Y-110648079D01*
X136344574Y-110935024D01*
X136416038Y-111225582D01*
X136486399Y-111513175D01*
X136554050Y-111791225D01*
X136617386Y-112053152D01*
X136674801Y-112292378D01*
X136724691Y-112502325D01*
X136765449Y-112676414D01*
X136795471Y-112808065D01*
X136813150Y-112890702D01*
X136817151Y-112917766D01*
X137414000Y-112917766D01*
X137414000Y-109156500D01*
X112490250Y-109156500D01*
X112490250Y-113093500D01*
X112490250Y-113093500D01*
G37*
X112490250Y-113093500D02*
X137414000Y-113093500D01*
X137414000Y-112917766D01*
X136817151Y-112917766D01*
X136784498Y-112919009D01*
X136690587Y-112920185D01*
X136537660Y-112921292D01*
X136327957Y-112922329D01*
X136063721Y-112923294D01*
X135747193Y-112924184D01*
X135380614Y-112924998D01*
X134966227Y-112925735D01*
X134506272Y-112926392D01*
X134002992Y-112926968D01*
X133458628Y-112927461D01*
X132875422Y-112927869D01*
X132255615Y-112928191D01*
X131601449Y-112928424D01*
X130915165Y-112928568D01*
X130199005Y-112928619D01*
X129455212Y-112928577D01*
X128686025Y-112928439D01*
X127893687Y-112928204D01*
X127080440Y-112927870D01*
X126248524Y-112927436D01*
X125400183Y-112926899D01*
X125337710Y-112926855D01*
X113875339Y-112918875D01*
X113439042Y-111173895D01*
X113358831Y-110851594D01*
X113283926Y-110547708D01*
X113215654Y-110267817D01*
X113155341Y-110017499D01*
X113104313Y-109802333D01*
X113063897Y-109627898D01*
X113035418Y-109499772D01*
X113020203Y-109423535D01*
X113018246Y-109403832D01*
X113050781Y-109401973D01*
X113144575Y-109400150D01*
X113297386Y-109398368D01*
X113506972Y-109396631D01*
X113771092Y-109394944D01*
X114087504Y-109393313D01*
X114453966Y-109391743D01*
X114868238Y-109390237D01*
X115328077Y-109388802D01*
X115831242Y-109387441D01*
X116375492Y-109386161D01*
X116958584Y-109384965D01*
X117578278Y-109383859D01*
X118232331Y-109382848D01*
X118918502Y-109381936D01*
X119634550Y-109381128D01*
X120378233Y-109380430D01*
X121147310Y-109379846D01*
X121939538Y-109379381D01*
X122752677Y-109379040D01*
X123584485Y-109378828D01*
X124432720Y-109378750D01*
X135951053Y-109378750D01*
X135982516Y-109497812D01*
X136026887Y-109668009D01*
X136079789Y-109874713D01*
X136139613Y-110111345D01*
X136204756Y-110371327D01*
X136273612Y-110648079D01*
X136344574Y-110935024D01*
X136416038Y-111225582D01*
X136486399Y-111513175D01*
X136554050Y-111791225D01*
X136617386Y-112053152D01*
X136674801Y-112292378D01*
X136724691Y-112502325D01*
X136765449Y-112676414D01*
X136795471Y-112808065D01*
X136813150Y-112890702D01*
X136817151Y-112917766D01*
X137414000Y-112917766D01*
X137414000Y-109156500D01*
X112490250Y-109156500D01*
X112490250Y-113093500D01*
G36*
X163824177Y-102604533D02*
G01*
X163792798Y-102626776D01*
X163765089Y-102654485D01*
X163765089Y-102963920D01*
X163765162Y-103055799D01*
X163765505Y-103127840D01*
X163766308Y-103182780D01*
X163767759Y-103223360D01*
X163770048Y-103252317D01*
X163773364Y-103272391D01*
X163777895Y-103286321D01*
X163783831Y-103296845D01*
X163788486Y-103303100D01*
X163819217Y-103327673D01*
X163854504Y-103330341D01*
X163886755Y-103315271D01*
X163897412Y-103306374D01*
X163904536Y-103294557D01*
X163908833Y-103275526D01*
X163911009Y-103244992D01*
X163911772Y-103198662D01*
X163911845Y-103162871D01*
X163911845Y-103028045D01*
X164408556Y-103028045D01*
X164408556Y-103150700D01*
X164409069Y-103206787D01*
X164411124Y-103245333D01*
X164415492Y-103271361D01*
X164422944Y-103289897D01*
X164431953Y-103303100D01*
X164462856Y-103327604D01*
X164497804Y-103330506D01*
X164531262Y-103313089D01*
X164540396Y-103303959D01*
X164546848Y-103291855D01*
X164551103Y-103273001D01*
X164553648Y-103243620D01*
X164554971Y-103199937D01*
X164555557Y-103138175D01*
X164555625Y-103124000D01*
X164556109Y-103007631D01*
X164556359Y-102911727D01*
X164556277Y-102834177D01*
X164555769Y-102772869D01*
X164554738Y-102725690D01*
X164553087Y-102690530D01*
X164550721Y-102665276D01*
X164547543Y-102647817D01*
X164543456Y-102636041D01*
X164538366Y-102627835D01*
X164532734Y-102621645D01*
X164500872Y-102601844D01*
X164467643Y-102604533D01*
X164436265Y-102626776D01*
X164423567Y-102641126D01*
X164415474Y-102656978D01*
X164410958Y-102679554D01*
X164408994Y-102714078D01*
X164408556Y-102765776D01*
X164408556Y-102881289D01*
X163911845Y-102881289D01*
X163911845Y-102762756D01*
X163911338Y-102708148D01*
X163909302Y-102671275D01*
X163904965Y-102647307D01*
X163897553Y-102631415D01*
X163889267Y-102621645D01*
X163857406Y-102601844D01*
X163824177Y-102604533D01*
X163824177Y-102604533D01*
G37*
X163824177Y-102604533D02*
X163792798Y-102626776D01*
X163765089Y-102654485D01*
X163765089Y-102963920D01*
X163765162Y-103055799D01*
X163765505Y-103127840D01*
X163766308Y-103182780D01*
X163767759Y-103223360D01*
X163770048Y-103252317D01*
X163773364Y-103272391D01*
X163777895Y-103286321D01*
X163783831Y-103296845D01*
X163788486Y-103303100D01*
X163819217Y-103327673D01*
X163854504Y-103330341D01*
X163886755Y-103315271D01*
X163897412Y-103306374D01*
X163904536Y-103294557D01*
X163908833Y-103275526D01*
X163911009Y-103244992D01*
X163911772Y-103198662D01*
X163911845Y-103162871D01*
X163911845Y-103028045D01*
X164408556Y-103028045D01*
X164408556Y-103150700D01*
X164409069Y-103206787D01*
X164411124Y-103245333D01*
X164415492Y-103271361D01*
X164422944Y-103289897D01*
X164431953Y-103303100D01*
X164462856Y-103327604D01*
X164497804Y-103330506D01*
X164531262Y-103313089D01*
X164540396Y-103303959D01*
X164546848Y-103291855D01*
X164551103Y-103273001D01*
X164553648Y-103243620D01*
X164554971Y-103199937D01*
X164555557Y-103138175D01*
X164555625Y-103124000D01*
X164556109Y-103007631D01*
X164556359Y-102911727D01*
X164556277Y-102834177D01*
X164555769Y-102772869D01*
X164554738Y-102725690D01*
X164553087Y-102690530D01*
X164550721Y-102665276D01*
X164547543Y-102647817D01*
X164543456Y-102636041D01*
X164538366Y-102627835D01*
X164532734Y-102621645D01*
X164500872Y-102601844D01*
X164467643Y-102604533D01*
X164436265Y-102626776D01*
X164423567Y-102641126D01*
X164415474Y-102656978D01*
X164410958Y-102679554D01*
X164408994Y-102714078D01*
X164408556Y-102765776D01*
X164408556Y-102881289D01*
X163911845Y-102881289D01*
X163911845Y-102762756D01*
X163911338Y-102708148D01*
X163909302Y-102671275D01*
X163904965Y-102647307D01*
X163897553Y-102631415D01*
X163889267Y-102621645D01*
X163857406Y-102601844D01*
X163824177Y-102604533D01*
G36*
X165089935Y-102599163D02*
G01*
X165011228Y-102599542D01*
X164950137Y-102600333D01*
X164904183Y-102601670D01*
X164870886Y-102603683D01*
X164847764Y-102606506D01*
X164832338Y-102610269D01*
X164822129Y-102615105D01*
X164817187Y-102618822D01*
X164791543Y-102651358D01*
X164788441Y-102685138D01*
X164804289Y-102715826D01*
X164814652Y-102728089D01*
X164825804Y-102736450D01*
X164841965Y-102741657D01*
X164867358Y-102744457D01*
X164906202Y-102745596D01*
X164962720Y-102745821D01*
X164973820Y-102745822D01*
X165119756Y-102745822D01*
X165119756Y-103016756D01*
X165119852Y-103102154D01*
X165120289Y-103167864D01*
X165121288Y-103216774D01*
X165123072Y-103251773D01*
X165125863Y-103275749D01*
X165129883Y-103291593D01*
X165135355Y-103302191D01*
X165142334Y-103310267D01*
X165175266Y-103330112D01*
X165209646Y-103328548D01*
X165240824Y-103305906D01*
X165243114Y-103303100D01*
X165250571Y-103292492D01*
X165256253Y-103280081D01*
X165260399Y-103262850D01*
X165263250Y-103237784D01*
X165265046Y-103201867D01*
X165266028Y-103152083D01*
X165266436Y-103085417D01*
X165266511Y-103009589D01*
X165266511Y-102745822D01*
X165405873Y-102745822D01*
X165465678Y-102745418D01*
X165507082Y-102743840D01*
X165534252Y-102740547D01*
X165551354Y-102734992D01*
X165562557Y-102726631D01*
X165563917Y-102725178D01*
X165580275Y-102691939D01*
X165578828Y-102654362D01*
X165560022Y-102621645D01*
X165552750Y-102615298D01*
X165543373Y-102610266D01*
X165529391Y-102606396D01*
X165508304Y-102603537D01*
X165477611Y-102601535D01*
X165434811Y-102600239D01*
X165377405Y-102599498D01*
X165302890Y-102599158D01*
X165208767Y-102599068D01*
X165188740Y-102599067D01*
X165089935Y-102599163D01*
X165089935Y-102599163D01*
G37*
X165089935Y-102599163D02*
X165011228Y-102599542D01*
X164950137Y-102600333D01*
X164904183Y-102601670D01*
X164870886Y-102603683D01*
X164847764Y-102606506D01*
X164832338Y-102610269D01*
X164822129Y-102615105D01*
X164817187Y-102618822D01*
X164791543Y-102651358D01*
X164788441Y-102685138D01*
X164804289Y-102715826D01*
X164814652Y-102728089D01*
X164825804Y-102736450D01*
X164841965Y-102741657D01*
X164867358Y-102744457D01*
X164906202Y-102745596D01*
X164962720Y-102745821D01*
X164973820Y-102745822D01*
X165119756Y-102745822D01*
X165119756Y-103016756D01*
X165119852Y-103102154D01*
X165120289Y-103167864D01*
X165121288Y-103216774D01*
X165123072Y-103251773D01*
X165125863Y-103275749D01*
X165129883Y-103291593D01*
X165135355Y-103302191D01*
X165142334Y-103310267D01*
X165175266Y-103330112D01*
X165209646Y-103328548D01*
X165240824Y-103305906D01*
X165243114Y-103303100D01*
X165250571Y-103292492D01*
X165256253Y-103280081D01*
X165260399Y-103262850D01*
X165263250Y-103237784D01*
X165265046Y-103201867D01*
X165266028Y-103152083D01*
X165266436Y-103085417D01*
X165266511Y-103009589D01*
X165266511Y-102745822D01*
X165405873Y-102745822D01*
X165465678Y-102745418D01*
X165507082Y-102743840D01*
X165534252Y-102740547D01*
X165551354Y-102734992D01*
X165562557Y-102726631D01*
X165563917Y-102725178D01*
X165580275Y-102691939D01*
X165578828Y-102654362D01*
X165560022Y-102621645D01*
X165552750Y-102615298D01*
X165543373Y-102610266D01*
X165529391Y-102606396D01*
X165508304Y-102603537D01*
X165477611Y-102601535D01*
X165434811Y-102600239D01*
X165377405Y-102599498D01*
X165302890Y-102599158D01*
X165208767Y-102599068D01*
X165188740Y-102599067D01*
X165089935Y-102599163D01*
G36*
X165864386Y-102605877D02*
G01*
X165840673Y-102620647D01*
X165814022Y-102642227D01*
X165814022Y-102963773D01*
X165814107Y-103057830D01*
X165814471Y-103131932D01*
X165815276Y-103188704D01*
X165816687Y-103230768D01*
X165818867Y-103260748D01*
X165821979Y-103281267D01*
X165826186Y-103294949D01*
X165831652Y-103304416D01*
X165835528Y-103309082D01*
X165866966Y-103329575D01*
X165902767Y-103328739D01*
X165934127Y-103311264D01*
X165960778Y-103289684D01*
X165960778Y-102642227D01*
X165934127Y-102620647D01*
X165908406Y-102604949D01*
X165887400Y-102599067D01*
X165864386Y-102605877D01*
X165864386Y-102605877D01*
G37*
X165864386Y-102605877D02*
X165840673Y-102620647D01*
X165814022Y-102642227D01*
X165814022Y-102963773D01*
X165814107Y-103057830D01*
X165814471Y-103131932D01*
X165815276Y-103188704D01*
X165816687Y-103230768D01*
X165818867Y-103260748D01*
X165821979Y-103281267D01*
X165826186Y-103294949D01*
X165831652Y-103304416D01*
X165835528Y-103309082D01*
X165866966Y-103329575D01*
X165902767Y-103328739D01*
X165934127Y-103311264D01*
X165960778Y-103289684D01*
X165960778Y-102642227D01*
X165934127Y-102620647D01*
X165908406Y-102604949D01*
X165887400Y-102599067D01*
X165864386Y-102605877D01*
G36*
X166308335Y-102601034D02*
G01*
X166288745Y-102608035D01*
X166287990Y-102608377D01*
X166261387Y-102628678D01*
X166246730Y-102649561D01*
X166243862Y-102659352D01*
X166244004Y-102672361D01*
X166248039Y-102690895D01*
X166256854Y-102717257D01*
X166271331Y-102753752D01*
X166292355Y-102802687D01*
X166320812Y-102866365D01*
X166357585Y-102947093D01*
X166377825Y-102991216D01*
X166414375Y-103069985D01*
X166448685Y-103142423D01*
X166479448Y-103205880D01*
X166505352Y-103257708D01*
X166525090Y-103295259D01*
X166537350Y-103315884D01*
X166539776Y-103318733D01*
X166570817Y-103331302D01*
X166605879Y-103329619D01*
X166634000Y-103314332D01*
X166635146Y-103313089D01*
X166646332Y-103296154D01*
X166665096Y-103263170D01*
X166689125Y-103218380D01*
X166716103Y-103166032D01*
X166725799Y-103146742D01*
X166798986Y-103000150D01*
X166878760Y-103159393D01*
X166907233Y-103214415D01*
X166933650Y-103262132D01*
X166955852Y-103298893D01*
X166971681Y-103321044D01*
X166977046Y-103325741D01*
X167018743Y-103332102D01*
X167053151Y-103318733D01*
X167063272Y-103304446D01*
X167080786Y-103272692D01*
X167104265Y-103226597D01*
X167132280Y-103169285D01*
X167163401Y-103103880D01*
X167196201Y-103033507D01*
X167229250Y-102961291D01*
X167261119Y-102890355D01*
X167290381Y-102823825D01*
X167315605Y-102764826D01*
X167335364Y-102716481D01*
X167348228Y-102681915D01*
X167352769Y-102664253D01*
X167352723Y-102663613D01*
X167341674Y-102641388D01*
X167319590Y-102618753D01*
X167318290Y-102617768D01*
X167291147Y-102602425D01*
X167266042Y-102602574D01*
X167256632Y-102605466D01*
X167245166Y-102611718D01*
X167232990Y-102624014D01*
X167218643Y-102644908D01*
X167200664Y-102676949D01*
X167177593Y-102722688D01*
X167147970Y-102784677D01*
X167121255Y-102841898D01*
X167090520Y-102908226D01*
X167062979Y-102967874D01*
X167040062Y-103017725D01*
X167023202Y-103054664D01*
X167013827Y-103075573D01*
X167012460Y-103078845D01*
X167006311Y-103073497D01*
X166992178Y-103051109D01*
X166971943Y-103014946D01*
X166947485Y-102968277D01*
X166937752Y-102949022D01*
X166904783Y-102884004D01*
X166879357Y-102836654D01*
X166859388Y-102804219D01*
X166842790Y-102783946D01*
X166827476Y-102773082D01*
X166811360Y-102768875D01*
X166800857Y-102768400D01*
X166782330Y-102770042D01*
X166766096Y-102776831D01*
X166749965Y-102791566D01*
X166731749Y-102817044D01*
X166709261Y-102856061D01*
X166680311Y-102911414D01*
X166664338Y-102942903D01*
X166638430Y-102993087D01*
X166615833Y-103034704D01*
X166598542Y-103064242D01*
X166588550Y-103078189D01*
X166587191Y-103078770D01*
X166580739Y-103067793D01*
X166566292Y-103039290D01*
X166545297Y-102996244D01*
X166519203Y-102941638D01*
X166489454Y-102878454D01*
X166474820Y-102847071D01*
X166436750Y-102766078D01*
X166406095Y-102703756D01*
X166381263Y-102658071D01*
X166360663Y-102626989D01*
X166342702Y-102608478D01*
X166325790Y-102600504D01*
X166308335Y-102601034D01*
X166308335Y-102601034D01*
G37*
X166308335Y-102601034D02*
X166288745Y-102608035D01*
X166287990Y-102608377D01*
X166261387Y-102628678D01*
X166246730Y-102649561D01*
X166243862Y-102659352D01*
X166244004Y-102672361D01*
X166248039Y-102690895D01*
X166256854Y-102717257D01*
X166271331Y-102753752D01*
X166292355Y-102802687D01*
X166320812Y-102866365D01*
X166357585Y-102947093D01*
X166377825Y-102991216D01*
X166414375Y-103069985D01*
X166448685Y-103142423D01*
X166479448Y-103205880D01*
X166505352Y-103257708D01*
X166525090Y-103295259D01*
X166537350Y-103315884D01*
X166539776Y-103318733D01*
X166570817Y-103331302D01*
X166605879Y-103329619D01*
X166634000Y-103314332D01*
X166635146Y-103313089D01*
X166646332Y-103296154D01*
X166665096Y-103263170D01*
X166689125Y-103218380D01*
X166716103Y-103166032D01*
X166725799Y-103146742D01*
X166798986Y-103000150D01*
X166878760Y-103159393D01*
X166907233Y-103214415D01*
X166933650Y-103262132D01*
X166955852Y-103298893D01*
X166971681Y-103321044D01*
X166977046Y-103325741D01*
X167018743Y-103332102D01*
X167053151Y-103318733D01*
X167063272Y-103304446D01*
X167080786Y-103272692D01*
X167104265Y-103226597D01*
X167132280Y-103169285D01*
X167163401Y-103103880D01*
X167196201Y-103033507D01*
X167229250Y-102961291D01*
X167261119Y-102890355D01*
X167290381Y-102823825D01*
X167315605Y-102764826D01*
X167335364Y-102716481D01*
X167348228Y-102681915D01*
X167352769Y-102664253D01*
X167352723Y-102663613D01*
X167341674Y-102641388D01*
X167319590Y-102618753D01*
X167318290Y-102617768D01*
X167291147Y-102602425D01*
X167266042Y-102602574D01*
X167256632Y-102605466D01*
X167245166Y-102611718D01*
X167232990Y-102624014D01*
X167218643Y-102644908D01*
X167200664Y-102676949D01*
X167177593Y-102722688D01*
X167147970Y-102784677D01*
X167121255Y-102841898D01*
X167090520Y-102908226D01*
X167062979Y-102967874D01*
X167040062Y-103017725D01*
X167023202Y-103054664D01*
X167013827Y-103075573D01*
X167012460Y-103078845D01*
X167006311Y-103073497D01*
X166992178Y-103051109D01*
X166971943Y-103014946D01*
X166947485Y-102968277D01*
X166937752Y-102949022D01*
X166904783Y-102884004D01*
X166879357Y-102836654D01*
X166859388Y-102804219D01*
X166842790Y-102783946D01*
X166827476Y-102773082D01*
X166811360Y-102768875D01*
X166800857Y-102768400D01*
X166782330Y-102770042D01*
X166766096Y-102776831D01*
X166749965Y-102791566D01*
X166731749Y-102817044D01*
X166709261Y-102856061D01*
X166680311Y-102911414D01*
X166664338Y-102942903D01*
X166638430Y-102993087D01*
X166615833Y-103034704D01*
X166598542Y-103064242D01*
X166588550Y-103078189D01*
X166587191Y-103078770D01*
X166580739Y-103067793D01*
X166566292Y-103039290D01*
X166545297Y-102996244D01*
X166519203Y-102941638D01*
X166489454Y-102878454D01*
X166474820Y-102847071D01*
X166436750Y-102766078D01*
X166406095Y-102703756D01*
X166381263Y-102658071D01*
X166360663Y-102626989D01*
X166342702Y-102608478D01*
X166325790Y-102600504D01*
X166308335Y-102601034D01*
G36*
X169034691Y-102599275D02*
G01*
X168905712Y-102603636D01*
X168796009Y-102616861D01*
X168703774Y-102639741D01*
X168627198Y-102673070D01*
X168564473Y-102717638D01*
X168513788Y-102774236D01*
X168473337Y-102843658D01*
X168472541Y-102845351D01*
X168448399Y-102907483D01*
X168439797Y-102962509D01*
X168446769Y-103017887D01*
X168469346Y-103081073D01*
X168473628Y-103090689D01*
X168502828Y-103146966D01*
X168535644Y-103190451D01*
X168577998Y-103227417D01*
X168635810Y-103264135D01*
X168639169Y-103266052D01*
X168689496Y-103290227D01*
X168746379Y-103308282D01*
X168813473Y-103320839D01*
X168894435Y-103328522D01*
X168992918Y-103331953D01*
X169027714Y-103332251D01*
X169193406Y-103332845D01*
X169216803Y-103303100D01*
X169223743Y-103293319D01*
X169229158Y-103281897D01*
X169233235Y-103266095D01*
X169236163Y-103243175D01*
X169238133Y-103210396D01*
X169238775Y-103186089D01*
X169082156Y-103186089D01*
X168988274Y-103186089D01*
X168933336Y-103184483D01*
X168876940Y-103180255D01*
X168830655Y-103174292D01*
X168827861Y-103173790D01*
X168745652Y-103151736D01*
X168681886Y-103118600D01*
X168634548Y-103072847D01*
X168601618Y-103012939D01*
X168595892Y-102997061D01*
X168590279Y-102972333D01*
X168592709Y-102947902D01*
X168604533Y-102915400D01*
X168611660Y-102899434D01*
X168635000Y-102857006D01*
X168663120Y-102827240D01*
X168694060Y-102806511D01*
X168756034Y-102779537D01*
X168835349Y-102759998D01*
X168927747Y-102748746D01*
X168994667Y-102746270D01*
X169082156Y-102745822D01*
X169082156Y-103186089D01*
X169238775Y-103186089D01*
X169239332Y-103165021D01*
X169239950Y-103104311D01*
X169240175Y-103025526D01*
X169240200Y-102963920D01*
X169240200Y-102654485D01*
X169212491Y-102626776D01*
X169200194Y-102615544D01*
X169186897Y-102607853D01*
X169168328Y-102603040D01*
X169140214Y-102600446D01*
X169098283Y-102599410D01*
X169038263Y-102599270D01*
X169034691Y-102599275D01*
X169034691Y-102599275D01*
G37*
X169034691Y-102599275D02*
X168905712Y-102603636D01*
X168796009Y-102616861D01*
X168703774Y-102639741D01*
X168627198Y-102673070D01*
X168564473Y-102717638D01*
X168513788Y-102774236D01*
X168473337Y-102843658D01*
X168472541Y-102845351D01*
X168448399Y-102907483D01*
X168439797Y-102962509D01*
X168446769Y-103017887D01*
X168469346Y-103081073D01*
X168473628Y-103090689D01*
X168502828Y-103146966D01*
X168535644Y-103190451D01*
X168577998Y-103227417D01*
X168635810Y-103264135D01*
X168639169Y-103266052D01*
X168689496Y-103290227D01*
X168746379Y-103308282D01*
X168813473Y-103320839D01*
X168894435Y-103328522D01*
X168992918Y-103331953D01*
X169027714Y-103332251D01*
X169193406Y-103332845D01*
X169216803Y-103303100D01*
X169223743Y-103293319D01*
X169229158Y-103281897D01*
X169233235Y-103266095D01*
X169236163Y-103243175D01*
X169238133Y-103210396D01*
X169238775Y-103186089D01*
X169082156Y-103186089D01*
X168988274Y-103186089D01*
X168933336Y-103184483D01*
X168876940Y-103180255D01*
X168830655Y-103174292D01*
X168827861Y-103173790D01*
X168745652Y-103151736D01*
X168681886Y-103118600D01*
X168634548Y-103072847D01*
X168601618Y-103012939D01*
X168595892Y-102997061D01*
X168590279Y-102972333D01*
X168592709Y-102947902D01*
X168604533Y-102915400D01*
X168611660Y-102899434D01*
X168635000Y-102857006D01*
X168663120Y-102827240D01*
X168694060Y-102806511D01*
X168756034Y-102779537D01*
X168835349Y-102759998D01*
X168927747Y-102748746D01*
X168994667Y-102746270D01*
X169082156Y-102745822D01*
X169082156Y-103186089D01*
X169238775Y-103186089D01*
X169239332Y-103165021D01*
X169239950Y-103104311D01*
X169240175Y-103025526D01*
X169240200Y-102963920D01*
X169240200Y-102654485D01*
X169212491Y-102626776D01*
X169200194Y-102615544D01*
X169186897Y-102607853D01*
X169168328Y-102603040D01*
X169140214Y-102600446D01*
X169098283Y-102599410D01*
X169038263Y-102599270D01*
X169034691Y-102599275D01*
G36*
X169822657Y-102599260D02*
G01*
X169746299Y-102600174D01*
X169687783Y-102602311D01*
X169644745Y-102606175D01*
X169614817Y-102612267D01*
X169595632Y-102621090D01*
X169584824Y-102633146D01*
X169580027Y-102648939D01*
X169578873Y-102668970D01*
X169578867Y-102671335D01*
X169579869Y-102693992D01*
X169584604Y-102711503D01*
X169595667Y-102724574D01*
X169615652Y-102733913D01*
X169647154Y-102740227D01*
X169692768Y-102744222D01*
X169755087Y-102746606D01*
X169836707Y-102748086D01*
X169861723Y-102748414D01*
X170103800Y-102751467D01*
X170107186Y-102816378D01*
X170110571Y-102881289D01*
X169942424Y-102881289D01*
X169876734Y-102881531D01*
X169829828Y-102882556D01*
X169797917Y-102884811D01*
X169777209Y-102888742D01*
X169763916Y-102894798D01*
X169754245Y-102903424D01*
X169754183Y-102903493D01*
X169736644Y-102937112D01*
X169737278Y-102973448D01*
X169755686Y-103004423D01*
X169759329Y-103007607D01*
X169772259Y-103015812D01*
X169789976Y-103021521D01*
X169816430Y-103025162D01*
X169855568Y-103027167D01*
X169911338Y-103027964D01*
X169947006Y-103028045D01*
X170109445Y-103028045D01*
X170109445Y-103186089D01*
X169862839Y-103186089D01*
X169781420Y-103186231D01*
X169719590Y-103186814D01*
X169674363Y-103188068D01*
X169642752Y-103190227D01*
X169621769Y-103193523D01*
X169608427Y-103198189D01*
X169599739Y-103204457D01*
X169597550Y-103206733D01*
X169581386Y-103238280D01*
X169580203Y-103274168D01*
X169593464Y-103305285D01*
X169603957Y-103315271D01*
X169614871Y-103320769D01*
X169631783Y-103325022D01*
X169657367Y-103328180D01*
X169694299Y-103330392D01*
X169745254Y-103331806D01*
X169812906Y-103332572D01*
X169899931Y-103332838D01*
X169919606Y-103332845D01*
X170008089Y-103332787D01*
X170076773Y-103332467D01*
X170128436Y-103331667D01*
X170165855Y-103330167D01*
X170191810Y-103327749D01*
X170209078Y-103324194D01*
X170220438Y-103319282D01*
X170228668Y-103312795D01*
X170233183Y-103308138D01*
X170239979Y-103299889D01*
X170245288Y-103289669D01*
X170249294Y-103274800D01*
X170252179Y-103252602D01*
X170254126Y-103220393D01*
X170255319Y-103175496D01*
X170255939Y-103115228D01*
X170256171Y-103036911D01*
X170256200Y-102970994D01*
X170256129Y-102878628D01*
X170255792Y-102806117D01*
X170255002Y-102750737D01*
X170253574Y-102709765D01*
X170251321Y-102680478D01*
X170248057Y-102660153D01*
X170243596Y-102646066D01*
X170237752Y-102635495D01*
X170232803Y-102628811D01*
X170209406Y-102599067D01*
X169919226Y-102599067D01*
X169822657Y-102599260D01*
X169822657Y-102599260D01*
G37*
X169822657Y-102599260D02*
X169746299Y-102600174D01*
X169687783Y-102602311D01*
X169644745Y-102606175D01*
X169614817Y-102612267D01*
X169595632Y-102621090D01*
X169584824Y-102633146D01*
X169580027Y-102648939D01*
X169578873Y-102668970D01*
X169578867Y-102671335D01*
X169579869Y-102693992D01*
X169584604Y-102711503D01*
X169595667Y-102724574D01*
X169615652Y-102733913D01*
X169647154Y-102740227D01*
X169692768Y-102744222D01*
X169755087Y-102746606D01*
X169836707Y-102748086D01*
X169861723Y-102748414D01*
X170103800Y-102751467D01*
X170107186Y-102816378D01*
X170110571Y-102881289D01*
X169942424Y-102881289D01*
X169876734Y-102881531D01*
X169829828Y-102882556D01*
X169797917Y-102884811D01*
X169777209Y-102888742D01*
X169763916Y-102894798D01*
X169754245Y-102903424D01*
X169754183Y-102903493D01*
X169736644Y-102937112D01*
X169737278Y-102973448D01*
X169755686Y-103004423D01*
X169759329Y-103007607D01*
X169772259Y-103015812D01*
X169789976Y-103021521D01*
X169816430Y-103025162D01*
X169855568Y-103027167D01*
X169911338Y-103027964D01*
X169947006Y-103028045D01*
X170109445Y-103028045D01*
X170109445Y-103186089D01*
X169862839Y-103186089D01*
X169781420Y-103186231D01*
X169719590Y-103186814D01*
X169674363Y-103188068D01*
X169642752Y-103190227D01*
X169621769Y-103193523D01*
X169608427Y-103198189D01*
X169599739Y-103204457D01*
X169597550Y-103206733D01*
X169581386Y-103238280D01*
X169580203Y-103274168D01*
X169593464Y-103305285D01*
X169603957Y-103315271D01*
X169614871Y-103320769D01*
X169631783Y-103325022D01*
X169657367Y-103328180D01*
X169694299Y-103330392D01*
X169745254Y-103331806D01*
X169812906Y-103332572D01*
X169899931Y-103332838D01*
X169919606Y-103332845D01*
X170008089Y-103332787D01*
X170076773Y-103332467D01*
X170128436Y-103331667D01*
X170165855Y-103330167D01*
X170191810Y-103327749D01*
X170209078Y-103324194D01*
X170220438Y-103319282D01*
X170228668Y-103312795D01*
X170233183Y-103308138D01*
X170239979Y-103299889D01*
X170245288Y-103289669D01*
X170249294Y-103274800D01*
X170252179Y-103252602D01*
X170254126Y-103220393D01*
X170255319Y-103175496D01*
X170255939Y-103115228D01*
X170256171Y-103036911D01*
X170256200Y-102970994D01*
X170256129Y-102878628D01*
X170255792Y-102806117D01*
X170255002Y-102750737D01*
X170253574Y-102709765D01*
X170251321Y-102680478D01*
X170248057Y-102660153D01*
X170243596Y-102646066D01*
X170237752Y-102635495D01*
X170232803Y-102628811D01*
X170209406Y-102599067D01*
X169919226Y-102599067D01*
X169822657Y-102599260D01*
G36*
X171353114Y-102603448D02*
G01*
X171329548Y-102617273D01*
X171298735Y-102639881D01*
X171259078Y-102672338D01*
X171208980Y-102715708D01*
X171146843Y-102771058D01*
X171071072Y-102839451D01*
X170984334Y-102918084D01*
X170803711Y-103081878D01*
X170798067Y-102862029D01*
X170796029Y-102786351D01*
X170794063Y-102729994D01*
X170791734Y-102689706D01*
X170788606Y-102662235D01*
X170784245Y-102644329D01*
X170778216Y-102632737D01*
X170770084Y-102624208D01*
X170765772Y-102620623D01*
X170731241Y-102601670D01*
X170698383Y-102604441D01*
X170672318Y-102620633D01*
X170645667Y-102642199D01*
X170642352Y-102957151D01*
X170641435Y-103049779D01*
X170640968Y-103122544D01*
X170641113Y-103178161D01*
X170642032Y-103219342D01*
X170643887Y-103248803D01*
X170646839Y-103269255D01*
X170651050Y-103283413D01*
X170656682Y-103293991D01*
X170662927Y-103302474D01*
X170676439Y-103318207D01*
X170689883Y-103328636D01*
X170705124Y-103332639D01*
X170724026Y-103329094D01*
X170748455Y-103316879D01*
X170780273Y-103294871D01*
X170821348Y-103261949D01*
X170873542Y-103216991D01*
X170938722Y-103158875D01*
X171012556Y-103092099D01*
X171277845Y-102851458D01*
X171283489Y-103070589D01*
X171285531Y-103146128D01*
X171287502Y-103202354D01*
X171289839Y-103242524D01*
X171292981Y-103269896D01*
X171297364Y-103287728D01*
X171303424Y-103299279D01*
X171311600Y-103307807D01*
X171315784Y-103311282D01*
X171352765Y-103330372D01*
X171387708Y-103327493D01*
X171418136Y-103303100D01*
X171425097Y-103293286D01*
X171430523Y-103281826D01*
X171434603Y-103265968D01*
X171437529Y-103242963D01*
X171439492Y-103210062D01*
X171440683Y-103164516D01*
X171441292Y-103103573D01*
X171441511Y-103024486D01*
X171441534Y-102965956D01*
X171441460Y-102874407D01*
X171441113Y-102802687D01*
X171440301Y-102748045D01*
X171438833Y-102707732D01*
X171436519Y-102678998D01*
X171433167Y-102659093D01*
X171428588Y-102645268D01*
X171422589Y-102634772D01*
X171418136Y-102628811D01*
X171406850Y-102614691D01*
X171396301Y-102604029D01*
X171384893Y-102597892D01*
X171371030Y-102597343D01*
X171353114Y-102603448D01*
X171353114Y-102603448D01*
G37*
X171353114Y-102603448D02*
X171329548Y-102617273D01*
X171298735Y-102639881D01*
X171259078Y-102672338D01*
X171208980Y-102715708D01*
X171146843Y-102771058D01*
X171071072Y-102839451D01*
X170984334Y-102918084D01*
X170803711Y-103081878D01*
X170798067Y-102862029D01*
X170796029Y-102786351D01*
X170794063Y-102729994D01*
X170791734Y-102689706D01*
X170788606Y-102662235D01*
X170784245Y-102644329D01*
X170778216Y-102632737D01*
X170770084Y-102624208D01*
X170765772Y-102620623D01*
X170731241Y-102601670D01*
X170698383Y-102604441D01*
X170672318Y-102620633D01*
X170645667Y-102642199D01*
X170642352Y-102957151D01*
X170641435Y-103049779D01*
X170640968Y-103122544D01*
X170641113Y-103178161D01*
X170642032Y-103219342D01*
X170643887Y-103248803D01*
X170646839Y-103269255D01*
X170651050Y-103283413D01*
X170656682Y-103293991D01*
X170662927Y-103302474D01*
X170676439Y-103318207D01*
X170689883Y-103328636D01*
X170705124Y-103332639D01*
X170724026Y-103329094D01*
X170748455Y-103316879D01*
X170780273Y-103294871D01*
X170821348Y-103261949D01*
X170873542Y-103216991D01*
X170938722Y-103158875D01*
X171012556Y-103092099D01*
X171277845Y-102851458D01*
X171283489Y-103070589D01*
X171285531Y-103146128D01*
X171287502Y-103202354D01*
X171289839Y-103242524D01*
X171292981Y-103269896D01*
X171297364Y-103287728D01*
X171303424Y-103299279D01*
X171311600Y-103307807D01*
X171315784Y-103311282D01*
X171352765Y-103330372D01*
X171387708Y-103327493D01*
X171418136Y-103303100D01*
X171425097Y-103293286D01*
X171430523Y-103281826D01*
X171434603Y-103265968D01*
X171437529Y-103242963D01*
X171439492Y-103210062D01*
X171440683Y-103164516D01*
X171441292Y-103103573D01*
X171441511Y-103024486D01*
X171441534Y-102965956D01*
X171441460Y-102874407D01*
X171441113Y-102802687D01*
X171440301Y-102748045D01*
X171438833Y-102707732D01*
X171436519Y-102678998D01*
X171433167Y-102659093D01*
X171428588Y-102645268D01*
X171422589Y-102634772D01*
X171418136Y-102628811D01*
X171406850Y-102614691D01*
X171396301Y-102604029D01*
X171384893Y-102597892D01*
X171371030Y-102597343D01*
X171353114Y-102603448D01*
G36*
X172003081Y-102604599D02*
G01*
X171934565Y-102616095D01*
X171881943Y-102633967D01*
X171847708Y-102657499D01*
X171838379Y-102670924D01*
X171828893Y-102702148D01*
X171835277Y-102730395D01*
X171855430Y-102757182D01*
X171886745Y-102769713D01*
X171932183Y-102768696D01*
X171967326Y-102761906D01*
X172045419Y-102748971D01*
X172125226Y-102747742D01*
X172214555Y-102758241D01*
X172239229Y-102762690D01*
X172322291Y-102786108D01*
X172387273Y-102820945D01*
X172433461Y-102866604D01*
X172460145Y-102922494D01*
X172465663Y-102951388D01*
X172462051Y-103010012D01*
X172438729Y-103061879D01*
X172397824Y-103105978D01*
X172341459Y-103141299D01*
X172271760Y-103166829D01*
X172190852Y-103181559D01*
X172100860Y-103184478D01*
X172003910Y-103174575D01*
X171998436Y-103173641D01*
X171959875Y-103166459D01*
X171938494Y-103159521D01*
X171929227Y-103149227D01*
X171927006Y-103131976D01*
X171926956Y-103122841D01*
X171926956Y-103084489D01*
X171995431Y-103084489D01*
X172055900Y-103080347D01*
X172097165Y-103067147D01*
X172121175Y-103043730D01*
X172129877Y-103008936D01*
X172129983Y-103004394D01*
X172124892Y-102974654D01*
X172107433Y-102953419D01*
X172074939Y-102939366D01*
X172024743Y-102931173D01*
X171976123Y-102928161D01*
X171905456Y-102926433D01*
X171854198Y-102929070D01*
X171819239Y-102938800D01*
X171797470Y-102958353D01*
X171785780Y-102990456D01*
X171781060Y-103037838D01*
X171780200Y-103100071D01*
X171781609Y-103169535D01*
X171785848Y-103216786D01*
X171792936Y-103242012D01*
X171794311Y-103243988D01*
X171833228Y-103275508D01*
X171890286Y-103300470D01*
X171961869Y-103318340D01*
X172044358Y-103328586D01*
X172134139Y-103330673D01*
X172227592Y-103324068D01*
X172282556Y-103315956D01*
X172368766Y-103291554D01*
X172448892Y-103251662D01*
X172515977Y-103199887D01*
X172526173Y-103189539D01*
X172559302Y-103146035D01*
X172589194Y-103092118D01*
X172612357Y-103035592D01*
X172625298Y-102984259D01*
X172626858Y-102964544D01*
X172620218Y-102923419D01*
X172602568Y-102872252D01*
X172577297Y-102818394D01*
X172547789Y-102769195D01*
X172521719Y-102736334D01*
X172460765Y-102687452D01*
X172381969Y-102648545D01*
X172288157Y-102620494D01*
X172182150Y-102604179D01*
X172085000Y-102600192D01*
X172003081Y-102604599D01*
X172003081Y-102604599D01*
G37*
X172003081Y-102604599D02*
X171934565Y-102616095D01*
X171881943Y-102633967D01*
X171847708Y-102657499D01*
X171838379Y-102670924D01*
X171828893Y-102702148D01*
X171835277Y-102730395D01*
X171855430Y-102757182D01*
X171886745Y-102769713D01*
X171932183Y-102768696D01*
X171967326Y-102761906D01*
X172045419Y-102748971D01*
X172125226Y-102747742D01*
X172214555Y-102758241D01*
X172239229Y-102762690D01*
X172322291Y-102786108D01*
X172387273Y-102820945D01*
X172433461Y-102866604D01*
X172460145Y-102922494D01*
X172465663Y-102951388D01*
X172462051Y-103010012D01*
X172438729Y-103061879D01*
X172397824Y-103105978D01*
X172341459Y-103141299D01*
X172271760Y-103166829D01*
X172190852Y-103181559D01*
X172100860Y-103184478D01*
X172003910Y-103174575D01*
X171998436Y-103173641D01*
X171959875Y-103166459D01*
X171938494Y-103159521D01*
X171929227Y-103149227D01*
X171927006Y-103131976D01*
X171926956Y-103122841D01*
X171926956Y-103084489D01*
X171995431Y-103084489D01*
X172055900Y-103080347D01*
X172097165Y-103067147D01*
X172121175Y-103043730D01*
X172129877Y-103008936D01*
X172129983Y-103004394D01*
X172124892Y-102974654D01*
X172107433Y-102953419D01*
X172074939Y-102939366D01*
X172024743Y-102931173D01*
X171976123Y-102928161D01*
X171905456Y-102926433D01*
X171854198Y-102929070D01*
X171819239Y-102938800D01*
X171797470Y-102958353D01*
X171785780Y-102990456D01*
X171781060Y-103037838D01*
X171780200Y-103100071D01*
X171781609Y-103169535D01*
X171785848Y-103216786D01*
X171792936Y-103242012D01*
X171794311Y-103243988D01*
X171833228Y-103275508D01*
X171890286Y-103300470D01*
X171961869Y-103318340D01*
X172044358Y-103328586D01*
X172134139Y-103330673D01*
X172227592Y-103324068D01*
X172282556Y-103315956D01*
X172368766Y-103291554D01*
X172448892Y-103251662D01*
X172515977Y-103199887D01*
X172526173Y-103189539D01*
X172559302Y-103146035D01*
X172589194Y-103092118D01*
X172612357Y-103035592D01*
X172625298Y-102984259D01*
X172626858Y-102964544D01*
X172620218Y-102923419D01*
X172602568Y-102872252D01*
X172577297Y-102818394D01*
X172547789Y-102769195D01*
X172521719Y-102736334D01*
X172460765Y-102687452D01*
X172381969Y-102648545D01*
X172288157Y-102620494D01*
X172182150Y-102604179D01*
X172085000Y-102600192D01*
X172003081Y-102604599D01*
G36*
X172976822Y-102621645D02*
G01*
X172970242Y-102629218D01*
X172965079Y-102638987D01*
X172961164Y-102653571D01*
X172958324Y-102675585D01*
X172956387Y-102707648D01*
X172955183Y-102752375D01*
X172954539Y-102812385D01*
X172954284Y-102890294D01*
X172954245Y-102965956D01*
X172954314Y-103059802D01*
X172954638Y-103133689D01*
X172955386Y-103190232D01*
X172956732Y-103232049D01*
X172958846Y-103261757D01*
X172961900Y-103281973D01*
X172966066Y-103295314D01*
X172971516Y-103304398D01*
X172976822Y-103310267D01*
X173009826Y-103329947D01*
X173044991Y-103328181D01*
X173076455Y-103306717D01*
X173083684Y-103298337D01*
X173089334Y-103288614D01*
X173093599Y-103274861D01*
X173096673Y-103254389D01*
X173098752Y-103224512D01*
X173100030Y-103182541D01*
X173100701Y-103125789D01*
X173100959Y-103051567D01*
X173101000Y-102967537D01*
X173101000Y-102654485D01*
X173073291Y-102626776D01*
X173039137Y-102603463D01*
X173006006Y-102602623D01*
X172976822Y-102621645D01*
X172976822Y-102621645D01*
G37*
X172976822Y-102621645D02*
X172970242Y-102629218D01*
X172965079Y-102638987D01*
X172961164Y-102653571D01*
X172958324Y-102675585D01*
X172956387Y-102707648D01*
X172955183Y-102752375D01*
X172954539Y-102812385D01*
X172954284Y-102890294D01*
X172954245Y-102965956D01*
X172954314Y-103059802D01*
X172954638Y-103133689D01*
X172955386Y-103190232D01*
X172956732Y-103232049D01*
X172958846Y-103261757D01*
X172961900Y-103281973D01*
X172966066Y-103295314D01*
X172971516Y-103304398D01*
X172976822Y-103310267D01*
X173009826Y-103329947D01*
X173044991Y-103328181D01*
X173076455Y-103306717D01*
X173083684Y-103298337D01*
X173089334Y-103288614D01*
X173093599Y-103274861D01*
X173096673Y-103254389D01*
X173098752Y-103224512D01*
X173100030Y-103182541D01*
X173100701Y-103125789D01*
X173100959Y-103051567D01*
X173101000Y-102967537D01*
X173101000Y-102654485D01*
X173073291Y-102626776D01*
X173039137Y-102603463D01*
X173006006Y-102602623D01*
X172976822Y-102621645D01*
G36*
X173744703Y-102600351D02*
G01*
X173669888Y-102605581D01*
X173600306Y-102613750D01*
X173540002Y-102624550D01*
X173493020Y-102637673D01*
X173463406Y-102652813D01*
X173458860Y-102657269D01*
X173443054Y-102691850D01*
X173447847Y-102727351D01*
X173472364Y-102757725D01*
X173473534Y-102758596D01*
X173487954Y-102767954D01*
X173503008Y-102772876D01*
X173524005Y-102773473D01*
X173556257Y-102769861D01*
X173605073Y-102762154D01*
X173609000Y-102761505D01*
X173681739Y-102752569D01*
X173760217Y-102748161D01*
X173838927Y-102748119D01*
X173912361Y-102752279D01*
X173975011Y-102760479D01*
X174021370Y-102772557D01*
X174024416Y-102773771D01*
X174058048Y-102792615D01*
X174069864Y-102811685D01*
X174060614Y-102830439D01*
X174031047Y-102848337D01*
X173981911Y-102864837D01*
X173913957Y-102879396D01*
X173868645Y-102886406D01*
X173774456Y-102899889D01*
X173699544Y-102912214D01*
X173640717Y-102924449D01*
X173594785Y-102937661D01*
X173558555Y-102952917D01*
X173528838Y-102971285D01*
X173502442Y-102993831D01*
X173481230Y-103015971D01*
X173456065Y-103046819D01*
X173443681Y-103073345D01*
X173439808Y-103106026D01*
X173439667Y-103117995D01*
X173442576Y-103157712D01*
X173454202Y-103187259D01*
X173474323Y-103213486D01*
X173515216Y-103253576D01*
X173560817Y-103284149D01*
X173614513Y-103306203D01*
X173679692Y-103320735D01*
X173759744Y-103328741D01*
X173858057Y-103331218D01*
X173874289Y-103331177D01*
X173939849Y-103329818D01*
X174004866Y-103326730D01*
X174062252Y-103322356D01*
X174104922Y-103317140D01*
X174108372Y-103316541D01*
X174150796Y-103306491D01*
X174186780Y-103293796D01*
X174207150Y-103282190D01*
X174226107Y-103251572D01*
X174227427Y-103215918D01*
X174211085Y-103184144D01*
X174207429Y-103180551D01*
X174192315Y-103169876D01*
X174173415Y-103165276D01*
X174144162Y-103166059D01*
X174108651Y-103170127D01*
X174068970Y-103173762D01*
X174013345Y-103176828D01*
X173948406Y-103179053D01*
X173880785Y-103180164D01*
X173863000Y-103180237D01*
X173795128Y-103179964D01*
X173745454Y-103178646D01*
X173709610Y-103175827D01*
X173683224Y-103171050D01*
X173661926Y-103163857D01*
X173649126Y-103157867D01*
X173621000Y-103141233D01*
X173603068Y-103126168D01*
X173600447Y-103121897D01*
X173605976Y-103104263D01*
X173632260Y-103087192D01*
X173677478Y-103071458D01*
X173739808Y-103057838D01*
X173758171Y-103054804D01*
X173854090Y-103039738D01*
X173930641Y-103027146D01*
X173990780Y-103016111D01*
X174037460Y-103005720D01*
X174073637Y-102995056D01*
X174102265Y-102983205D01*
X174126298Y-102969251D01*
X174148692Y-102952281D01*
X174172402Y-102931378D01*
X174180380Y-102924049D01*
X174208353Y-102896699D01*
X174223160Y-102875029D01*
X174228952Y-102850232D01*
X174229889Y-102818983D01*
X174219575Y-102757705D01*
X174188752Y-102705640D01*
X174137595Y-102662958D01*
X174066283Y-102629825D01*
X174015400Y-102614964D01*
X173960100Y-102605366D01*
X173893853Y-102599936D01*
X173820706Y-102598367D01*
X173744703Y-102600351D01*
X173744703Y-102600351D01*
G37*
X173744703Y-102600351D02*
X173669888Y-102605581D01*
X173600306Y-102613750D01*
X173540002Y-102624550D01*
X173493020Y-102637673D01*
X173463406Y-102652813D01*
X173458860Y-102657269D01*
X173443054Y-102691850D01*
X173447847Y-102727351D01*
X173472364Y-102757725D01*
X173473534Y-102758596D01*
X173487954Y-102767954D01*
X173503008Y-102772876D01*
X173524005Y-102773473D01*
X173556257Y-102769861D01*
X173605073Y-102762154D01*
X173609000Y-102761505D01*
X173681739Y-102752569D01*
X173760217Y-102748161D01*
X173838927Y-102748119D01*
X173912361Y-102752279D01*
X173975011Y-102760479D01*
X174021370Y-102772557D01*
X174024416Y-102773771D01*
X174058048Y-102792615D01*
X174069864Y-102811685D01*
X174060614Y-102830439D01*
X174031047Y-102848337D01*
X173981911Y-102864837D01*
X173913957Y-102879396D01*
X173868645Y-102886406D01*
X173774456Y-102899889D01*
X173699544Y-102912214D01*
X173640717Y-102924449D01*
X173594785Y-102937661D01*
X173558555Y-102952917D01*
X173528838Y-102971285D01*
X173502442Y-102993831D01*
X173481230Y-103015971D01*
X173456065Y-103046819D01*
X173443681Y-103073345D01*
X173439808Y-103106026D01*
X173439667Y-103117995D01*
X173442576Y-103157712D01*
X173454202Y-103187259D01*
X173474323Y-103213486D01*
X173515216Y-103253576D01*
X173560817Y-103284149D01*
X173614513Y-103306203D01*
X173679692Y-103320735D01*
X173759744Y-103328741D01*
X173858057Y-103331218D01*
X173874289Y-103331177D01*
X173939849Y-103329818D01*
X174004866Y-103326730D01*
X174062252Y-103322356D01*
X174104922Y-103317140D01*
X174108372Y-103316541D01*
X174150796Y-103306491D01*
X174186780Y-103293796D01*
X174207150Y-103282190D01*
X174226107Y-103251572D01*
X174227427Y-103215918D01*
X174211085Y-103184144D01*
X174207429Y-103180551D01*
X174192315Y-103169876D01*
X174173415Y-103165276D01*
X174144162Y-103166059D01*
X174108651Y-103170127D01*
X174068970Y-103173762D01*
X174013345Y-103176828D01*
X173948406Y-103179053D01*
X173880785Y-103180164D01*
X173863000Y-103180237D01*
X173795128Y-103179964D01*
X173745454Y-103178646D01*
X173709610Y-103175827D01*
X173683224Y-103171050D01*
X173661926Y-103163857D01*
X173649126Y-103157867D01*
X173621000Y-103141233D01*
X173603068Y-103126168D01*
X173600447Y-103121897D01*
X173605976Y-103104263D01*
X173632260Y-103087192D01*
X173677478Y-103071458D01*
X173739808Y-103057838D01*
X173758171Y-103054804D01*
X173854090Y-103039738D01*
X173930641Y-103027146D01*
X173990780Y-103016111D01*
X174037460Y-103005720D01*
X174073637Y-102995056D01*
X174102265Y-102983205D01*
X174126298Y-102969251D01*
X174148692Y-102952281D01*
X174172402Y-102931378D01*
X174180380Y-102924049D01*
X174208353Y-102896699D01*
X174223160Y-102875029D01*
X174228952Y-102850232D01*
X174229889Y-102818983D01*
X174219575Y-102757705D01*
X174188752Y-102705640D01*
X174137595Y-102662958D01*
X174066283Y-102629825D01*
X174015400Y-102614964D01*
X173960100Y-102605366D01*
X173893853Y-102599936D01*
X173820706Y-102598367D01*
X173744703Y-102600351D01*
G36*
X174765794Y-102599146D02*
G01*
X174696386Y-102599518D01*
X174643997Y-102600385D01*
X174605847Y-102601946D01*
X174579159Y-102604403D01*
X174561153Y-102607957D01*
X174549049Y-102612810D01*
X174540069Y-102619161D01*
X174536818Y-102622084D01*
X174517043Y-102653142D01*
X174513482Y-102688828D01*
X174526491Y-102720510D01*
X174532506Y-102726913D01*
X174542235Y-102733121D01*
X174557901Y-102737910D01*
X174582408Y-102741514D01*
X174618661Y-102744164D01*
X174669565Y-102746095D01*
X174738026Y-102747539D01*
X174800617Y-102748418D01*
X175048334Y-102751467D01*
X175051719Y-102816378D01*
X175055105Y-102881289D01*
X174886958Y-102881289D01*
X174813959Y-102881919D01*
X174760517Y-102884553D01*
X174723628Y-102890309D01*
X174700288Y-102900304D01*
X174687494Y-102915656D01*
X174682242Y-102937482D01*
X174681445Y-102957738D01*
X174683923Y-102982592D01*
X174693277Y-103000906D01*
X174712383Y-103013637D01*
X174744118Y-103021741D01*
X174791359Y-103026176D01*
X174856983Y-103027899D01*
X174892801Y-103028045D01*
X175053978Y-103028045D01*
X175053978Y-103186089D01*
X174805622Y-103186089D01*
X174724213Y-103186202D01*
X174662342Y-103186712D01*
X174616968Y-103187870D01*
X174585054Y-103189930D01*
X174563559Y-103193146D01*
X174549443Y-103197772D01*
X174539668Y-103204059D01*
X174534689Y-103208667D01*
X174517610Y-103235560D01*
X174512111Y-103259467D01*
X174519963Y-103288667D01*
X174534689Y-103310267D01*
X174542546Y-103317066D01*
X174552688Y-103322346D01*
X174567844Y-103326298D01*
X174590741Y-103329113D01*
X174624109Y-103330982D01*
X174670675Y-103332098D01*
X174733167Y-103332651D01*
X174814314Y-103332833D01*
X174856422Y-103332845D01*
X174946598Y-103332765D01*
X175016924Y-103332398D01*
X175070129Y-103331552D01*
X175108940Y-103330036D01*
X175136087Y-103327659D01*
X175154298Y-103324229D01*
X175166300Y-103319554D01*
X175174822Y-103313444D01*
X175178156Y-103310267D01*
X175184755Y-103302670D01*
X175189927Y-103292870D01*
X175193846Y-103278239D01*
X175196684Y-103256152D01*
X175198615Y-103223982D01*
X175199812Y-103179103D01*
X175200448Y-103118889D01*
X175200697Y-103040713D01*
X175200734Y-102967923D01*
X175200700Y-102874707D01*
X175200465Y-102801431D01*
X175199830Y-102745458D01*
X175198594Y-102704151D01*
X175196556Y-102674872D01*
X175193517Y-102654984D01*
X175189277Y-102641850D01*
X175183635Y-102632832D01*
X175176391Y-102625293D01*
X175174606Y-102623612D01*
X175165945Y-102616172D01*
X175155882Y-102610409D01*
X175141625Y-102606112D01*
X175120383Y-102603064D01*
X175089364Y-102601051D01*
X175045777Y-102599860D01*
X174986831Y-102599275D01*
X174909734Y-102599083D01*
X174855001Y-102599067D01*
X174765794Y-102599146D01*
X174765794Y-102599146D01*
G37*
X174765794Y-102599146D02*
X174696386Y-102599518D01*
X174643997Y-102600385D01*
X174605847Y-102601946D01*
X174579159Y-102604403D01*
X174561153Y-102607957D01*
X174549049Y-102612810D01*
X174540069Y-102619161D01*
X174536818Y-102622084D01*
X174517043Y-102653142D01*
X174513482Y-102688828D01*
X174526491Y-102720510D01*
X174532506Y-102726913D01*
X174542235Y-102733121D01*
X174557901Y-102737910D01*
X174582408Y-102741514D01*
X174618661Y-102744164D01*
X174669565Y-102746095D01*
X174738026Y-102747539D01*
X174800617Y-102748418D01*
X175048334Y-102751467D01*
X175051719Y-102816378D01*
X175055105Y-102881289D01*
X174886958Y-102881289D01*
X174813959Y-102881919D01*
X174760517Y-102884553D01*
X174723628Y-102890309D01*
X174700288Y-102900304D01*
X174687494Y-102915656D01*
X174682242Y-102937482D01*
X174681445Y-102957738D01*
X174683923Y-102982592D01*
X174693277Y-103000906D01*
X174712383Y-103013637D01*
X174744118Y-103021741D01*
X174791359Y-103026176D01*
X174856983Y-103027899D01*
X174892801Y-103028045D01*
X175053978Y-103028045D01*
X175053978Y-103186089D01*
X174805622Y-103186089D01*
X174724213Y-103186202D01*
X174662342Y-103186712D01*
X174616968Y-103187870D01*
X174585054Y-103189930D01*
X174563559Y-103193146D01*
X174549443Y-103197772D01*
X174539668Y-103204059D01*
X174534689Y-103208667D01*
X174517610Y-103235560D01*
X174512111Y-103259467D01*
X174519963Y-103288667D01*
X174534689Y-103310267D01*
X174542546Y-103317066D01*
X174552688Y-103322346D01*
X174567844Y-103326298D01*
X174590741Y-103329113D01*
X174624109Y-103330982D01*
X174670675Y-103332098D01*
X174733167Y-103332651D01*
X174814314Y-103332833D01*
X174856422Y-103332845D01*
X174946598Y-103332765D01*
X175016924Y-103332398D01*
X175070129Y-103331552D01*
X175108940Y-103330036D01*
X175136087Y-103327659D01*
X175154298Y-103324229D01*
X175166300Y-103319554D01*
X175174822Y-103313444D01*
X175178156Y-103310267D01*
X175184755Y-103302670D01*
X175189927Y-103292870D01*
X175193846Y-103278239D01*
X175196684Y-103256152D01*
X175198615Y-103223982D01*
X175199812Y-103179103D01*
X175200448Y-103118889D01*
X175200697Y-103040713D01*
X175200734Y-102967923D01*
X175200700Y-102874707D01*
X175200465Y-102801431D01*
X175199830Y-102745458D01*
X175198594Y-102704151D01*
X175196556Y-102674872D01*
X175193517Y-102654984D01*
X175189277Y-102641850D01*
X175183635Y-102632832D01*
X175176391Y-102625293D01*
X175174606Y-102623612D01*
X175165945Y-102616172D01*
X175155882Y-102610409D01*
X175141625Y-102606112D01*
X175120383Y-102603064D01*
X175089364Y-102601051D01*
X175045777Y-102599860D01*
X174986831Y-102599275D01*
X174909734Y-102599083D01*
X174855001Y-102599067D01*
X174765794Y-102599146D01*
G36*
X176174371Y-102599066D02*
G01*
X176134889Y-102599467D01*
X176019200Y-102602259D01*
X175922311Y-102610550D01*
X175840919Y-102625232D01*
X175771723Y-102647193D01*
X175711420Y-102677322D01*
X175656708Y-102716510D01*
X175637167Y-102733532D01*
X175604750Y-102773363D01*
X175575520Y-102827413D01*
X175552991Y-102887323D01*
X175540679Y-102944739D01*
X175539400Y-102965956D01*
X175547417Y-103024769D01*
X175568899Y-103089013D01*
X175599999Y-103149821D01*
X175636866Y-103198330D01*
X175642854Y-103204182D01*
X175693579Y-103245321D01*
X175749125Y-103277435D01*
X175812696Y-103301365D01*
X175887494Y-103317953D01*
X175976722Y-103328041D01*
X176083582Y-103332469D01*
X176132528Y-103332845D01*
X176194762Y-103332545D01*
X176238528Y-103331292D01*
X176267931Y-103328554D01*
X176287079Y-103323801D01*
X176300077Y-103316501D01*
X176307045Y-103310267D01*
X176313626Y-103302694D01*
X176318788Y-103292924D01*
X176322703Y-103278340D01*
X176325543Y-103256326D01*
X176327480Y-103224264D01*
X176328684Y-103179536D01*
X176329328Y-103119526D01*
X176329583Y-103041617D01*
X176329622Y-102965956D01*
X176329870Y-102865041D01*
X176329817Y-102784427D01*
X176328857Y-102745822D01*
X176182867Y-102745822D01*
X176182867Y-103186089D01*
X176089734Y-103186004D01*
X176033693Y-103184396D01*
X175974999Y-103180256D01*
X175926028Y-103174464D01*
X175924538Y-103174226D01*
X175845392Y-103155090D01*
X175784002Y-103125287D01*
X175737305Y-103082878D01*
X175707635Y-103036961D01*
X175689353Y-102986026D01*
X175690771Y-102938200D01*
X175711988Y-102886933D01*
X175753489Y-102833899D01*
X175810998Y-102794600D01*
X175885750Y-102768331D01*
X175935708Y-102759035D01*
X175992416Y-102752507D01*
X176052519Y-102747782D01*
X176103639Y-102745817D01*
X176106667Y-102745808D01*
X176182867Y-102745822D01*
X176328857Y-102745822D01*
X176328260Y-102721851D01*
X176323998Y-102675055D01*
X176315830Y-102641778D01*
X176302556Y-102619759D01*
X176282974Y-102606739D01*
X176255883Y-102600457D01*
X176220082Y-102598653D01*
X176174371Y-102599066D01*
X176174371Y-102599066D01*
G37*
X176174371Y-102599066D02*
X176134889Y-102599467D01*
X176019200Y-102602259D01*
X175922311Y-102610550D01*
X175840919Y-102625232D01*
X175771723Y-102647193D01*
X175711420Y-102677322D01*
X175656708Y-102716510D01*
X175637167Y-102733532D01*
X175604750Y-102773363D01*
X175575520Y-102827413D01*
X175552991Y-102887323D01*
X175540679Y-102944739D01*
X175539400Y-102965956D01*
X175547417Y-103024769D01*
X175568899Y-103089013D01*
X175599999Y-103149821D01*
X175636866Y-103198330D01*
X175642854Y-103204182D01*
X175693579Y-103245321D01*
X175749125Y-103277435D01*
X175812696Y-103301365D01*
X175887494Y-103317953D01*
X175976722Y-103328041D01*
X176083582Y-103332469D01*
X176132528Y-103332845D01*
X176194762Y-103332545D01*
X176238528Y-103331292D01*
X176267931Y-103328554D01*
X176287079Y-103323801D01*
X176300077Y-103316501D01*
X176307045Y-103310267D01*
X176313626Y-103302694D01*
X176318788Y-103292924D01*
X176322703Y-103278340D01*
X176325543Y-103256326D01*
X176327480Y-103224264D01*
X176328684Y-103179536D01*
X176329328Y-103119526D01*
X176329583Y-103041617D01*
X176329622Y-102965956D01*
X176329870Y-102865041D01*
X176329817Y-102784427D01*
X176328857Y-102745822D01*
X176182867Y-102745822D01*
X176182867Y-103186089D01*
X176089734Y-103186004D01*
X176033693Y-103184396D01*
X175974999Y-103180256D01*
X175926028Y-103174464D01*
X175924538Y-103174226D01*
X175845392Y-103155090D01*
X175784002Y-103125287D01*
X175737305Y-103082878D01*
X175707635Y-103036961D01*
X175689353Y-102986026D01*
X175690771Y-102938200D01*
X175711988Y-102886933D01*
X175753489Y-102833899D01*
X175810998Y-102794600D01*
X175885750Y-102768331D01*
X175935708Y-102759035D01*
X175992416Y-102752507D01*
X176052519Y-102747782D01*
X176103639Y-102745817D01*
X176106667Y-102745808D01*
X176182867Y-102745822D01*
X176328857Y-102745822D01*
X176328260Y-102721851D01*
X176323998Y-102675055D01*
X176315830Y-102641778D01*
X176302556Y-102619759D01*
X176282974Y-102606739D01*
X176255883Y-102600457D01*
X176220082Y-102598653D01*
X176174371Y-102599066D01*
G36*
X172326043Y-97356571D02*
G01*
X172229768Y-97380809D01*
X172143184Y-97423641D01*
X172068373Y-97483419D01*
X172007418Y-97558494D01*
X171962399Y-97647220D01*
X171936136Y-97743530D01*
X171930286Y-97840795D01*
X171945140Y-97934654D01*
X171978840Y-98022511D01*
X172029528Y-98101770D01*
X172095345Y-98169836D01*
X172174434Y-98224112D01*
X172264934Y-98262002D01*
X172316200Y-98274426D01*
X172360698Y-98281947D01*
X172394999Y-98284919D01*
X172427960Y-98283094D01*
X172468434Y-98276225D01*
X172501531Y-98269250D01*
X172594947Y-98237741D01*
X172678619Y-98186617D01*
X172750665Y-98117429D01*
X172809200Y-98031728D01*
X172823148Y-98004489D01*
X172839586Y-97968122D01*
X172849894Y-97937582D01*
X172855460Y-97905450D01*
X172857669Y-97864307D01*
X172857948Y-97818222D01*
X172853861Y-97733865D01*
X172840446Y-97664586D01*
X172815256Y-97603961D01*
X172775846Y-97545567D01*
X172737298Y-97501302D01*
X172665406Y-97435484D01*
X172590313Y-97390053D01*
X172507562Y-97362850D01*
X172429928Y-97352576D01*
X172326043Y-97356571D01*
X172326043Y-97356571D01*
G37*
X172326043Y-97356571D02*
X172229768Y-97380809D01*
X172143184Y-97423641D01*
X172068373Y-97483419D01*
X172007418Y-97558494D01*
X171962399Y-97647220D01*
X171936136Y-97743530D01*
X171930286Y-97840795D01*
X171945140Y-97934654D01*
X171978840Y-98022511D01*
X172029528Y-98101770D01*
X172095345Y-98169836D01*
X172174434Y-98224112D01*
X172264934Y-98262002D01*
X172316200Y-98274426D01*
X172360698Y-98281947D01*
X172394999Y-98284919D01*
X172427960Y-98283094D01*
X172468434Y-98276225D01*
X172501531Y-98269250D01*
X172594947Y-98237741D01*
X172678619Y-98186617D01*
X172750665Y-98117429D01*
X172809200Y-98031728D01*
X172823148Y-98004489D01*
X172839586Y-97968122D01*
X172849894Y-97937582D01*
X172855460Y-97905450D01*
X172857669Y-97864307D01*
X172857948Y-97818222D01*
X172853861Y-97733865D01*
X172840446Y-97664586D01*
X172815256Y-97603961D01*
X172775846Y-97545567D01*
X172737298Y-97501302D01*
X172665406Y-97435484D01*
X172590313Y-97390053D01*
X172507562Y-97362850D01*
X172429928Y-97352576D01*
X172326043Y-97356571D01*
G36*
X163866493Y-99802245D02*
G01*
X163866474Y-100036662D01*
X163866448Y-100249603D01*
X163866375Y-100442168D01*
X163866218Y-100615459D01*
X163865936Y-100770576D01*
X163865491Y-100908620D01*
X163864844Y-101030692D01*
X163863955Y-101137894D01*
X163862787Y-101231326D01*
X163861299Y-101312090D01*
X163859454Y-101381286D01*
X163857211Y-101440015D01*
X163854531Y-101489379D01*
X163851377Y-101530478D01*
X163847708Y-101564413D01*
X163843487Y-101592286D01*
X163838673Y-101615198D01*
X163833227Y-101634249D01*
X163827112Y-101650540D01*
X163820288Y-101665173D01*
X163812715Y-101679249D01*
X163804355Y-101693868D01*
X163799161Y-101702974D01*
X163764896Y-101763689D01*
X164623045Y-101763689D01*
X164623045Y-101667733D01*
X164623776Y-101624370D01*
X164625728Y-101591205D01*
X164628537Y-101573424D01*
X164629779Y-101571778D01*
X164641201Y-101578662D01*
X164663916Y-101596505D01*
X164686615Y-101615879D01*
X164741200Y-101656614D01*
X164810679Y-101697617D01*
X164887730Y-101735123D01*
X164965035Y-101765364D01*
X164995887Y-101775012D01*
X165064384Y-101789578D01*
X165147236Y-101799539D01*
X165236629Y-101804583D01*
X165324752Y-101804396D01*
X165403793Y-101798666D01*
X165441489Y-101792858D01*
X165579586Y-101754797D01*
X165706887Y-101697073D01*
X165822708Y-101620211D01*
X165926363Y-101524739D01*
X166017167Y-101411179D01*
X166083969Y-101300381D01*
X166138836Y-101183625D01*
X166180837Y-101064276D01*
X166210833Y-100938283D01*
X166229689Y-100801594D01*
X166238268Y-100650158D01*
X166238994Y-100572711D01*
X166236900Y-100515934D01*
X165407783Y-100515934D01*
X165407576Y-100609002D01*
X165404663Y-100696692D01*
X165399000Y-100773772D01*
X165390545Y-100835009D01*
X165387962Y-100847350D01*
X165356160Y-100954633D01*
X165314502Y-101041658D01*
X165262637Y-101108642D01*
X165200219Y-101155805D01*
X165126900Y-101183365D01*
X165042331Y-101191541D01*
X164946165Y-101180551D01*
X164882689Y-101164829D01*
X164833546Y-101146639D01*
X164779417Y-101120791D01*
X164738756Y-101097089D01*
X164668200Y-101050721D01*
X164668200Y-99900530D01*
X164735608Y-99856962D01*
X164814133Y-99816040D01*
X164898319Y-99789389D01*
X164983443Y-99777465D01*
X165064784Y-99780722D01*
X165137620Y-99799615D01*
X165169574Y-99815184D01*
X165227499Y-99858181D01*
X165276456Y-99914953D01*
X165317610Y-99987575D01*
X165352126Y-100078121D01*
X165381167Y-100188666D01*
X165382448Y-100194533D01*
X165392619Y-100256788D01*
X165400261Y-100334594D01*
X165405330Y-100422720D01*
X165407783Y-100515934D01*
X166236900Y-100515934D01*
X166231143Y-100359895D01*
X166209198Y-100164059D01*
X166173214Y-99985332D01*
X166123241Y-99823845D01*
X166059332Y-99679726D01*
X165981538Y-99553106D01*
X165889911Y-99444115D01*
X165784503Y-99352883D01*
X165739338Y-99321932D01*
X165638389Y-99265785D01*
X165535099Y-99226174D01*
X165425011Y-99202014D01*
X165303670Y-99192219D01*
X165211164Y-99193265D01*
X165081510Y-99204231D01*
X164968916Y-99226046D01*
X164870125Y-99259714D01*
X164781879Y-99306236D01*
X164733014Y-99340448D01*
X164703647Y-99362362D01*
X164681957Y-99377333D01*
X164673747Y-99381733D01*
X164672132Y-99370904D01*
X164670841Y-99340251D01*
X164669862Y-99292526D01*
X164669183Y-99230479D01*
X164668790Y-99156862D01*
X164668670Y-99074427D01*
X164668812Y-98985925D01*
X164669203Y-98894107D01*
X164669829Y-98801724D01*
X164670680Y-98711528D01*
X164671740Y-98626271D01*
X164672999Y-98548703D01*
X164674444Y-98481576D01*
X164676062Y-98427641D01*
X164677839Y-98389650D01*
X164678331Y-98382667D01*
X164685908Y-98312251D01*
X164697469Y-98257102D01*
X164715208Y-98209981D01*
X164741318Y-98163647D01*
X164747585Y-98154067D01*
X164772017Y-98117378D01*
X163866689Y-98117378D01*
X163866493Y-99802245D01*
X163866493Y-99802245D01*
G37*
X163866493Y-99802245D02*
X163866474Y-100036662D01*
X163866448Y-100249603D01*
X163866375Y-100442168D01*
X163866218Y-100615459D01*
X163865936Y-100770576D01*
X163865491Y-100908620D01*
X163864844Y-101030692D01*
X163863955Y-101137894D01*
X163862787Y-101231326D01*
X163861299Y-101312090D01*
X163859454Y-101381286D01*
X163857211Y-101440015D01*
X163854531Y-101489379D01*
X163851377Y-101530478D01*
X163847708Y-101564413D01*
X163843487Y-101592286D01*
X163838673Y-101615198D01*
X163833227Y-101634249D01*
X163827112Y-101650540D01*
X163820288Y-101665173D01*
X163812715Y-101679249D01*
X163804355Y-101693868D01*
X163799161Y-101702974D01*
X163764896Y-101763689D01*
X164623045Y-101763689D01*
X164623045Y-101667733D01*
X164623776Y-101624370D01*
X164625728Y-101591205D01*
X164628537Y-101573424D01*
X164629779Y-101571778D01*
X164641201Y-101578662D01*
X164663916Y-101596505D01*
X164686615Y-101615879D01*
X164741200Y-101656614D01*
X164810679Y-101697617D01*
X164887730Y-101735123D01*
X164965035Y-101765364D01*
X164995887Y-101775012D01*
X165064384Y-101789578D01*
X165147236Y-101799539D01*
X165236629Y-101804583D01*
X165324752Y-101804396D01*
X165403793Y-101798666D01*
X165441489Y-101792858D01*
X165579586Y-101754797D01*
X165706887Y-101697073D01*
X165822708Y-101620211D01*
X165926363Y-101524739D01*
X166017167Y-101411179D01*
X166083969Y-101300381D01*
X166138836Y-101183625D01*
X166180837Y-101064276D01*
X166210833Y-100938283D01*
X166229689Y-100801594D01*
X166238268Y-100650158D01*
X166238994Y-100572711D01*
X166236900Y-100515934D01*
X165407783Y-100515934D01*
X165407576Y-100609002D01*
X165404663Y-100696692D01*
X165399000Y-100773772D01*
X165390545Y-100835009D01*
X165387962Y-100847350D01*
X165356160Y-100954633D01*
X165314502Y-101041658D01*
X165262637Y-101108642D01*
X165200219Y-101155805D01*
X165126900Y-101183365D01*
X165042331Y-101191541D01*
X164946165Y-101180551D01*
X164882689Y-101164829D01*
X164833546Y-101146639D01*
X164779417Y-101120791D01*
X164738756Y-101097089D01*
X164668200Y-101050721D01*
X164668200Y-99900530D01*
X164735608Y-99856962D01*
X164814133Y-99816040D01*
X164898319Y-99789389D01*
X164983443Y-99777465D01*
X165064784Y-99780722D01*
X165137620Y-99799615D01*
X165169574Y-99815184D01*
X165227499Y-99858181D01*
X165276456Y-99914953D01*
X165317610Y-99987575D01*
X165352126Y-100078121D01*
X165381167Y-100188666D01*
X165382448Y-100194533D01*
X165392619Y-100256788D01*
X165400261Y-100334594D01*
X165405330Y-100422720D01*
X165407783Y-100515934D01*
X166236900Y-100515934D01*
X166231143Y-100359895D01*
X166209198Y-100164059D01*
X166173214Y-99985332D01*
X166123241Y-99823845D01*
X166059332Y-99679726D01*
X165981538Y-99553106D01*
X165889911Y-99444115D01*
X165784503Y-99352883D01*
X165739338Y-99321932D01*
X165638389Y-99265785D01*
X165535099Y-99226174D01*
X165425011Y-99202014D01*
X165303670Y-99192219D01*
X165211164Y-99193265D01*
X165081510Y-99204231D01*
X164968916Y-99226046D01*
X164870125Y-99259714D01*
X164781879Y-99306236D01*
X164733014Y-99340448D01*
X164703647Y-99362362D01*
X164681957Y-99377333D01*
X164673747Y-99381733D01*
X164672132Y-99370904D01*
X164670841Y-99340251D01*
X164669862Y-99292526D01*
X164669183Y-99230479D01*
X164668790Y-99156862D01*
X164668670Y-99074427D01*
X164668812Y-98985925D01*
X164669203Y-98894107D01*
X164669829Y-98801724D01*
X164670680Y-98711528D01*
X164671740Y-98626271D01*
X164672999Y-98548703D01*
X164674444Y-98481576D01*
X164676062Y-98427641D01*
X164677839Y-98389650D01*
X164678331Y-98382667D01*
X164685908Y-98312251D01*
X164697469Y-98257102D01*
X164715208Y-98209981D01*
X164741318Y-98163647D01*
X164747585Y-98154067D01*
X164772017Y-98117378D01*
X163866689Y-98117378D01*
X163866493Y-99802245D01*
G36*
X167379426Y-99196552D02*
G01*
X167227508Y-99216567D01*
X167092244Y-99250202D01*
X166972761Y-99297725D01*
X166868185Y-99359405D01*
X166790576Y-99422965D01*
X166721735Y-99497099D01*
X166667994Y-99576871D01*
X166625090Y-99669091D01*
X166609616Y-99712161D01*
X166596756Y-99751142D01*
X166585554Y-99787289D01*
X166575880Y-99822434D01*
X166567604Y-99858410D01*
X166560597Y-99897050D01*
X166554728Y-99940185D01*
X166549869Y-99989649D01*
X166545890Y-100047273D01*
X166542660Y-100114891D01*
X166540051Y-100194334D01*
X166537933Y-100287436D01*
X166536176Y-100396027D01*
X166534651Y-100521942D01*
X166533228Y-100667012D01*
X166531975Y-100809778D01*
X166530649Y-100965968D01*
X166529444Y-101101239D01*
X166528234Y-101217246D01*
X166526894Y-101315645D01*
X166525300Y-101398093D01*
X166523325Y-101466246D01*
X166520844Y-101521760D01*
X166517731Y-101566292D01*
X166513862Y-101601498D01*
X166509111Y-101629034D01*
X166503352Y-101650556D01*
X166496461Y-101667722D01*
X166488311Y-101682186D01*
X166478777Y-101695606D01*
X166467734Y-101709638D01*
X166463434Y-101715071D01*
X166447614Y-101737910D01*
X166440578Y-101753463D01*
X166440556Y-101753922D01*
X166451433Y-101756121D01*
X166482418Y-101758147D01*
X166531043Y-101759942D01*
X166594837Y-101761451D01*
X166671331Y-101762616D01*
X166758056Y-101763380D01*
X166852543Y-101763686D01*
X166863450Y-101763689D01*
X167286343Y-101763689D01*
X167289605Y-101667622D01*
X167292867Y-101571556D01*
X167354956Y-101622543D01*
X167452286Y-101690057D01*
X167562187Y-101744749D01*
X167648651Y-101774978D01*
X167717722Y-101789666D01*
X167801075Y-101799659D01*
X167890841Y-101804646D01*
X167979155Y-101804313D01*
X168058149Y-101798351D01*
X168094378Y-101792638D01*
X168234397Y-101754776D01*
X168360822Y-101699932D01*
X168472740Y-101628924D01*
X168569238Y-101542568D01*
X168649400Y-101441679D01*
X168712313Y-101327076D01*
X168756688Y-101200984D01*
X168769022Y-101144401D01*
X168776632Y-101082202D01*
X168780261Y-101007363D01*
X168780755Y-100973467D01*
X168780690Y-100970282D01*
X168020752Y-100970282D01*
X168011459Y-101045333D01*
X167983272Y-101109160D01*
X167934803Y-101164798D01*
X167929746Y-101169211D01*
X167881452Y-101204037D01*
X167829743Y-101226620D01*
X167769011Y-101238540D01*
X167693648Y-101241383D01*
X167675541Y-101240978D01*
X167621722Y-101238325D01*
X167581692Y-101232909D01*
X167546676Y-101222745D01*
X167507897Y-101205850D01*
X167497255Y-101200672D01*
X167436604Y-101164844D01*
X167389785Y-101122212D01*
X167377048Y-101106973D01*
X167332378Y-101050462D01*
X167332378Y-100854586D01*
X167332914Y-100775939D01*
X167334604Y-100717988D01*
X167337572Y-100678875D01*
X167341943Y-100656741D01*
X167346028Y-100650274D01*
X167361953Y-100647111D01*
X167395736Y-100644488D01*
X167442660Y-100642655D01*
X167498007Y-100641857D01*
X167506894Y-100641842D01*
X167627670Y-100647096D01*
X167730340Y-100663263D01*
X167816894Y-100690961D01*
X167889319Y-100730808D01*
X167944249Y-100777758D01*
X167988796Y-100835645D01*
X168013520Y-100898693D01*
X168020752Y-100970282D01*
X168780690Y-100970282D01*
X168778822Y-100879712D01*
X168770478Y-100800812D01*
X168754232Y-100729590D01*
X168728595Y-100658864D01*
X168704599Y-100606493D01*
X168645980Y-100511196D01*
X168567883Y-100423170D01*
X168472685Y-100344017D01*
X168362762Y-100275340D01*
X168240490Y-100218741D01*
X168108245Y-100175821D01*
X168043578Y-100160882D01*
X167907396Y-100138777D01*
X167758951Y-100124194D01*
X167607495Y-100117813D01*
X167480936Y-100119445D01*
X167319050Y-100126224D01*
X167326470Y-100067245D01*
X167345762Y-99968092D01*
X167376896Y-99887372D01*
X167420731Y-99824466D01*
X167478129Y-99778756D01*
X167549952Y-99749622D01*
X167637059Y-99736447D01*
X167740314Y-99738611D01*
X167778289Y-99742612D01*
X167919480Y-99767780D01*
X168056293Y-99808814D01*
X168150822Y-99846815D01*
X168195982Y-99866190D01*
X168234415Y-99881760D01*
X168260766Y-99891405D01*
X168268454Y-99893452D01*
X168278198Y-99884374D01*
X168294917Y-99855405D01*
X168318768Y-99806217D01*
X168349907Y-99736484D01*
X168388493Y-99645879D01*
X168395090Y-99630089D01*
X168425147Y-99557772D01*
X168452126Y-99492425D01*
X168474864Y-99436906D01*
X168492194Y-99394072D01*
X168502952Y-99366781D01*
X168506059Y-99357942D01*
X168496060Y-99353187D01*
X168469783Y-99347910D01*
X168441511Y-99344231D01*
X168411354Y-99339474D01*
X168363567Y-99330028D01*
X168302388Y-99316820D01*
X168232054Y-99300776D01*
X168156806Y-99282820D01*
X168128245Y-99275797D01*
X168023184Y-99250209D01*
X167935520Y-99230147D01*
X167860932Y-99214969D01*
X167795097Y-99204035D01*
X167733693Y-99196704D01*
X167672398Y-99192335D01*
X167606890Y-99190287D01*
X167548872Y-99189889D01*
X167379426Y-99196552D01*
X167379426Y-99196552D01*
G37*
X167379426Y-99196552D02*
X167227508Y-99216567D01*
X167092244Y-99250202D01*
X166972761Y-99297725D01*
X166868185Y-99359405D01*
X166790576Y-99422965D01*
X166721735Y-99497099D01*
X166667994Y-99576871D01*
X166625090Y-99669091D01*
X166609616Y-99712161D01*
X166596756Y-99751142D01*
X166585554Y-99787289D01*
X166575880Y-99822434D01*
X166567604Y-99858410D01*
X166560597Y-99897050D01*
X166554728Y-99940185D01*
X166549869Y-99989649D01*
X166545890Y-100047273D01*
X166542660Y-100114891D01*
X166540051Y-100194334D01*
X166537933Y-100287436D01*
X166536176Y-100396027D01*
X166534651Y-100521942D01*
X166533228Y-100667012D01*
X166531975Y-100809778D01*
X166530649Y-100965968D01*
X166529444Y-101101239D01*
X166528234Y-101217246D01*
X166526894Y-101315645D01*
X166525300Y-101398093D01*
X166523325Y-101466246D01*
X166520844Y-101521760D01*
X166517731Y-101566292D01*
X166513862Y-101601498D01*
X166509111Y-101629034D01*
X166503352Y-101650556D01*
X166496461Y-101667722D01*
X166488311Y-101682186D01*
X166478777Y-101695606D01*
X166467734Y-101709638D01*
X166463434Y-101715071D01*
X166447614Y-101737910D01*
X166440578Y-101753463D01*
X166440556Y-101753922D01*
X166451433Y-101756121D01*
X166482418Y-101758147D01*
X166531043Y-101759942D01*
X166594837Y-101761451D01*
X166671331Y-101762616D01*
X166758056Y-101763380D01*
X166852543Y-101763686D01*
X166863450Y-101763689D01*
X167286343Y-101763689D01*
X167289605Y-101667622D01*
X167292867Y-101571556D01*
X167354956Y-101622543D01*
X167452286Y-101690057D01*
X167562187Y-101744749D01*
X167648651Y-101774978D01*
X167717722Y-101789666D01*
X167801075Y-101799659D01*
X167890841Y-101804646D01*
X167979155Y-101804313D01*
X168058149Y-101798351D01*
X168094378Y-101792638D01*
X168234397Y-101754776D01*
X168360822Y-101699932D01*
X168472740Y-101628924D01*
X168569238Y-101542568D01*
X168649400Y-101441679D01*
X168712313Y-101327076D01*
X168756688Y-101200984D01*
X168769022Y-101144401D01*
X168776632Y-101082202D01*
X168780261Y-101007363D01*
X168780755Y-100973467D01*
X168780690Y-100970282D01*
X168020752Y-100970282D01*
X168011459Y-101045333D01*
X167983272Y-101109160D01*
X167934803Y-101164798D01*
X167929746Y-101169211D01*
X167881452Y-101204037D01*
X167829743Y-101226620D01*
X167769011Y-101238540D01*
X167693648Y-101241383D01*
X167675541Y-101240978D01*
X167621722Y-101238325D01*
X167581692Y-101232909D01*
X167546676Y-101222745D01*
X167507897Y-101205850D01*
X167497255Y-101200672D01*
X167436604Y-101164844D01*
X167389785Y-101122212D01*
X167377048Y-101106973D01*
X167332378Y-101050462D01*
X167332378Y-100854586D01*
X167332914Y-100775939D01*
X167334604Y-100717988D01*
X167337572Y-100678875D01*
X167341943Y-100656741D01*
X167346028Y-100650274D01*
X167361953Y-100647111D01*
X167395736Y-100644488D01*
X167442660Y-100642655D01*
X167498007Y-100641857D01*
X167506894Y-100641842D01*
X167627670Y-100647096D01*
X167730340Y-100663263D01*
X167816894Y-100690961D01*
X167889319Y-100730808D01*
X167944249Y-100777758D01*
X167988796Y-100835645D01*
X168013520Y-100898693D01*
X168020752Y-100970282D01*
X168780690Y-100970282D01*
X168778822Y-100879712D01*
X168770478Y-100800812D01*
X168754232Y-100729590D01*
X168728595Y-100658864D01*
X168704599Y-100606493D01*
X168645980Y-100511196D01*
X168567883Y-100423170D01*
X168472685Y-100344017D01*
X168362762Y-100275340D01*
X168240490Y-100218741D01*
X168108245Y-100175821D01*
X168043578Y-100160882D01*
X167907396Y-100138777D01*
X167758951Y-100124194D01*
X167607495Y-100117813D01*
X167480936Y-100119445D01*
X167319050Y-100126224D01*
X167326470Y-100067245D01*
X167345762Y-99968092D01*
X167376896Y-99887372D01*
X167420731Y-99824466D01*
X167478129Y-99778756D01*
X167549952Y-99749622D01*
X167637059Y-99736447D01*
X167740314Y-99738611D01*
X167778289Y-99742612D01*
X167919480Y-99767780D01*
X168056293Y-99808814D01*
X168150822Y-99846815D01*
X168195982Y-99866190D01*
X168234415Y-99881760D01*
X168260766Y-99891405D01*
X168268454Y-99893452D01*
X168278198Y-99884374D01*
X168294917Y-99855405D01*
X168318768Y-99806217D01*
X168349907Y-99736484D01*
X168388493Y-99645879D01*
X168395090Y-99630089D01*
X168425147Y-99557772D01*
X168452126Y-99492425D01*
X168474864Y-99436906D01*
X168492194Y-99394072D01*
X168502952Y-99366781D01*
X168506059Y-99357942D01*
X168496060Y-99353187D01*
X168469783Y-99347910D01*
X168441511Y-99344231D01*
X168411354Y-99339474D01*
X168363567Y-99330028D01*
X168302388Y-99316820D01*
X168232054Y-99300776D01*
X168156806Y-99282820D01*
X168128245Y-99275797D01*
X168023184Y-99250209D01*
X167935520Y-99230147D01*
X167860932Y-99214969D01*
X167795097Y-99204035D01*
X167733693Y-99196704D01*
X167672398Y-99192335D01*
X167606890Y-99190287D01*
X167548872Y-99189889D01*
X167379426Y-99196552D01*
G36*
X169724571Y-98279071D02*
G01*
X169564430Y-98300245D01*
X169400490Y-98340385D01*
X169230687Y-98399889D01*
X169052957Y-98479154D01*
X169041690Y-98484699D01*
X168983995Y-98512725D01*
X168932448Y-98536802D01*
X168890809Y-98555249D01*
X168862838Y-98566386D01*
X168853267Y-98568933D01*
X168834050Y-98573941D01*
X168829439Y-98578147D01*
X168834542Y-98588580D01*
X168850582Y-98614868D01*
X168875712Y-98654257D01*
X168908086Y-98703991D01*
X168945857Y-98761315D01*
X168987178Y-98823476D01*
X169030202Y-98887718D01*
X169073083Y-98951285D01*
X169113974Y-99011425D01*
X169151029Y-99065380D01*
X169182400Y-99110397D01*
X169206241Y-99143721D01*
X169220706Y-99162597D01*
X169222691Y-99164787D01*
X169232809Y-99160138D01*
X169255150Y-99142962D01*
X169285720Y-99116440D01*
X169301464Y-99101964D01*
X169397953Y-99026682D01*
X169504664Y-98971241D01*
X169620168Y-98936141D01*
X169743038Y-98921880D01*
X169812439Y-98923051D01*
X169933577Y-98940212D01*
X170042795Y-98976094D01*
X170140418Y-99030959D01*
X170226772Y-99105070D01*
X170302185Y-99198688D01*
X170366982Y-99312076D01*
X170404399Y-99398667D01*
X170448252Y-99534366D01*
X170480572Y-99681850D01*
X170501443Y-99837314D01*
X170510949Y-99996956D01*
X170509173Y-100156973D01*
X170496197Y-100313561D01*
X170472106Y-100462918D01*
X170436982Y-100601240D01*
X170390908Y-100724724D01*
X170374627Y-100758978D01*
X170306380Y-100873064D01*
X170225921Y-100969557D01*
X170134430Y-101047670D01*
X170033089Y-101106617D01*
X169923080Y-101145612D01*
X169805585Y-101163868D01*
X169764117Y-101165211D01*
X169642559Y-101154290D01*
X169522122Y-101121474D01*
X169404334Y-101067439D01*
X169290723Y-100992865D01*
X169199315Y-100914539D01*
X169152785Y-100870008D01*
X168971517Y-101167271D01*
X168926420Y-101241433D01*
X168885181Y-101309646D01*
X168849265Y-101369459D01*
X168820134Y-101418420D01*
X168799250Y-101454079D01*
X168788076Y-101473984D01*
X168786625Y-101477079D01*
X168794854Y-101486718D01*
X168820433Y-101503999D01*
X168860127Y-101527283D01*
X168910703Y-101554934D01*
X168968926Y-101585315D01*
X169031563Y-101616790D01*
X169095379Y-101647722D01*
X169157140Y-101676473D01*
X169213612Y-101701408D01*
X169261562Y-101720889D01*
X169285014Y-101729318D01*
X169418779Y-101767133D01*
X169556673Y-101792136D01*
X169704378Y-101805140D01*
X169831167Y-101807468D01*
X169899122Y-101806373D01*
X169964723Y-101804275D01*
X170022153Y-101801434D01*
X170065597Y-101798106D01*
X170079702Y-101796422D01*
X170218716Y-101767587D01*
X170360243Y-101722468D01*
X170497725Y-101663750D01*
X170624606Y-101594120D01*
X170702111Y-101541441D01*
X170829519Y-101433239D01*
X170947822Y-101306671D01*
X171054828Y-101164866D01*
X171148348Y-101010951D01*
X171226190Y-100848053D01*
X171270044Y-100730756D01*
X171320292Y-100547128D01*
X171353791Y-100352581D01*
X171370551Y-100151325D01*
X171370584Y-99947568D01*
X171353899Y-99745521D01*
X171320507Y-99549392D01*
X171270420Y-99363391D01*
X171266603Y-99351803D01*
X171203719Y-99189750D01*
X171126972Y-99041832D01*
X171033758Y-98903865D01*
X170921473Y-98771661D01*
X170877608Y-98726399D01*
X170741466Y-98602457D01*
X170601509Y-98499915D01*
X170455589Y-98417656D01*
X170301558Y-98354564D01*
X170137268Y-98309523D01*
X170041711Y-98292033D01*
X169882977Y-98276466D01*
X169724571Y-98279071D01*
X169724571Y-98279071D01*
G37*
X169724571Y-98279071D02*
X169564430Y-98300245D01*
X169400490Y-98340385D01*
X169230687Y-98399889D01*
X169052957Y-98479154D01*
X169041690Y-98484699D01*
X168983995Y-98512725D01*
X168932448Y-98536802D01*
X168890809Y-98555249D01*
X168862838Y-98566386D01*
X168853267Y-98568933D01*
X168834050Y-98573941D01*
X168829439Y-98578147D01*
X168834542Y-98588580D01*
X168850582Y-98614868D01*
X168875712Y-98654257D01*
X168908086Y-98703991D01*
X168945857Y-98761315D01*
X168987178Y-98823476D01*
X169030202Y-98887718D01*
X169073083Y-98951285D01*
X169113974Y-99011425D01*
X169151029Y-99065380D01*
X169182400Y-99110397D01*
X169206241Y-99143721D01*
X169220706Y-99162597D01*
X169222691Y-99164787D01*
X169232809Y-99160138D01*
X169255150Y-99142962D01*
X169285720Y-99116440D01*
X169301464Y-99101964D01*
X169397953Y-99026682D01*
X169504664Y-98971241D01*
X169620168Y-98936141D01*
X169743038Y-98921880D01*
X169812439Y-98923051D01*
X169933577Y-98940212D01*
X170042795Y-98976094D01*
X170140418Y-99030959D01*
X170226772Y-99105070D01*
X170302185Y-99198688D01*
X170366982Y-99312076D01*
X170404399Y-99398667D01*
X170448252Y-99534366D01*
X170480572Y-99681850D01*
X170501443Y-99837314D01*
X170510949Y-99996956D01*
X170509173Y-100156973D01*
X170496197Y-100313561D01*
X170472106Y-100462918D01*
X170436982Y-100601240D01*
X170390908Y-100724724D01*
X170374627Y-100758978D01*
X170306380Y-100873064D01*
X170225921Y-100969557D01*
X170134430Y-101047670D01*
X170033089Y-101106617D01*
X169923080Y-101145612D01*
X169805585Y-101163868D01*
X169764117Y-101165211D01*
X169642559Y-101154290D01*
X169522122Y-101121474D01*
X169404334Y-101067439D01*
X169290723Y-100992865D01*
X169199315Y-100914539D01*
X169152785Y-100870008D01*
X168971517Y-101167271D01*
X168926420Y-101241433D01*
X168885181Y-101309646D01*
X168849265Y-101369459D01*
X168820134Y-101418420D01*
X168799250Y-101454079D01*
X168788076Y-101473984D01*
X168786625Y-101477079D01*
X168794854Y-101486718D01*
X168820433Y-101503999D01*
X168860127Y-101527283D01*
X168910703Y-101554934D01*
X168968926Y-101585315D01*
X169031563Y-101616790D01*
X169095379Y-101647722D01*
X169157140Y-101676473D01*
X169213612Y-101701408D01*
X169261562Y-101720889D01*
X169285014Y-101729318D01*
X169418779Y-101767133D01*
X169556673Y-101792136D01*
X169704378Y-101805140D01*
X169831167Y-101807468D01*
X169899122Y-101806373D01*
X169964723Y-101804275D01*
X170022153Y-101801434D01*
X170065597Y-101798106D01*
X170079702Y-101796422D01*
X170218716Y-101767587D01*
X170360243Y-101722468D01*
X170497725Y-101663750D01*
X170624606Y-101594120D01*
X170702111Y-101541441D01*
X170829519Y-101433239D01*
X170947822Y-101306671D01*
X171054828Y-101164866D01*
X171148348Y-101010951D01*
X171226190Y-100848053D01*
X171270044Y-100730756D01*
X171320292Y-100547128D01*
X171353791Y-100352581D01*
X171370551Y-100151325D01*
X171370584Y-99947568D01*
X171353899Y-99745521D01*
X171320507Y-99549392D01*
X171270420Y-99363391D01*
X171266603Y-99351803D01*
X171203719Y-99189750D01*
X171126972Y-99041832D01*
X171033758Y-98903865D01*
X170921473Y-98771661D01*
X170877608Y-98726399D01*
X170741466Y-98602457D01*
X170601509Y-98499915D01*
X170455589Y-98417656D01*
X170301558Y-98354564D01*
X170137268Y-98309523D01*
X170041711Y-98292033D01*
X169882977Y-98276466D01*
X169724571Y-98279071D01*
G36*
X172999400Y-97819054D02*
G01*
X172988535Y-97932993D01*
X172956918Y-98040616D01*
X172906015Y-98139615D01*
X172837293Y-98227684D01*
X172752219Y-98302516D01*
X172655232Y-98360384D01*
X172548964Y-98400005D01*
X172441950Y-98418573D01*
X172336300Y-98417434D01*
X172234125Y-98397930D01*
X172137534Y-98361406D01*
X172048638Y-98309205D01*
X171969546Y-98242673D01*
X171902369Y-98163152D01*
X171849217Y-98071987D01*
X171812199Y-97970523D01*
X171793427Y-97860102D01*
X171791489Y-97810206D01*
X171791489Y-97722267D01*
X171739560Y-97722267D01*
X171703253Y-97725111D01*
X171676355Y-97736911D01*
X171649249Y-97760649D01*
X171610867Y-97799031D01*
X171610867Y-99990602D01*
X171610876Y-100252739D01*
X171610908Y-100493241D01*
X171610972Y-100713048D01*
X171611076Y-100913101D01*
X171611227Y-101094344D01*
X171611434Y-101257716D01*
X171611706Y-101404160D01*
X171612050Y-101534617D01*
X171612474Y-101650029D01*
X171612987Y-101751338D01*
X171613597Y-101839484D01*
X171614312Y-101915410D01*
X171615140Y-101980057D01*
X171616089Y-102034367D01*
X171617167Y-102079280D01*
X171618383Y-102115740D01*
X171619745Y-102144687D01*
X171621261Y-102167063D01*
X171622938Y-102183809D01*
X171624786Y-102195868D01*
X171626813Y-102204180D01*
X171629025Y-102209687D01*
X171630108Y-102211537D01*
X171634271Y-102218549D01*
X171637805Y-102224996D01*
X171641635Y-102230900D01*
X171646682Y-102236286D01*
X171653871Y-102241178D01*
X171664123Y-102245598D01*
X171678364Y-102249572D01*
X171697514Y-102253121D01*
X171722499Y-102256270D01*
X171754240Y-102259042D01*
X171793662Y-102261461D01*
X171841686Y-102263551D01*
X171899237Y-102265335D01*
X171967237Y-102266837D01*
X172046610Y-102268080D01*
X172138279Y-102269089D01*
X172243166Y-102269885D01*
X172362196Y-102270494D01*
X172496290Y-102270939D01*
X172646373Y-102271243D01*
X172813367Y-102271430D01*
X172998196Y-102271524D01*
X173201783Y-102271548D01*
X173425050Y-102271525D01*
X173668922Y-102271480D01*
X173934321Y-102271437D01*
X173972704Y-102271432D01*
X174239682Y-102271389D01*
X174485002Y-102271318D01*
X174709583Y-102271213D01*
X174914345Y-102271066D01*
X175100206Y-102270869D01*
X175268088Y-102270616D01*
X175418908Y-102270300D01*
X175553587Y-102269913D01*
X175673044Y-102269447D01*
X175778199Y-102268897D01*
X175869971Y-102268253D01*
X175949279Y-102267511D01*
X176017043Y-102266661D01*
X176074182Y-102265697D01*
X176121617Y-102264611D01*
X176160266Y-102263397D01*
X176191049Y-102262047D01*
X176214885Y-102260555D01*
X176232694Y-102258911D01*
X176245395Y-102257111D01*
X176253908Y-102255145D01*
X176258266Y-102253477D01*
X176266728Y-102249906D01*
X176274497Y-102247270D01*
X176281602Y-102244634D01*
X176288073Y-102241062D01*
X176293939Y-102235621D01*
X176299229Y-102227375D01*
X176303974Y-102215390D01*
X176308202Y-102198731D01*
X176311943Y-102176463D01*
X176315227Y-102147652D01*
X176318083Y-102111363D01*
X176320540Y-102066661D01*
X176322629Y-102012611D01*
X176324378Y-101948279D01*
X176325817Y-101872730D01*
X176326976Y-101785030D01*
X176327883Y-101684243D01*
X176328569Y-101569434D01*
X176329063Y-101439670D01*
X176329395Y-101294015D01*
X176329593Y-101131535D01*
X176329687Y-100951295D01*
X176329708Y-100752360D01*
X176329685Y-100533796D01*
X176329646Y-100294668D01*
X176329622Y-100034040D01*
X176329622Y-99991889D01*
X176329636Y-99728992D01*
X176329661Y-99487732D01*
X176329671Y-99267165D01*
X176329642Y-99066352D01*
X176329548Y-98884349D01*
X176329362Y-98720216D01*
X176329059Y-98573011D01*
X176328614Y-98441792D01*
X176328034Y-98331867D01*
X176025197Y-98331867D01*
X175985407Y-98389711D01*
X175974236Y-98405479D01*
X175964166Y-98419441D01*
X175955138Y-98432784D01*
X175947097Y-98446693D01*
X175939986Y-98462356D01*
X175933747Y-98480958D01*
X175928325Y-98503686D01*
X175923662Y-98531727D01*
X175919701Y-98566267D01*
X175916385Y-98608492D01*
X175913659Y-98659589D01*
X175911464Y-98720744D01*
X175909745Y-98793144D01*
X175908444Y-98877975D01*
X175907505Y-98976422D01*
X175906870Y-99089674D01*
X175906484Y-99218916D01*
X175906288Y-99365334D01*
X175906227Y-99530116D01*
X175906243Y-99714447D01*
X175906280Y-99919513D01*
X175906289Y-100042133D01*
X175906265Y-100259082D01*
X175906231Y-100454642D01*
X175906243Y-100629999D01*
X175906358Y-100786341D01*
X175906630Y-100924857D01*
X175907118Y-101046734D01*
X175907876Y-101153160D01*
X175908962Y-101245322D01*
X175910431Y-101324409D01*
X175912340Y-101391608D01*
X175914744Y-101448107D01*
X175917701Y-101495093D01*
X175921266Y-101533755D01*
X175925495Y-101565280D01*
X175930446Y-101590855D01*
X175936173Y-101611670D01*
X175942733Y-101628911D01*
X175950183Y-101643765D01*
X175958579Y-101657422D01*
X175967976Y-101671069D01*
X175978432Y-101685893D01*
X175984523Y-101694783D01*
X176023296Y-101752400D01*
X175491732Y-101752400D01*
X175368483Y-101752365D01*
X175265987Y-101752215D01*
X175182420Y-101751878D01*
X175115956Y-101751286D01*
X175064771Y-101750367D01*
X175027041Y-101749051D01*
X175000940Y-101747269D01*
X174984644Y-101744951D01*
X174976328Y-101742026D01*
X174974168Y-101738424D01*
X174976339Y-101734075D01*
X174977535Y-101732645D01*
X175002685Y-101695573D01*
X175028583Y-101642772D01*
X175052192Y-101580770D01*
X175060461Y-101554357D01*
X175065078Y-101536416D01*
X175068979Y-101515355D01*
X175072248Y-101489089D01*
X175074966Y-101455532D01*
X175077215Y-101412599D01*
X175079077Y-101358204D01*
X175080636Y-101290262D01*
X175081972Y-101206688D01*
X175083169Y-101105395D01*
X175084308Y-100984300D01*
X175084685Y-100939600D01*
X175085702Y-100814449D01*
X175086460Y-100710082D01*
X175086903Y-100624707D01*
X175086970Y-100556533D01*
X175086605Y-100503765D01*
X175085748Y-100464614D01*
X175084341Y-100437285D01*
X175082325Y-100419986D01*
X175079643Y-100410926D01*
X175076236Y-100408312D01*
X175072044Y-100410351D01*
X175067571Y-100414667D01*
X175057216Y-100427602D01*
X175035158Y-100456676D01*
X175002957Y-100499759D01*
X174962174Y-100554718D01*
X174914370Y-100619423D01*
X174861105Y-100691742D01*
X174803940Y-100769544D01*
X174744437Y-100850698D01*
X174684155Y-100933072D01*
X174624655Y-101014536D01*
X174567498Y-101092957D01*
X174514245Y-101166204D01*
X174466457Y-101232147D01*
X174425693Y-101288654D01*
X174393516Y-101333593D01*
X174371485Y-101364834D01*
X174366917Y-101371466D01*
X174343996Y-101408369D01*
X174317188Y-101456359D01*
X174291789Y-101505897D01*
X174288568Y-101512577D01*
X174266890Y-101560772D01*
X174254304Y-101598334D01*
X174248574Y-101634160D01*
X174247456Y-101676200D01*
X174248090Y-101752400D01*
X173093651Y-101752400D01*
X173184815Y-101658669D01*
X173231612Y-101608775D01*
X173281899Y-101552295D01*
X173327944Y-101498026D01*
X173348369Y-101472673D01*
X173378807Y-101433128D01*
X173418862Y-101379916D01*
X173467361Y-101314667D01*
X173523135Y-101239011D01*
X173585011Y-101154577D01*
X173651819Y-101062994D01*
X173722387Y-100965892D01*
X173795545Y-100864901D01*
X173870121Y-100761650D01*
X173944944Y-100657768D01*
X174018843Y-100554885D01*
X174090646Y-100454631D01*
X174159184Y-100358636D01*
X174223284Y-100268527D01*
X174281775Y-100185936D01*
X174333486Y-100112492D01*
X174377247Y-100049824D01*
X174411885Y-99999561D01*
X174436230Y-99963334D01*
X174449111Y-99942771D01*
X174450869Y-99938668D01*
X174442910Y-99927342D01*
X174422115Y-99900162D01*
X174389847Y-99858829D01*
X174347470Y-99805044D01*
X174296347Y-99740506D01*
X174237841Y-99666918D01*
X174173314Y-99585978D01*
X174104131Y-99499388D01*
X174031653Y-99408848D01*
X173957246Y-99316060D01*
X173897517Y-99241702D01*
X172886511Y-99241702D01*
X172880602Y-99254659D01*
X172866272Y-99276908D01*
X172865225Y-99278391D01*
X172846438Y-99308544D01*
X172826791Y-99345375D01*
X172822892Y-99353511D01*
X172819356Y-99361940D01*
X172816230Y-99372059D01*
X172813486Y-99385260D01*
X172811092Y-99402938D01*
X172809019Y-99426484D01*
X172807235Y-99457293D01*
X172805712Y-99496757D01*
X172804419Y-99546269D01*
X172803326Y-99607223D01*
X172802403Y-99681011D01*
X172801619Y-99769028D01*
X172800945Y-99872665D01*
X172800350Y-99993316D01*
X172799805Y-100132374D01*
X172799279Y-100291232D01*
X172798745Y-100470089D01*
X172798206Y-100655207D01*
X172797772Y-100819145D01*
X172797509Y-100963303D01*
X172797484Y-101089079D01*
X172797765Y-101197871D01*
X172798419Y-101291077D01*
X172799514Y-101370097D01*
X172801118Y-101436328D01*
X172803297Y-101491170D01*
X172806119Y-101536021D01*
X172809651Y-101572278D01*
X172813961Y-101601341D01*
X172819117Y-101624609D01*
X172825185Y-101643479D01*
X172832233Y-101659351D01*
X172840329Y-101673622D01*
X172849540Y-101687691D01*
X172858040Y-101700158D01*
X172875176Y-101726452D01*
X172885322Y-101744037D01*
X172886511Y-101747257D01*
X172875604Y-101748334D01*
X172844411Y-101749335D01*
X172795223Y-101750235D01*
X172730333Y-101751010D01*
X172652030Y-101751637D01*
X172562607Y-101752091D01*
X172464356Y-101752349D01*
X172395445Y-101752400D01*
X172290452Y-101752180D01*
X172193610Y-101751548D01*
X172107107Y-101750549D01*
X172033132Y-101749227D01*
X171973874Y-101747626D01*
X171931520Y-101745791D01*
X171908260Y-101743765D01*
X171904378Y-101742493D01*
X171912076Y-101727591D01*
X171920074Y-101719560D01*
X171933246Y-101702434D01*
X171950485Y-101672183D01*
X171962407Y-101647622D01*
X171989045Y-101588711D01*
X171992120Y-100411845D01*
X171995195Y-99234978D01*
X172440853Y-99234978D01*
X172538670Y-99235142D01*
X172629064Y-99235611D01*
X172709630Y-99236347D01*
X172777962Y-99237316D01*
X172831656Y-99238480D01*
X172868305Y-99239803D01*
X172885504Y-99241249D01*
X172886511Y-99241702D01*
X173897517Y-99241702D01*
X173882270Y-99222722D01*
X173808090Y-99130537D01*
X173736069Y-99041204D01*
X173667569Y-98956424D01*
X173603955Y-98877898D01*
X173546588Y-98807326D01*
X173496833Y-98746409D01*
X173456052Y-98696847D01*
X173438888Y-98676178D01*
X173352596Y-98575516D01*
X173275997Y-98492259D01*
X173207183Y-98424438D01*
X173144248Y-98370089D01*
X173134867Y-98362722D01*
X173095356Y-98332117D01*
X174227116Y-98331867D01*
X174221827Y-98379844D01*
X174225130Y-98437188D01*
X174246661Y-98505463D01*
X174286635Y-98585212D01*
X174331943Y-98657495D01*
X174348161Y-98680140D01*
X174376214Y-98717696D01*
X174414430Y-98768021D01*
X174461137Y-98828973D01*
X174514661Y-98898411D01*
X174573331Y-98974194D01*
X174635475Y-99054180D01*
X174699421Y-99136228D01*
X174763495Y-99218196D01*
X174826027Y-99297943D01*
X174885343Y-99373327D01*
X174939771Y-99442207D01*
X174987639Y-99502442D01*
X175027275Y-99551889D01*
X175057006Y-99588408D01*
X175075161Y-99609858D01*
X175078220Y-99613156D01*
X175081079Y-99605149D01*
X175083293Y-99574855D01*
X175084857Y-99522556D01*
X175085767Y-99448531D01*
X175086020Y-99353063D01*
X175085613Y-99236434D01*
X175084704Y-99116445D01*
X175083382Y-98984333D01*
X175081857Y-98872594D01*
X175079881Y-98779025D01*
X175077206Y-98701419D01*
X175073582Y-98637574D01*
X175068761Y-98585283D01*
X175062494Y-98542344D01*
X175054532Y-98506551D01*
X175044627Y-98475700D01*
X175032531Y-98447586D01*
X175017993Y-98420005D01*
X175003311Y-98394966D01*
X174965314Y-98331867D01*
X176025197Y-98331867D01*
X176328034Y-98331867D01*
X176328001Y-98325617D01*
X176327195Y-98223544D01*
X176326170Y-98134633D01*
X176324900Y-98057941D01*
X176323360Y-97992527D01*
X176321524Y-97937449D01*
X176319367Y-97891765D01*
X176316863Y-97854534D01*
X176313987Y-97824813D01*
X176310713Y-97801662D01*
X176307015Y-97784139D01*
X176302869Y-97771301D01*
X176298247Y-97762208D01*
X176293126Y-97755918D01*
X176287478Y-97751488D01*
X176281279Y-97747978D01*
X176274504Y-97744445D01*
X176268508Y-97740876D01*
X176263275Y-97738300D01*
X176255099Y-97735972D01*
X176242886Y-97733878D01*
X176225541Y-97732007D01*
X176201969Y-97730347D01*
X176171077Y-97728884D01*
X176131768Y-97727608D01*
X176082950Y-97726504D01*
X176023527Y-97725561D01*
X175952404Y-97724767D01*
X175868488Y-97724109D01*
X175770683Y-97723575D01*
X175657894Y-97723153D01*
X175529029Y-97722829D01*
X175382991Y-97722592D01*
X175218686Y-97722430D01*
X175035020Y-97722330D01*
X174830897Y-97722280D01*
X174619753Y-97722267D01*
X172999400Y-97722267D01*
X172999400Y-97819054D01*
X172999400Y-97819054D01*
G37*
X172999400Y-97819054D02*
X172988535Y-97932993D01*
X172956918Y-98040616D01*
X172906015Y-98139615D01*
X172837293Y-98227684D01*
X172752219Y-98302516D01*
X172655232Y-98360384D01*
X172548964Y-98400005D01*
X172441950Y-98418573D01*
X172336300Y-98417434D01*
X172234125Y-98397930D01*
X172137534Y-98361406D01*
X172048638Y-98309205D01*
X171969546Y-98242673D01*
X171902369Y-98163152D01*
X171849217Y-98071987D01*
X171812199Y-97970523D01*
X171793427Y-97860102D01*
X171791489Y-97810206D01*
X171791489Y-97722267D01*
X171739560Y-97722267D01*
X171703253Y-97725111D01*
X171676355Y-97736911D01*
X171649249Y-97760649D01*
X171610867Y-97799031D01*
X171610867Y-99990602D01*
X171610876Y-100252739D01*
X171610908Y-100493241D01*
X171610972Y-100713048D01*
X171611076Y-100913101D01*
X171611227Y-101094344D01*
X171611434Y-101257716D01*
X171611706Y-101404160D01*
X171612050Y-101534617D01*
X171612474Y-101650029D01*
X171612987Y-101751338D01*
X171613597Y-101839484D01*
X171614312Y-101915410D01*
X171615140Y-101980057D01*
X171616089Y-102034367D01*
X171617167Y-102079280D01*
X171618383Y-102115740D01*
X171619745Y-102144687D01*
X171621261Y-102167063D01*
X171622938Y-102183809D01*
X171624786Y-102195868D01*
X171626813Y-102204180D01*
X171629025Y-102209687D01*
X171630108Y-102211537D01*
X171634271Y-102218549D01*
X171637805Y-102224996D01*
X171641635Y-102230900D01*
X171646682Y-102236286D01*
X171653871Y-102241178D01*
X171664123Y-102245598D01*
X171678364Y-102249572D01*
X171697514Y-102253121D01*
X171722499Y-102256270D01*
X171754240Y-102259042D01*
X171793662Y-102261461D01*
X171841686Y-102263551D01*
X171899237Y-102265335D01*
X171967237Y-102266837D01*
X172046610Y-102268080D01*
X172138279Y-102269089D01*
X172243166Y-102269885D01*
X172362196Y-102270494D01*
X172496290Y-102270939D01*
X172646373Y-102271243D01*
X172813367Y-102271430D01*
X172998196Y-102271524D01*
X173201783Y-102271548D01*
X173425050Y-102271525D01*
X173668922Y-102271480D01*
X173934321Y-102271437D01*
X173972704Y-102271432D01*
X174239682Y-102271389D01*
X174485002Y-102271318D01*
X174709583Y-102271213D01*
X174914345Y-102271066D01*
X175100206Y-102270869D01*
X175268088Y-102270616D01*
X175418908Y-102270300D01*
X175553587Y-102269913D01*
X175673044Y-102269447D01*
X175778199Y-102268897D01*
X175869971Y-102268253D01*
X175949279Y-102267511D01*
X176017043Y-102266661D01*
X176074182Y-102265697D01*
X176121617Y-102264611D01*
X176160266Y-102263397D01*
X176191049Y-102262047D01*
X176214885Y-102260555D01*
X176232694Y-102258911D01*
X176245395Y-102257111D01*
X176253908Y-102255145D01*
X176258266Y-102253477D01*
X176266728Y-102249906D01*
X176274497Y-102247270D01*
X176281602Y-102244634D01*
X176288073Y-102241062D01*
X176293939Y-102235621D01*
X176299229Y-102227375D01*
X176303974Y-102215390D01*
X176308202Y-102198731D01*
X176311943Y-102176463D01*
X176315227Y-102147652D01*
X176318083Y-102111363D01*
X176320540Y-102066661D01*
X176322629Y-102012611D01*
X176324378Y-101948279D01*
X176325817Y-101872730D01*
X176326976Y-101785030D01*
X176327883Y-101684243D01*
X176328569Y-101569434D01*
X176329063Y-101439670D01*
X176329395Y-101294015D01*
X176329593Y-101131535D01*
X176329687Y-100951295D01*
X176329708Y-100752360D01*
X176329685Y-100533796D01*
X176329646Y-100294668D01*
X176329622Y-100034040D01*
X176329622Y-99991889D01*
X176329636Y-99728992D01*
X176329661Y-99487732D01*
X176329671Y-99267165D01*
X176329642Y-99066352D01*
X176329548Y-98884349D01*
X176329362Y-98720216D01*
X176329059Y-98573011D01*
X176328614Y-98441792D01*
X176328034Y-98331867D01*
X176025197Y-98331867D01*
X175985407Y-98389711D01*
X175974236Y-98405479D01*
X175964166Y-98419441D01*
X175955138Y-98432784D01*
X175947097Y-98446693D01*
X175939986Y-98462356D01*
X175933747Y-98480958D01*
X175928325Y-98503686D01*
X175923662Y-98531727D01*
X175919701Y-98566267D01*
X175916385Y-98608492D01*
X175913659Y-98659589D01*
X175911464Y-98720744D01*
X175909745Y-98793144D01*
X175908444Y-98877975D01*
X175907505Y-98976422D01*
X175906870Y-99089674D01*
X175906484Y-99218916D01*
X175906288Y-99365334D01*
X175906227Y-99530116D01*
X175906243Y-99714447D01*
X175906280Y-99919513D01*
X175906289Y-100042133D01*
X175906265Y-100259082D01*
X175906231Y-100454642D01*
X175906243Y-100629999D01*
X175906358Y-100786341D01*
X175906630Y-100924857D01*
X175907118Y-101046734D01*
X175907876Y-101153160D01*
X175908962Y-101245322D01*
X175910431Y-101324409D01*
X175912340Y-101391608D01*
X175914744Y-101448107D01*
X175917701Y-101495093D01*
X175921266Y-101533755D01*
X175925495Y-101565280D01*
X175930446Y-101590855D01*
X175936173Y-101611670D01*
X175942733Y-101628911D01*
X175950183Y-101643765D01*
X175958579Y-101657422D01*
X175967976Y-101671069D01*
X175978432Y-101685893D01*
X175984523Y-101694783D01*
X176023296Y-101752400D01*
X175491732Y-101752400D01*
X175368483Y-101752365D01*
X175265987Y-101752215D01*
X175182420Y-101751878D01*
X175115956Y-101751286D01*
X175064771Y-101750367D01*
X175027041Y-101749051D01*
X175000940Y-101747269D01*
X174984644Y-101744951D01*
X174976328Y-101742026D01*
X174974168Y-101738424D01*
X174976339Y-101734075D01*
X174977535Y-101732645D01*
X175002685Y-101695573D01*
X175028583Y-101642772D01*
X175052192Y-101580770D01*
X175060461Y-101554357D01*
X175065078Y-101536416D01*
X175068979Y-101515355D01*
X175072248Y-101489089D01*
X175074966Y-101455532D01*
X175077215Y-101412599D01*
X175079077Y-101358204D01*
X175080636Y-101290262D01*
X175081972Y-101206688D01*
X175083169Y-101105395D01*
X175084308Y-100984300D01*
X175084685Y-100939600D01*
X175085702Y-100814449D01*
X175086460Y-100710082D01*
X175086903Y-100624707D01*
X175086970Y-100556533D01*
X175086605Y-100503765D01*
X175085748Y-100464614D01*
X175084341Y-100437285D01*
X175082325Y-100419986D01*
X175079643Y-100410926D01*
X175076236Y-100408312D01*
X175072044Y-100410351D01*
X175067571Y-100414667D01*
X175057216Y-100427602D01*
X175035158Y-100456676D01*
X175002957Y-100499759D01*
X174962174Y-100554718D01*
X174914370Y-100619423D01*
X174861105Y-100691742D01*
X174803940Y-100769544D01*
X174744437Y-100850698D01*
X174684155Y-100933072D01*
X174624655Y-101014536D01*
X174567498Y-101092957D01*
X174514245Y-101166204D01*
X174466457Y-101232147D01*
X174425693Y-101288654D01*
X174393516Y-101333593D01*
X174371485Y-101364834D01*
X174366917Y-101371466D01*
X174343996Y-101408369D01*
X174317188Y-101456359D01*
X174291789Y-101505897D01*
X174288568Y-101512577D01*
X174266890Y-101560772D01*
X174254304Y-101598334D01*
X174248574Y-101634160D01*
X174247456Y-101676200D01*
X174248090Y-101752400D01*
X173093651Y-101752400D01*
X173184815Y-101658669D01*
X173231612Y-101608775D01*
X173281899Y-101552295D01*
X173327944Y-101498026D01*
X173348369Y-101472673D01*
X173378807Y-101433128D01*
X173418862Y-101379916D01*
X173467361Y-101314667D01*
X173523135Y-101239011D01*
X173585011Y-101154577D01*
X173651819Y-101062994D01*
X173722387Y-100965892D01*
X173795545Y-100864901D01*
X173870121Y-100761650D01*
X173944944Y-100657768D01*
X174018843Y-100554885D01*
X174090646Y-100454631D01*
X174159184Y-100358636D01*
X174223284Y-100268527D01*
X174281775Y-100185936D01*
X174333486Y-100112492D01*
X174377247Y-100049824D01*
X174411885Y-99999561D01*
X174436230Y-99963334D01*
X174449111Y-99942771D01*
X174450869Y-99938668D01*
X174442910Y-99927342D01*
X174422115Y-99900162D01*
X174389847Y-99858829D01*
X174347470Y-99805044D01*
X174296347Y-99740506D01*
X174237841Y-99666918D01*
X174173314Y-99585978D01*
X174104131Y-99499388D01*
X174031653Y-99408848D01*
X173957246Y-99316060D01*
X173897517Y-99241702D01*
X172886511Y-99241702D01*
X172880602Y-99254659D01*
X172866272Y-99276908D01*
X172865225Y-99278391D01*
X172846438Y-99308544D01*
X172826791Y-99345375D01*
X172822892Y-99353511D01*
X172819356Y-99361940D01*
X172816230Y-99372059D01*
X172813486Y-99385260D01*
X172811092Y-99402938D01*
X172809019Y-99426484D01*
X172807235Y-99457293D01*
X172805712Y-99496757D01*
X172804419Y-99546269D01*
X172803326Y-99607223D01*
X172802403Y-99681011D01*
X172801619Y-99769028D01*
X172800945Y-99872665D01*
X172800350Y-99993316D01*
X172799805Y-100132374D01*
X172799279Y-100291232D01*
X172798745Y-100470089D01*
X172798206Y-100655207D01*
X172797772Y-100819145D01*
X172797509Y-100963303D01*
X172797484Y-101089079D01*
X172797765Y-101197871D01*
X172798419Y-101291077D01*
X172799514Y-101370097D01*
X172801118Y-101436328D01*
X172803297Y-101491170D01*
X172806119Y-101536021D01*
X172809651Y-101572278D01*
X172813961Y-101601341D01*
X172819117Y-101624609D01*
X172825185Y-101643479D01*
X172832233Y-101659351D01*
X172840329Y-101673622D01*
X172849540Y-101687691D01*
X172858040Y-101700158D01*
X172875176Y-101726452D01*
X172885322Y-101744037D01*
X172886511Y-101747257D01*
X172875604Y-101748334D01*
X172844411Y-101749335D01*
X172795223Y-101750235D01*
X172730333Y-101751010D01*
X172652030Y-101751637D01*
X172562607Y-101752091D01*
X172464356Y-101752349D01*
X172395445Y-101752400D01*
X172290452Y-101752180D01*
X172193610Y-101751548D01*
X172107107Y-101750549D01*
X172033132Y-101749227D01*
X171973874Y-101747626D01*
X171931520Y-101745791D01*
X171908260Y-101743765D01*
X171904378Y-101742493D01*
X171912076Y-101727591D01*
X171920074Y-101719560D01*
X171933246Y-101702434D01*
X171950485Y-101672183D01*
X171962407Y-101647622D01*
X171989045Y-101588711D01*
X171992120Y-100411845D01*
X171995195Y-99234978D01*
X172440853Y-99234978D01*
X172538670Y-99235142D01*
X172629064Y-99235611D01*
X172709630Y-99236347D01*
X172777962Y-99237316D01*
X172831656Y-99238480D01*
X172868305Y-99239803D01*
X172885504Y-99241249D01*
X172886511Y-99241702D01*
X173897517Y-99241702D01*
X173882270Y-99222722D01*
X173808090Y-99130537D01*
X173736069Y-99041204D01*
X173667569Y-98956424D01*
X173603955Y-98877898D01*
X173546588Y-98807326D01*
X173496833Y-98746409D01*
X173456052Y-98696847D01*
X173438888Y-98676178D01*
X173352596Y-98575516D01*
X173275997Y-98492259D01*
X173207183Y-98424438D01*
X173144248Y-98370089D01*
X173134867Y-98362722D01*
X173095356Y-98332117D01*
X174227116Y-98331867D01*
X174221827Y-98379844D01*
X174225130Y-98437188D01*
X174246661Y-98505463D01*
X174286635Y-98585212D01*
X174331943Y-98657495D01*
X174348161Y-98680140D01*
X174376214Y-98717696D01*
X174414430Y-98768021D01*
X174461137Y-98828973D01*
X174514661Y-98898411D01*
X174573331Y-98974194D01*
X174635475Y-99054180D01*
X174699421Y-99136228D01*
X174763495Y-99218196D01*
X174826027Y-99297943D01*
X174885343Y-99373327D01*
X174939771Y-99442207D01*
X174987639Y-99502442D01*
X175027275Y-99551889D01*
X175057006Y-99588408D01*
X175075161Y-99609858D01*
X175078220Y-99613156D01*
X175081079Y-99605149D01*
X175083293Y-99574855D01*
X175084857Y-99522556D01*
X175085767Y-99448531D01*
X175086020Y-99353063D01*
X175085613Y-99236434D01*
X175084704Y-99116445D01*
X175083382Y-98984333D01*
X175081857Y-98872594D01*
X175079881Y-98779025D01*
X175077206Y-98701419D01*
X175073582Y-98637574D01*
X175068761Y-98585283D01*
X175062494Y-98542344D01*
X175054532Y-98506551D01*
X175044627Y-98475700D01*
X175032531Y-98447586D01*
X175017993Y-98420005D01*
X175003311Y-98394966D01*
X174965314Y-98331867D01*
X176025197Y-98331867D01*
X176328034Y-98331867D01*
X176328001Y-98325617D01*
X176327195Y-98223544D01*
X176326170Y-98134633D01*
X176324900Y-98057941D01*
X176323360Y-97992527D01*
X176321524Y-97937449D01*
X176319367Y-97891765D01*
X176316863Y-97854534D01*
X176313987Y-97824813D01*
X176310713Y-97801662D01*
X176307015Y-97784139D01*
X176302869Y-97771301D01*
X176298247Y-97762208D01*
X176293126Y-97755918D01*
X176287478Y-97751488D01*
X176281279Y-97747978D01*
X176274504Y-97744445D01*
X176268508Y-97740876D01*
X176263275Y-97738300D01*
X176255099Y-97735972D01*
X176242886Y-97733878D01*
X176225541Y-97732007D01*
X176201969Y-97730347D01*
X176171077Y-97728884D01*
X176131768Y-97727608D01*
X176082950Y-97726504D01*
X176023527Y-97725561D01*
X175952404Y-97724767D01*
X175868488Y-97724109D01*
X175770683Y-97723575D01*
X175657894Y-97723153D01*
X175529029Y-97722829D01*
X175382991Y-97722592D01*
X175218686Y-97722430D01*
X175035020Y-97722330D01*
X174830897Y-97722280D01*
X174619753Y-97722267D01*
X172999400Y-97722267D01*
X172999400Y-97819054D01*
M02*
